<svg width="305" height="219" viewBox="0 0 305 219" fill="none" xmlns="http://www.w3.org/2000/svg">
<path d="M225.494 153.578C228.052 142.808 229.189 131.64 230.539 120.804C233.31 97.4121 233.879 72.1043 224.357 49.9022C206.807 9.0661 148.614 -11.0876 105.768 6.22475C72.3724 19.7046 40.1848 55.651 67.1854 88.2934C75.2856 98.0729 90.5623 104.747 93.2623 117.764C96.1045 131.64 81.6094 139.173 73.8645 148.689C62.4248 162.697 70.4539 180.406 80.97 192.564C100.581 215.229 131.774 223.422 161.83 216.749C181.796 212.321 200.128 200.956 211.781 185.23C218.886 175.582 222.936 164.811 225.494 153.578Z" fill="url(#paint0_linear_10_73)"/>
<path opacity="0.52" d="M175.827 133.292C183.856 111.288 186.628 85.9806 173.767 66.3555C173.767 66.2895 173.696 66.2895 173.696 66.2234C160.337 45.8053 130.282 35.6954 105.555 39.7923C96.957 41.246 88.5726 45.0785 83.3857 51.6202C71.4486 66.6859 82.7462 89.6149 67.3274 102.632C54.964 113.073 37.3425 109.967 23.3448 116.641C10.1287 122.918 1.318 136.332 0.181135 150.01C-3.7979 199.833 58.6588 215.361 100.936 206.044C131.276 199.37 154.653 176.573 167.94 151.199C170.782 145.649 173.483 139.636 175.827 133.292Z" fill="#F9DABE"/>
<path d="M294.204 27.4358C271.822 -3.22433 224.642 3.71384 197.215 23.7354C183.43 33.7792 172.346 46.5323 160.693 58.5584C150.106 69.4613 136.819 84.1966 119.766 85.3199C112.234 85.7825 107.189 81.0249 100.51 79.0425C81.3962 73.3598 64.2011 91.0687 61.2879 107.258C55.3903 140.297 88.928 159.856 118.344 168.181C187.48 187.741 283.048 156.486 301.949 86.3111C307.136 67.4128 306.425 44.0874 294.204 27.4358Z" fill="url(#paint1_linear_10_73)"/>
<path d="M273.74 171.485C263.721 161.177 245.531 164.547 232.671 166.86C227.342 167.851 227.484 174.723 232.813 175.582C239.421 176.705 246.384 178.291 252.921 180.34C257.895 181.926 263.295 184.569 268.624 183.247C273.811 181.992 278.074 175.979 273.74 171.485Z" fill="url(#paint2_linear_10_73)"/>
<path d="M238.923 181.793C236.01 179.282 232.031 178.357 228.265 177.564C225.778 177.036 224.144 180.736 226.347 181.926C229.473 183.644 232.173 185.956 235.371 187.542C236.934 188.335 239.066 187.41 239.847 186.088C240.771 184.569 240.274 182.983 238.923 181.793Z" fill="url(#paint3_linear_10_73)"/>
<defs>
<linearGradient id="paint0_linear_10_73" x1="224.845" y1="95.5402" x2="48.7213" y2="129.003" gradientUnits="userSpaceOnUse">
<stop stop-color="#FFB55C"/>
<stop offset="0.3018" stop-color="#F8B680"/>
<stop offset="1" stop-color="#FC89AC"/>
</linearGradient>
<linearGradient id="paint1_linear_10_73" x1="151.558" y1="197.761" x2="209.545" y2="-27.4486" gradientUnits="userSpaceOnUse">
<stop stop-color="#F9DABE"/>
<stop offset="1" stop-color="#FC89AC"/>
</linearGradient>
<linearGradient id="paint2_linear_10_73" x1="235.216" y1="183.137" x2="268.662" y2="162.85" gradientUnits="userSpaceOnUse">
<stop stop-color="#F9DABE"/>
<stop offset="1" stop-color="#FC89AC"/>
</linearGradient>
<linearGradient id="paint3_linear_10_73" x1="227.902" y1="185.08" x2="237.604" y2="179.195" gradientUnits="userSpaceOnUse">
<stop stop-color="#F9DABE"/>
<stop offset="1" stop-color="#FC89AC"/>
</linearGradient>
</defs>
</svg>
