<svg width="1077" height="231" viewBox="0 0 1077 231" fill="none" xmlns="http://www.w3.org/2000/svg">
<g filter="url(#filter0_d_3_16)">
<path d="M279 195.229L280.132 200.099L281.037 199.889L281.805 199.368L279 195.229ZM436.5 88.5L439.305 92.6392L439.413 92.5659L439.518 92.487L436.5 88.5ZM850.501 195.67L851.889 200.473L852.9 200.181L853.707 199.506L850.501 195.67ZM1067.35 19.0142C1067.59 16.2637 1065.56 13.8348 1062.81 13.5889L1017.99 9.58288C1015.24 9.33705 1012.81 11.3675 1012.56 14.1179C1012.32 16.8684 1014.35 19.2973 1017.1 19.5432L1056.94 23.1041L1053.38 62.9453C1053.13 65.6957 1055.16 68.1247 1057.92 68.3705C1060.67 68.6164 1063.09 66.586 1063.34 63.8355L1067.35 19.0142ZM610 81L613.432 77.3637L613.038 76.9915L612.573 76.7125L610 81ZM731.501 195.67L728.069 199.306L728.999 200.184L730.237 200.507L731.501 195.67ZM517.5 48.5L518.194 43.5483L517.176 43.4058L516.185 43.6762L517.5 48.5ZM567.5 55.5L570.073 51.2125L569.201 50.6893L568.194 50.5483L567.5 55.5ZM473.5 60.5L472.185 55.6762L471.253 55.9303L470.483 56.513L473.5 60.5ZM794 212L792.736 216.838L794.067 217.185L795.389 216.803L794 212ZM139.5 186L137.492 190.579L137.633 190.641L137.778 190.694L139.5 186ZM209 211.5L207.278 216.194L208.679 216.708L210.132 216.37L209 211.5ZM74.0004 157.267L71.833 161.772L71.9118 161.81L71.9918 161.845L74.0004 157.267ZM6.8326 130.506L23.0827 138.322L27.4175 129.311L11.1674 121.494L6.8326 130.506ZM55.5829 153.956L71.833 161.772L76.1678 152.761L59.9177 144.944L55.5829 153.956ZM71.9918 161.845L88.3668 169.029L92.384 159.871L76.009 152.688L71.9918 161.845ZM121.117 183.395L137.492 190.579L141.509 181.421L125.134 174.238L121.117 183.395ZM137.778 190.694L155.153 197.069L158.598 187.681L141.223 181.306L137.778 190.694ZM189.903 209.819L207.278 216.194L210.723 206.806L193.348 200.431L189.903 209.819ZM210.132 216.37L227.632 212.302L225.368 202.562L207.868 206.63L210.132 216.37ZM262.632 204.167L280.132 200.099L277.868 190.359L260.368 194.427L262.632 204.167ZM281.805 199.368L301.493 186.027L295.883 177.749L276.196 191.09L281.805 199.368ZM340.868 159.345L380.243 132.663L374.633 124.384L335.258 151.066L340.868 159.345ZM419.618 105.98L439.305 92.6392L433.696 84.3608L414.008 97.702L419.618 105.98ZM439.518 92.487L448.768 85.487L442.733 77.513L433.483 84.513L439.518 92.487ZM467.268 71.487L476.518 64.487L470.483 56.513L461.233 63.513L467.268 71.487ZM474.816 65.3238L485.816 62.3238L483.185 52.6762L472.185 55.6762L474.816 65.3238ZM507.816 56.3238L518.816 53.3238L516.185 43.6762L505.185 46.6762L507.816 56.3238ZM516.807 53.4517L529.307 55.2017L530.694 45.2983L518.194 43.5483L516.807 53.4517ZM554.307 58.7017L566.807 60.4517L568.194 50.5483L555.694 48.7983L554.307 58.7017ZM564.928 59.7875L575.553 66.1625L580.698 57.5875L570.073 51.2125L564.928 59.7875ZM596.803 78.9125L607.428 85.2875L612.573 76.7125L601.948 70.3375L596.803 78.9125ZM606.569 84.6363L621.756 98.97L628.62 91.6975L613.432 77.3637L606.569 84.6363ZM652.131 127.637L682.506 156.305L689.37 149.032L658.995 120.365L652.131 127.637ZM712.881 184.972L728.069 199.306L734.933 192.033L719.745 177.7L712.881 184.972ZM730.237 200.507L745.862 204.59L748.39 194.915L732.765 190.832L730.237 200.507ZM777.111 212.755L792.736 216.838L795.264 207.162L779.639 203.08L777.111 212.755ZM795.389 216.803L809.514 212.721L806.737 203.114L792.612 207.197L795.389 216.803ZM837.764 204.556L851.889 200.473L849.112 190.866L834.987 194.949L837.764 204.556ZM853.707 199.506L871.363 184.748L864.949 177.075L847.294 191.834L853.707 199.506ZM906.674 155.231L941.985 125.714L935.571 118.042L900.26 147.558L906.674 155.231ZM977.296 96.1973L1012.61 66.6805L1006.19 59.008L970.882 88.5248L977.296 96.1973ZM1047.92 37.1637L1065.57 22.4053L1059.16 14.7328L1041.5 29.4912L1047.92 37.1637ZM279 195.229L281.264 204.969L283.073 204.549L284.61 203.507L279 195.229ZM436.5 88.5L442.11 96.7783L442.326 96.6317L442.535 96.4741L436.5 88.5ZM850.501 195.67L853.277 205.277L855.299 204.692L856.914 203.342L850.501 195.67ZM1072.33 19.4593C1072.82 13.9584 1068.76 9.10044 1063.26 8.60878L973.614 0.596689C968.113 0.105027 963.255 4.16583 962.763 9.66675C962.272 15.1677 966.333 20.0256 971.834 20.5173L1051.52 27.6391L1044.39 107.322C1043.9 112.822 1047.96 117.68 1053.46 118.172C1058.97 118.664 1063.82 114.603 1064.31 109.102L1072.33 19.4593ZM610 81L616.864 73.7275L616.075 72.9831L615.145 72.4251L610 81ZM731.501 195.67L724.637 202.942L726.497 204.698L728.973 205.345L731.501 195.67ZM517.5 48.5L518.887 38.5966L516.852 38.3117L514.869 38.8524L517.5 48.5ZM567.5 55.5L572.645 46.9251L570.901 45.8786L568.887 45.5966L567.5 55.5ZM473.5 60.5L470.869 50.8524L469.006 51.3605L467.466 52.5259L473.5 60.5ZM794 212L791.472 221.675L794.134 222.371L796.777 221.607L794 212ZM139.5 186L135.483 195.158L135.766 195.282L136.056 195.388L139.5 186ZM209 211.5L205.556 220.888L208.358 221.916L211.265 221.24L209 211.5ZM74.0004 157.267L69.6656 166.278L69.8231 166.354L69.9832 166.424L74.0004 157.267ZM4.6652 135.012L20.9153 142.828L29.5849 124.805L13.3348 116.988L4.6652 135.012ZM53.4155 158.462L69.6656 166.278L78.3352 148.255L62.0851 140.438L53.4155 158.462ZM69.9832 166.424L86.3582 173.608L94.3927 155.292L78.0176 148.109L69.9832 166.424ZM119.108 187.974L135.483 195.158L143.518 176.842L127.143 169.659L119.108 187.974ZM136.056 195.388L153.431 201.763L160.32 182.987L142.945 176.612L136.056 195.388ZM188.181 214.513L205.556 220.888L212.445 202.112L195.07 195.737L188.181 214.513ZM211.265 221.24L228.764 217.173L224.236 197.692L206.736 201.76L211.265 221.24ZM263.764 209.037L281.264 204.969L276.736 185.489L259.236 189.556L263.764 209.037ZM284.61 203.507L304.298 190.166L293.078 173.61L273.391 186.951L284.61 203.507ZM343.673 163.484L383.048 136.802L371.828 120.245L332.453 146.927L343.673 163.484ZM422.423 110.119L442.11 96.7783L430.891 80.2217L411.203 93.5628L422.423 110.119ZM442.535 96.4741L451.785 89.4741L439.716 73.5259L430.466 80.5259L442.535 96.4741ZM470.285 75.4741L479.535 68.4741L467.466 52.5259L458.216 59.5259L470.285 75.4741ZM476.132 70.1476L487.132 67.1476L481.869 47.8524L470.869 50.8524L476.132 70.1476ZM509.132 61.1476L520.132 58.1476L514.869 38.8524L503.869 41.8524L509.132 61.1476ZM516.114 58.4034L528.614 60.1534L531.387 40.3466L518.887 38.5966L516.114 58.4034ZM553.614 63.6534L566.114 65.4034L568.887 45.5966L556.387 43.8466L553.614 63.6534ZM562.355 64.0749L572.98 70.4499L583.27 53.3001L572.645 46.9251L562.355 64.0749ZM594.23 83.1999L604.855 89.5749L615.145 72.4251L604.52 66.0501L594.23 83.1999ZM603.137 88.2725L618.324 102.606L632.052 88.0612L616.864 73.7275L603.137 88.2725ZM648.699 131.274L679.074 159.941L692.802 145.396L662.427 116.729L648.699 131.274ZM709.449 188.609L724.637 202.942L738.364 188.397L723.177 174.064L709.449 188.609ZM728.973 205.345L744.598 209.428L749.654 190.077L734.029 185.995L728.973 205.345ZM775.847 217.593L791.472 221.675L796.528 202.325L780.903 198.242L775.847 217.593ZM796.777 221.607L810.902 217.524L805.349 198.311L791.224 202.393L796.777 221.607ZM839.152 209.359L853.277 205.277L847.724 186.063L833.599 190.146L839.152 209.359ZM856.914 203.342L874.57 188.584L861.743 173.239L844.087 187.997L856.914 203.342ZM909.881 159.067L945.192 129.55L932.365 114.205L897.054 143.722L909.881 159.067ZM980.503 100.034L1015.81 70.5167L1002.99 55.1718L967.676 84.6885L980.503 100.034ZM1051.12 40.9999L1068.78 26.2416L1055.95 10.8966L1038.3 25.655L1051.12 40.9999Z" fill="#FC89AC"/>
</g>
<defs>
<filter id="filter0_d_3_16" x="0.665039" y="0.556335" width="1075.7" height="229.814" filterUnits="userSpaceOnUse" color-interpolation-filters="sRGB">
<feFlood flood-opacity="0" result="BackgroundImageFix"/>
<feColorMatrix in="SourceAlpha" type="matrix" values="0 0 0 0 0 0 0 0 0 0 0 0 0 0 0 0 0 0 127 0" result="hardAlpha"/>
<feOffset dy="4"/>
<feGaussianBlur stdDeviation="2"/>
<feComposite in2="hardAlpha" operator="out"/>
<feColorMatrix type="matrix" values="0 0 0 0 0 0 0 0 0 0 0 0 0 0 0 0 0 0 0.25 0"/>
<feBlend mode="normal" in2="BackgroundImageFix" result="effect1_dropShadow_3_16"/>
<feBlend mode="normal" in="SourceGraphic" in2="effect1_dropShadow_3_16" result="shape"/>
</filter>
</defs>
</svg>
