<svg width="1233" height="197" viewBox="0 0 1233 197" fill="none" xmlns="http://www.w3.org/2000/svg">
<path fill-rule="evenodd" clip-rule="evenodd" d="M845 19.5001C802.352 20.0013 766.531 19.6658 748 19.5001C711.395 19.1726 626.9 16.3078 557.5 20.5C504.149 23.7166 431.999 18.5001 346.5 31.5001C316.999 34.0001 287.188 36.2913 265 36.5002C66.7825 38.3668 43.5641 50.2054 33.7972 59.2798C23.6796 68.6855 23.663 69.4611 33.5827 69.4493C36.3041 69.446 39.1097 69.9149 41.52 70.6876C37.1331 72.0705 34.6167 73.6425 32.7302 75.504C32.3097 75.9193 31.9073 76.3182 31.5229 76.7013C16.1792 74.6702 14.0167 76.1326 16.7747 86.057C17.3927 88.2802 17.4209 90.8603 16.9561 93.5158C15.4969 94.4551 15.1268 96.0602 15.5207 98.5395C14.137 102.029 11.9971 105.341 9.32375 107.825C-0.646002 117.089 -0.338951 117.845 13.6521 118.493L14.3134 118.523C13.1285 120.826 11.6163 122.958 9.84124 124.71C0.175611 134.249 0.507101 134.996 14.5148 135.249C22.8069 135.399 31.6616 135.173 34.1916 134.747C36.2898 134.394 43.5982 138.584 51.6322 144.576C45.6328 145.545 47.7035 146.714 56.362 149.443C57.2974 149.738 58.2149 150.055 59.1114 150.392C63.3697 153.541 67.8564 156.082 72.5695 158.014C77.5217 162.279 78.5039 166.259 72.4169 166.637C54.6371 167.74 76.9351 178.09 118.687 188.115C164.115 199.022 162.618 187.211 382 169.522C428.737 165.754 479.885 166.547 523.5 162.5C548.07 162.682 579.119 162.88 609.5 162.5C632.59 162.851 658.733 162.492 680.5 162.5C808.856 162.564 1126.22 161.975 1083.43 159.879C1047.02 158.096 1065.75 151.624 1123.09 146.178C1152.65 143.371 1177.86 138.235 1179.11 134.767C1180.36 131.298 1189.28 128.45 1198.92 128.439C1211.97 128.423 1216.46 125.412 1216.49 116.654C1216.5 113.314 1215.67 110.694 1213.65 108.57C1216.08 106.64 1217.02 103.741 1216.9 99.5616C1216.66 91.6506 1211.85 87.9134 1197.67 85.5107C1203.84 85.1644 1205.21 84.5112 1202.47 83.0074C1204.38 81.5241 1204.03 78.6991 1202.35 73.8672C1201.78 72.2234 1201.52 70.3576 1201.55 68.3923C1203.71 67.9162 1203.68 67.2712 1201.67 66.2711C1202.22 61.0979 1204.53 55.5579 1208.07 51.7107C1217.12 41.8801 1216.77 41.1435 1203.12 41.325C1195.64 41.4248 1187.7 41.8611 1184.62 42.3247C1182.45 40.2135 1176.63 37.333 1167.88 34.047C1165.82 32.6165 1163.7 31.0585 1161.59 29.4177C1149.64 20.1302 1138.26 21.3303 1123.09 22.0614C1119.7 22.2248 1085.75 21.204 1080.5 21.3828C1051 21.3828 1038.91 14.6174 858.5 19.5001C853.801 19.7228 851.036 16.9388 845 19.5001ZM104.904 82.4457C104.158 82.5958 103.418 82.7467 102.687 82.8984C100.866 82.5956 99.055 82.2762 97.2619 81.9408C99.8234 82.09 102.375 82.2588 104.904 82.4457ZM56.7971 67.6082C60.8309 67.0538 65.5479 66.5249 71.0905 66.0096C60.8451 65.7631 56.4537 66.1411 56.7971 67.6082Z" fill="url(#paint0_linear_137_69)"/>
<path d="M93.6632 88.7987V61.1623H104.567C106.663 61.1623 108.448 61.5627 109.924 62.3633C111.399 63.155 112.524 64.257 113.297 65.6694C114.08 67.0729 114.471 68.6922 114.471 70.5274C114.471 72.3626 114.076 73.9819 113.284 75.3854C112.492 76.7888 111.345 77.8818 109.843 78.6645C108.35 79.4471 106.541 79.8385 104.418 79.8385H97.4686V75.1559H103.474C104.598 75.1559 105.525 74.9625 106.253 74.5757C106.991 74.1799 107.54 73.6356 107.9 72.9429C108.269 72.2412 108.453 71.436 108.453 70.5274C108.453 69.6098 108.269 68.8091 107.9 68.1254C107.54 67.4327 106.991 66.8974 106.253 66.5196C105.516 66.1327 104.58 65.9393 103.447 65.9393H99.5063V88.7987H93.6632ZM123.513 89.19C122.19 89.19 121.012 88.9606 119.977 88.5018C118.943 88.034 118.124 87.3458 117.521 86.4372C116.927 85.5196 116.631 84.3771 116.631 83.0096C116.631 81.8581 116.842 80.891 117.265 80.1084C117.688 79.3257 118.263 78.696 118.992 78.2192C119.721 77.7424 120.548 77.3825 121.475 77.1396C122.411 76.8967 123.391 76.7258 124.417 76.6268C125.622 76.5009 126.594 76.3839 127.332 76.276C128.069 76.159 128.605 75.9881 128.937 75.7632C129.27 75.5383 129.437 75.2054 129.437 74.7646V74.6836C129.437 73.829 129.167 73.1678 128.627 72.7C128.096 72.2322 127.341 71.9983 126.36 71.9983C125.325 71.9983 124.502 72.2277 123.89 72.6865C123.279 73.1363 122.874 73.7031 122.676 74.3868L117.359 73.955C117.629 72.6955 118.16 71.6069 118.952 70.6893C119.743 69.7627 120.764 69.052 122.015 68.5572C123.274 68.0534 124.732 67.8015 126.387 67.8015C127.538 67.8015 128.64 67.9365 129.693 68.2064C130.755 68.4763 131.695 68.8946 132.513 69.4613C133.341 70.0281 133.993 70.7568 134.47 71.6474C134.947 72.5291 135.185 73.5861 135.185 74.8186V88.7987H129.734V85.9244H129.572C129.239 86.5721 128.793 87.1434 128.236 87.6382C127.678 88.124 127.008 88.5063 126.225 88.7852C125.442 89.0551 124.538 89.19 123.513 89.19ZM125.159 85.2227C126.005 85.2227 126.751 85.0563 127.399 84.7234C128.047 84.3816 128.555 83.9228 128.924 83.347C129.293 82.7712 129.477 82.119 129.477 81.3903V79.1908C129.297 79.3077 129.05 79.4157 128.735 79.5146C128.429 79.6046 128.083 79.69 127.696 79.771C127.309 79.843 126.922 79.9104 126.535 79.9734C126.149 80.0274 125.798 80.0769 125.483 80.1219C124.808 80.2208 124.219 80.3783 123.715 80.5942C123.211 80.8101 122.82 81.1024 122.541 81.4713C122.262 81.8311 122.123 82.281 122.123 82.8207C122.123 83.6034 122.406 84.2016 122.973 84.6155C123.549 85.0203 124.277 85.2227 125.159 85.2227ZM145.394 61.1623V88.7987H139.645V61.1623H145.394ZM169.322 68.0714L162.076 88.7987H155.599L148.352 68.0714H154.425L158.729 82.9017H158.945L163.237 68.0714H169.322ZM181.042 89.2035C178.91 89.2035 177.075 88.7717 175.537 87.9081C174.007 87.0354 172.829 85.803 172.001 84.2106C171.173 82.6093 170.76 80.7156 170.76 78.5295C170.76 76.3974 171.173 74.5262 172.001 72.9159C172.829 71.3056 173.994 70.0506 175.496 69.151C177.008 68.2514 178.78 67.8015 180.813 67.8015C182.18 67.8015 183.453 68.022 184.632 68.4628C185.819 68.8946 186.854 69.5468 187.735 70.4194C188.626 71.2921 189.319 72.3896 189.814 73.7121C190.308 75.0255 190.556 76.5639 190.556 78.3271V79.906H173.054V76.3434H185.145C185.145 75.5158 184.965 74.7826 184.605 74.1439C184.245 73.5051 183.746 73.0059 183.107 72.646C182.477 72.2772 181.744 72.0927 180.907 72.0927C180.035 72.0927 179.261 72.2952 178.586 72.7C177.921 73.0958 177.399 73.6311 177.021 74.3058C176.643 74.9715 176.45 75.7137 176.441 76.5324V79.9194C176.441 80.945 176.63 81.8311 177.008 82.5778C177.394 83.3245 177.939 83.9003 178.64 84.3051C179.342 84.7099 180.174 84.9123 181.137 84.9123C181.775 84.9123 182.36 84.8224 182.891 84.6425C183.422 84.4625 183.876 84.1926 184.254 83.8328C184.632 83.4729 184.92 83.0321 185.118 82.5104L190.434 82.8612C190.164 84.1387 189.611 85.2542 188.775 86.2078C187.947 87.1524 186.876 87.8901 185.563 88.4209C184.258 88.9426 182.752 89.2035 181.042 89.2035ZM200.056 61.1623V88.7987H194.307V61.1623H200.056ZM217.953 79.9734V68.0714H223.701V88.7987H218.182V85.0338H217.966C217.498 86.2483 216.72 87.2244 215.632 87.9621C214.552 88.6997 213.234 89.0686 211.678 89.0686C210.292 89.0686 209.073 88.7537 208.021 88.124C206.968 87.4943 206.145 86.5991 205.551 85.4386C204.967 84.2781 204.67 82.8882 204.661 81.2689V68.0714H210.409V80.2433C210.418 81.4668 210.747 82.4339 211.394 83.1446C212.042 83.8553 212.91 84.2106 213.999 84.2106C214.692 84.2106 215.339 84.0532 215.942 83.7383C216.545 83.4145 217.031 82.9377 217.399 82.3079C217.777 81.6782 217.962 80.9 217.953 79.9734ZM228.299 88.7987V68.0714H234.048V88.7987H228.299ZM231.187 65.3996C230.333 65.3996 229.599 65.1162 228.988 64.5494C228.385 63.9737 228.083 63.2854 228.083 62.4848C228.083 61.6931 228.385 61.0139 228.988 60.4471C229.599 59.8714 230.333 59.5835 231.187 59.5835C232.042 59.5835 232.771 59.8714 233.373 60.4471C233.985 61.0139 234.291 61.6931 234.291 62.4848C234.291 63.2854 233.985 63.9737 233.373 64.5494C232.771 65.1162 232.042 65.3996 231.187 65.3996ZM244.402 76.8158V88.7987H238.653V61.1623H244.24V71.7284H244.482C244.95 70.5049 245.706 69.5468 246.75 68.8541C247.793 68.1524 249.102 67.8015 250.676 67.8015C252.116 67.8015 253.371 68.1164 254.441 68.7461C255.521 69.3669 256.357 70.262 256.951 71.4315C257.554 72.592 257.851 73.9819 257.842 75.6013V88.7987H252.093V76.6268C252.102 75.3494 251.778 74.3553 251.122 73.6446C250.474 72.9339 249.565 72.5785 248.396 72.5785C247.613 72.5785 246.92 72.745 246.318 73.0778C245.724 73.4107 245.256 73.8965 244.914 74.5352C244.581 75.1649 244.41 75.9251 244.402 76.8158ZM262.366 88.7987V68.0714H268.114V88.7987H262.366ZM265.254 65.3996C264.399 65.3996 263.666 65.1162 263.054 64.5494C262.451 63.9737 262.15 63.2854 262.15 62.4848C262.15 61.6931 262.451 61.0139 263.054 60.4471C263.666 59.8714 264.399 59.5835 265.254 59.5835C266.108 59.5835 266.837 59.8714 267.44 60.4471C268.051 61.0139 268.357 61.6931 268.357 62.4848C268.357 63.2854 268.051 63.9737 267.44 64.5494C266.837 65.1162 266.108 65.3996 265.254 65.3996ZM272.719 88.7987V68.0714H278.198V71.7284H278.441C278.873 70.5139 279.592 69.5558 280.6 68.8541C281.608 68.1524 282.813 67.8015 284.216 67.8015C285.638 67.8015 286.848 68.1569 287.846 68.8676C288.845 69.5693 289.511 70.5229 289.844 71.7284H290.06C290.482 70.5409 291.247 69.5918 292.354 68.8811C293.469 68.1614 294.787 67.8015 296.307 67.8015C298.242 67.8015 299.811 68.4178 301.017 69.6503C302.231 70.8738 302.839 72.61 302.839 74.8591V88.7987H297.104V75.9926C297.104 74.8411 296.798 73.9774 296.186 73.4017C295.574 72.8259 294.81 72.5381 293.892 72.5381C292.848 72.5381 292.034 72.8709 291.449 73.5366C290.865 74.1934 290.572 75.0615 290.572 76.141V88.7987H284.999V75.8711C284.999 74.8546 284.707 74.0449 284.122 73.4422C283.546 72.8394 282.786 72.5381 281.841 72.5381C281.203 72.5381 280.627 72.7 280.114 73.0238C279.61 73.3387 279.21 73.784 278.913 74.3598C278.616 74.9265 278.468 75.5923 278.468 76.3569V88.7987H272.719ZM307.379 88.7987V68.0714H312.858V71.7284H313.101C313.533 70.5139 314.253 69.5558 315.26 68.8541C316.268 68.1524 317.473 67.8015 318.877 67.8015C320.298 67.8015 321.508 68.1569 322.507 68.8676C323.505 69.5693 324.171 70.5229 324.504 71.7284H324.72C325.143 70.5409 325.907 69.5918 327.014 68.8811C328.129 68.1614 329.447 67.8015 330.968 67.8015C332.902 67.8015 334.472 68.4178 335.677 69.6503C336.892 70.8738 337.499 72.61 337.499 74.8591V88.7987H331.764V75.9926C331.764 74.8411 331.458 73.9774 330.846 73.4017C330.234 72.8259 329.47 72.5381 328.552 72.5381C327.509 72.5381 326.694 72.8709 326.11 73.5366C325.525 74.1934 325.232 75.0615 325.232 76.141V88.7987H319.659V75.8711C319.659 74.8546 319.367 74.0449 318.782 73.4422C318.206 72.8394 317.446 72.5381 316.502 72.5381C315.863 72.5381 315.287 72.7 314.774 73.0238C314.271 73.3387 313.87 73.784 313.573 74.3598C313.277 74.9265 313.128 75.5923 313.128 76.3569V88.7987H307.379ZM351.486 89.2035C349.354 89.2035 347.518 88.7717 345.98 87.9081C344.451 87.0354 343.272 85.803 342.444 84.2106C341.617 82.6093 341.203 80.7156 341.203 78.5295C341.203 76.3974 341.617 74.5262 342.444 72.9159C343.272 71.3056 344.437 70.0506 345.939 69.151C347.451 68.2514 349.223 67.8015 351.256 67.8015C352.624 67.8015 353.897 68.022 355.075 68.4628C356.263 68.8946 357.297 69.5468 358.179 70.4194C359.069 71.2921 359.762 72.3896 360.257 73.7121C360.752 75.0255 360.999 76.5639 360.999 78.3271V79.906H343.497V76.3434H355.588C355.588 75.5158 355.408 74.7826 355.048 74.1439C354.688 73.5051 354.189 73.0059 353.55 72.646C352.921 72.2772 352.187 72.0927 351.351 72.0927C350.478 72.0927 349.704 72.2952 349.03 72.7C348.364 73.0958 347.842 73.6311 347.464 74.3058C347.087 74.9715 346.893 75.7137 346.884 76.5324V79.9194C346.884 80.945 347.073 81.8311 347.451 82.5778C347.838 83.3245 348.382 83.9003 349.084 84.3051C349.785 84.7099 350.618 84.9123 351.58 84.9123C352.219 84.9123 352.804 84.8224 353.334 84.6425C353.865 84.4625 354.319 84.1926 354.697 83.8328C355.075 83.4729 355.363 83.0321 355.561 82.5104L360.878 82.8612C360.608 84.1387 360.055 85.2542 359.218 86.2078C358.39 87.1524 357.32 87.8901 356.006 88.4209C354.702 88.9426 353.195 89.2035 351.486 89.2035ZM378.754 82.8342L378.768 75.9386H379.604L386.244 68.0714H392.842L383.923 78.489H382.56L378.754 82.8342ZM373.545 88.7987V61.1623H379.294V88.7987H373.545ZM386.5 88.7987L380.401 79.771L384.233 75.7092L393.234 88.7987H386.5ZM408.955 79.9734V68.0714H414.703V88.7987H409.184V85.0338H408.968C408.5 86.2483 407.722 87.2244 406.634 87.9621C405.554 88.6997 404.236 89.0686 402.68 89.0686C401.294 89.0686 400.075 88.7537 399.023 88.124C397.97 87.4943 397.147 86.5991 396.553 85.4386C395.969 84.2781 395.672 82.8882 395.663 81.2689V68.0714H401.411V80.2433C401.42 81.4668 401.749 82.4339 402.396 83.1446C403.044 83.8553 403.912 84.2106 405.001 84.2106C405.693 84.2106 406.341 84.0532 406.944 83.7383C407.547 83.4145 408.032 82.9377 408.401 82.3079C408.779 81.6782 408.964 80.9 408.955 79.9734ZM432.593 79.9734V68.0714H438.342V88.7987H432.823V85.0338H432.607C432.139 86.2483 431.361 87.2244 430.272 87.9621C429.193 88.6997 427.875 89.0686 426.318 89.0686C424.933 89.0686 423.714 88.7537 422.661 88.124C421.609 87.4943 420.786 86.5991 420.192 85.4386C419.607 84.2781 419.31 82.8882 419.301 81.2689V68.0714H425.05V80.2433C425.059 81.4668 425.387 82.4339 426.035 83.1446C426.683 83.8553 427.551 84.2106 428.639 84.2106C429.332 84.2106 429.98 84.0532 430.583 83.7383C431.185 83.4145 431.671 82.9377 432.04 82.3079C432.418 81.6782 432.602 80.9 432.593 79.9734ZM448.689 61.1623V88.7987H442.94V61.1623H448.689ZM466.585 79.9734V68.0714H472.334V88.7987H466.815V85.0338H466.599C466.131 86.2483 465.353 87.2244 464.264 87.9621C463.185 88.6997 461.867 89.0686 460.311 89.0686C458.925 89.0686 457.706 88.7537 456.654 88.124C455.601 87.4943 454.778 86.5991 454.184 85.4386C453.599 84.2781 453.303 82.8882 453.294 81.2689V68.0714H459.042V80.2433C459.051 81.4668 459.379 82.4339 460.027 83.1446C460.675 83.8553 461.543 84.2106 462.632 84.2106C463.324 84.2106 463.972 84.0532 464.575 83.7383C465.178 83.4145 465.663 82.9377 466.032 82.3079C466.41 81.6782 466.594 80.9 466.585 79.9734ZM496.256 68.0714L489.01 88.7987H482.532L475.286 68.0714H481.358L485.663 82.9017H485.879L490.17 68.0714H496.256ZM504.552 89.19C503.229 89.19 502.051 88.9606 501.016 88.5018C499.982 88.034 499.163 87.3458 498.56 86.4372C497.966 85.5196 497.67 84.3771 497.67 83.0096C497.67 81.8581 497.881 80.891 498.304 80.1084C498.727 79.3257 499.302 78.696 500.031 78.2192C500.76 77.7424 501.587 77.3825 502.514 77.1396C503.45 76.8967 504.43 76.7258 505.456 76.6268C506.661 76.5009 507.633 76.3839 508.371 76.276C509.108 76.159 509.644 75.9881 509.976 75.7632C510.309 75.5383 510.476 75.2054 510.476 74.7646V74.6836C510.476 73.829 510.206 73.1678 509.666 72.7C509.135 72.2322 508.38 71.9983 507.399 71.9983C506.364 71.9983 505.541 72.2277 504.93 72.6865C504.318 73.1363 503.913 73.7031 503.715 74.3868L498.398 73.955C498.668 72.6955 499.199 71.6069 499.991 70.6893C500.782 69.7627 501.803 69.052 503.054 68.5572C504.313 68.0534 505.771 67.8015 507.426 67.8015C508.578 67.8015 509.68 67.9365 510.732 68.2064C511.794 68.4763 512.734 68.8946 513.552 69.4613C514.38 70.0281 515.032 70.7568 515.509 71.6474C515.986 72.5291 516.224 73.5861 516.224 74.8186V88.7987H510.773V85.9244H510.611C510.278 86.5721 509.832 87.1434 509.275 87.6382C508.717 88.124 508.047 88.5063 507.264 88.7852C506.481 89.0551 505.577 89.19 504.552 89.19ZM506.198 85.2227C507.044 85.2227 507.79 85.0563 508.438 84.7234C509.086 84.3816 509.594 83.9228 509.963 83.347C510.332 82.7712 510.516 82.119 510.516 81.3903V79.1908C510.336 79.3077 510.089 79.4157 509.774 79.5146C509.468 79.6046 509.122 79.69 508.735 79.771C508.348 79.843 507.961 79.9104 507.574 79.9734C507.188 80.0274 506.837 80.0769 506.522 80.1219C505.847 80.2208 505.258 80.3783 504.754 80.5942C504.25 80.8101 503.859 81.1024 503.58 81.4713C503.301 81.8311 503.162 82.281 503.162 82.8207C503.162 83.6034 503.445 84.2016 504.012 84.6155C504.588 85.0203 505.316 85.2227 506.198 85.2227ZM531.709 68.0714V72.3896H519.227V68.0714H531.709ZM522.061 63.1055H527.809V82.4294C527.809 82.9602 527.89 83.374 528.052 83.6709C528.214 83.9587 528.439 84.1612 528.727 84.2781C529.024 84.3951 529.366 84.4535 529.752 84.4535C530.022 84.4535 530.292 84.431 530.562 84.3861C530.832 84.3321 531.039 84.2916 531.183 84.2646L532.087 88.5423C531.799 88.6323 531.394 88.7357 530.872 88.8527C530.351 88.9786 529.716 89.0551 528.97 89.0821C527.584 89.1361 526.37 88.9516 525.326 88.5288C524.292 88.106 523.486 87.4493 522.911 86.5586C522.335 85.668 522.052 84.5435 522.061 83.1851V63.1055ZM544.249 88.7987V68.0714H549.727V71.7284H549.97C550.402 70.5139 551.122 69.5558 552.129 68.8541C553.137 68.1524 554.342 67.8015 555.746 67.8015C557.167 67.8015 558.377 68.1569 559.376 68.8676C560.374 69.5693 561.04 70.5229 561.373 71.7284H561.589C562.012 70.5409 562.776 69.5918 563.883 68.8811C564.998 68.1614 566.316 67.8015 567.837 67.8015C569.771 67.8015 571.341 68.4178 572.546 69.6503C573.761 70.8738 574.368 72.61 574.368 74.8591V88.7987H568.633V75.9926C568.633 74.8411 568.327 73.9774 567.715 73.4017C567.104 72.8259 566.339 72.5381 565.421 72.5381C564.378 72.5381 563.563 72.8709 562.979 73.5366C562.394 74.1934 562.102 75.0615 562.102 76.141V88.7987H556.528V75.8711C556.528 74.8546 556.236 74.0449 555.651 73.4422C555.076 72.8394 554.315 72.5381 553.371 72.5381C552.732 72.5381 552.156 72.7 551.644 73.0238C551.14 73.3387 550.739 73.784 550.443 74.3598C550.146 74.9265 549.997 75.5923 549.997 76.3569V88.7987H544.249ZM581.716 96.5714C580.987 96.5714 580.303 96.513 579.664 96.396C579.035 96.2881 578.513 96.1486 578.099 95.9777L579.395 91.6865C580.069 91.8934 580.677 92.0059 581.216 92.0238C581.765 92.0418 582.237 91.9159 582.633 91.646C583.038 91.3761 583.366 90.9173 583.618 90.2696L583.956 89.3925L576.52 68.0714H582.566L586.857 83.293H587.073L591.405 68.0714H597.49L589.434 91.0388C589.048 92.1543 588.521 93.1259 587.856 93.9535C587.199 94.7902 586.367 95.4334 585.359 95.8832C584.351 96.342 583.137 96.5714 581.716 96.5714ZM609.129 89.2035C607.033 89.2035 605.22 88.7582 603.691 87.8676C602.171 86.968 600.997 85.7175 600.169 84.1162C599.341 82.5059 598.928 80.6391 598.928 78.516C598.928 76.3749 599.341 74.5037 600.169 72.9024C600.997 71.2921 602.171 70.0416 603.691 69.151C605.22 68.2514 607.033 67.8015 609.129 67.8015C611.225 67.8015 613.034 68.2514 614.554 69.151C616.083 70.0416 617.262 71.2921 618.09 72.9024C618.917 74.5037 619.331 76.3749 619.331 78.516C619.331 80.6391 618.917 82.5059 618.09 84.1162C617.262 85.7175 616.083 86.968 614.554 87.8676C613.034 88.7582 611.225 89.2035 609.129 89.2035ZM609.156 84.7504C610.11 84.7504 610.906 84.4805 611.545 83.9408C612.184 83.392 612.665 82.6453 612.989 81.7007C613.322 80.7561 613.488 79.681 613.488 78.4756C613.488 77.2701 613.322 76.195 612.989 75.2504C612.665 74.3058 612.184 73.5591 611.545 73.0104C610.906 72.4616 610.11 72.1872 609.156 72.1872C608.194 72.1872 607.384 72.4616 606.727 73.0104C606.08 73.5591 605.589 74.3058 605.256 75.2504C604.933 76.195 604.771 77.2701 604.771 78.4756C604.771 79.681 604.933 80.7561 605.256 81.7007C605.589 82.6453 606.08 83.392 606.727 83.9408C607.384 84.4805 608.194 84.7504 609.156 84.7504ZM605.014 65.2376C604.24 65.2376 603.574 64.9677 603.016 64.428C602.459 63.8792 602.18 63.2315 602.18 62.4848C602.18 61.7201 602.459 61.0724 603.016 60.5416C603.574 60.0108 604.24 59.7454 605.014 59.7454C605.796 59.7454 606.457 60.0108 606.997 60.5416C607.546 61.0724 607.82 61.7201 607.82 62.4848C607.82 63.2315 607.546 63.8792 606.997 64.428C606.457 64.9677 605.796 65.2376 605.014 65.2376ZM613.272 65.2376C612.498 65.2376 611.833 64.9677 611.275 64.428C610.717 63.8792 610.438 63.2315 610.438 62.4848C610.438 61.7201 610.717 61.0724 611.275 60.5416C611.833 60.0108 612.498 59.7454 613.272 59.7454C614.055 59.7454 614.716 60.0108 615.256 60.5416C615.804 61.0724 616.079 61.7201 616.079 62.4848C616.079 63.2315 615.804 63.8792 615.256 64.428C614.716 64.9677 614.055 65.2376 613.272 65.2376ZM640.315 73.9819L635.052 74.3058C634.962 73.856 634.769 73.4512 634.472 73.0913C634.175 72.7225 633.783 72.4301 633.298 72.2142C632.821 71.9893 632.25 71.8768 631.584 71.8768C630.693 71.8768 629.942 72.0658 629.33 72.4436C628.719 72.8124 628.413 73.3072 628.413 73.928C628.413 74.4228 628.611 74.8411 629.006 75.1829C629.402 75.5248 630.081 75.7992 631.044 76.0061L634.795 76.7618C636.811 77.1756 638.313 77.8413 639.303 78.7589C640.292 79.6765 640.787 80.882 640.787 82.3754C640.787 83.7338 640.387 84.9258 639.586 85.9514C638.794 86.977 637.706 87.7776 636.32 88.3534C634.944 88.9202 633.356 89.2035 631.557 89.2035C628.813 89.2035 626.627 88.6323 624.999 87.4898C623.379 86.3382 622.43 84.7729 622.151 82.7937L627.805 82.4969C627.976 83.3335 628.39 83.9722 629.047 84.4131C629.704 84.8449 630.545 85.0608 631.57 85.0608C632.578 85.0608 633.388 84.8674 633.999 84.4805C634.62 84.0847 634.935 83.5764 634.944 82.9557C634.935 82.4339 634.715 82.0066 634.283 81.6737C633.851 81.3318 633.185 81.071 632.286 80.891L628.696 80.1758C626.672 79.771 625.165 79.0693 624.175 78.0707C623.195 77.0721 622.705 75.7992 622.705 74.2518C622.705 72.9204 623.064 71.7734 623.784 70.8108C624.513 69.8482 625.534 69.106 626.847 68.5842C628.17 68.0624 629.717 67.8015 631.489 67.8015C634.107 67.8015 636.167 68.3548 637.67 69.4613C639.181 70.5679 640.063 72.0747 640.315 73.9819ZM662.567 89.2035C660.471 89.2035 658.658 88.7582 657.129 87.8676C655.608 86.968 654.434 85.7175 653.607 84.1162C652.779 82.5059 652.365 80.6391 652.365 78.516C652.365 76.3749 652.779 74.5037 653.607 72.9024C654.434 71.2921 655.608 70.0416 657.129 69.151C658.658 68.2514 660.471 67.8015 662.567 67.8015C664.663 67.8015 666.471 68.2514 667.992 69.151C669.521 70.0416 670.699 71.2921 671.527 72.9024C672.355 74.5037 672.769 76.3749 672.769 78.516C672.769 80.6391 672.355 82.5059 671.527 84.1162C670.699 85.7175 669.521 86.968 667.992 87.8676C666.471 88.7582 664.663 89.2035 662.567 89.2035ZM662.594 84.7504C663.547 84.7504 664.344 84.4805 664.982 83.9408C665.621 83.392 666.102 82.6453 666.426 81.7007C666.759 80.7561 666.925 79.681 666.925 78.4756C666.925 77.2701 666.759 76.195 666.426 75.2504C666.102 74.3058 665.621 73.5591 664.982 73.0104C664.344 72.4616 663.547 72.1872 662.594 72.1872C661.631 72.1872 660.822 72.4616 660.165 73.0104C659.517 73.5591 659.027 74.3058 658.694 75.2504C658.37 76.195 658.208 77.2701 658.208 78.4756C658.208 79.681 658.37 80.7561 658.694 81.7007C659.027 82.6453 659.517 83.392 660.165 83.9408C660.822 84.4805 661.631 84.7504 662.594 84.7504ZM682.255 61.1623V88.7987H676.506V61.1623H682.255ZM696.306 89.2035C694.174 89.2035 692.339 88.7717 690.8 87.9081C689.271 87.0354 688.092 85.803 687.265 84.2106C686.437 82.6093 686.023 80.7156 686.023 78.5295C686.023 76.3974 686.437 74.5262 687.265 72.9159C688.092 71.3056 689.257 70.0506 690.76 69.151C692.271 68.2514 694.043 67.8015 696.077 67.8015C697.444 67.8015 698.717 68.022 699.895 68.4628C701.083 68.8946 702.118 69.5468 702.999 70.4194C703.89 71.2921 704.582 72.3896 705.077 73.7121C705.572 75.0255 705.819 76.5639 705.819 78.3271V79.906H688.317V76.3434H700.408C700.408 75.5158 700.228 74.7826 699.868 74.1439C699.509 73.5051 699.009 73.0059 698.371 72.646C697.741 72.2772 697.008 72.0927 696.171 72.0927C695.298 72.0927 694.525 72.2952 693.85 72.7C693.184 73.0958 692.663 73.6311 692.285 74.3058C691.907 74.9715 691.713 75.7137 691.704 76.5324V79.9194C691.704 80.945 691.893 81.8311 692.271 82.5778C692.658 83.3245 693.202 83.9003 693.904 84.3051C694.606 84.7099 695.438 84.9123 696.4 84.9123C697.039 84.9123 697.624 84.8224 698.155 84.6425C698.685 84.4625 699.14 84.1926 699.518 83.8328C699.895 83.4729 700.183 83.0321 700.381 82.5104L705.698 82.8612C705.428 84.1387 704.875 85.2542 704.038 86.2078C703.211 87.1524 702.14 87.8901 700.827 88.4209C699.522 88.9426 698.015 89.2035 696.306 89.2035ZM709.571 88.7987V68.0714H715.05V71.7284H715.292C715.724 70.5139 716.444 69.5558 717.452 68.8541C718.459 68.1524 719.665 67.8015 721.068 67.8015C722.489 67.8015 723.699 68.1569 724.698 68.8676C725.697 69.5693 726.362 70.5229 726.695 71.7284H726.911C727.334 70.5409 728.099 69.5918 729.205 68.8811C730.321 68.1614 731.639 67.8015 733.159 67.8015C735.093 67.8015 736.663 68.4178 737.868 69.6503C739.083 70.8738 739.69 72.61 739.69 74.8591V88.7987H733.955V75.9926C733.955 74.8411 733.649 73.9774 733.038 73.4017C732.426 72.8259 731.661 72.5381 730.743 72.5381C729.7 72.5381 728.886 72.8709 728.301 73.5366C727.716 74.1934 727.424 75.0615 727.424 76.141V88.7987H721.851V75.8711C721.851 74.8546 721.558 74.0449 720.974 73.4422C720.398 72.8394 719.638 72.5381 718.693 72.5381C718.054 72.5381 717.479 72.7 716.966 73.0238C716.462 73.3387 716.062 73.784 715.765 74.3598C715.468 74.9265 715.319 75.5923 715.319 76.3569V88.7987H709.571ZM750.142 89.19C748.819 89.19 747.641 88.9606 746.606 88.5018C745.571 88.034 744.753 87.3458 744.15 86.4372C743.556 85.5196 743.259 84.3771 743.259 83.0096C743.259 81.8581 743.471 80.891 743.894 80.1084C744.317 79.3257 744.892 78.696 745.621 78.2192C746.35 77.7424 747.177 77.3825 748.104 77.1396C749.04 76.8967 750.02 76.7258 751.046 76.6268C752.251 76.5009 753.223 76.3839 753.96 76.276C754.698 76.159 755.233 75.9881 755.566 75.7632C755.899 75.5383 756.066 75.2054 756.066 74.7646V74.6836C756.066 73.829 755.796 73.1678 755.256 72.7C754.725 72.2322 753.969 71.9983 752.989 71.9983C751.954 71.9983 751.131 72.2277 750.519 72.6865C749.908 73.1363 749.503 73.7031 749.305 74.3868L743.988 73.955C744.258 72.6955 744.789 71.6069 745.58 70.6893C746.372 69.7627 747.393 69.052 748.644 68.5572C749.903 68.0534 751.361 67.8015 753.016 67.8015C754.167 67.8015 755.269 67.9365 756.322 68.2064C757.384 68.4763 758.324 68.8946 759.142 69.4613C759.97 70.0281 760.622 70.7568 761.099 71.6474C761.576 72.5291 761.814 73.5861 761.814 74.8186V88.7987H756.362V85.9244H756.201C755.868 86.5721 755.422 87.1434 754.865 87.6382C754.307 88.124 753.637 88.5063 752.854 88.7852C752.071 89.0551 751.167 89.19 750.142 89.19ZM751.788 85.2227C752.634 85.2227 753.38 85.0563 754.028 84.7234C754.676 84.3816 755.184 83.9228 755.553 83.347C755.922 82.7712 756.106 82.119 756.106 81.3903V79.1908C755.926 79.3077 755.679 79.4157 755.364 79.5146C755.058 79.6046 754.712 79.69 754.325 79.771C753.938 79.843 753.551 79.9104 753.164 79.9734C752.777 80.0274 752.427 80.0769 752.112 80.1219C751.437 80.2208 750.848 80.3783 750.344 80.5942C749.84 80.8101 749.449 81.1024 749.17 81.4713C748.891 81.8311 748.752 82.281 748.752 82.8207C748.752 83.6034 749.035 84.2016 749.602 84.6155C750.178 85.0203 750.906 85.2227 751.788 85.2227ZM783.52 73.9819L778.257 74.3058C778.167 73.856 777.974 73.4512 777.677 73.0913C777.38 72.7225 776.989 72.4301 776.503 72.2142C776.026 71.9893 775.455 71.8768 774.789 71.8768C773.898 71.8768 773.147 72.0658 772.535 72.4436C771.924 72.8124 771.618 73.3072 771.618 73.928C771.618 74.4228 771.816 74.8411 772.212 75.1829C772.607 75.5248 773.287 75.7992 774.249 76.0061L778.001 76.7618C780.016 77.1756 781.518 77.8413 782.508 78.7589C783.497 79.6765 783.992 80.882 783.992 82.3754C783.992 83.7338 783.592 84.9258 782.791 85.9514C781.999 86.977 780.911 87.7776 779.525 88.3534C778.149 88.9202 776.561 89.2035 774.762 89.2035C772.018 89.2035 769.832 88.6323 768.204 87.4898C766.584 86.3382 765.635 84.7729 765.356 82.7937L771.011 82.4969C771.181 83.3335 771.595 83.9722 772.252 84.4131C772.909 84.8449 773.75 85.0608 774.775 85.0608C775.783 85.0608 776.593 84.8674 777.204 84.4805C777.825 84.0847 778.14 83.5764 778.149 82.9557C778.14 82.4339 777.92 82.0066 777.488 81.6737C777.056 81.3318 776.39 81.071 775.491 80.891L771.901 80.1758C769.877 79.771 768.37 79.0693 767.381 78.0707C766.4 77.0721 765.91 75.7992 765.91 74.2518C765.91 72.9204 766.27 71.7734 766.989 70.8108C767.718 69.8482 768.739 69.106 770.052 68.5842C771.375 68.0624 772.922 67.8015 774.694 67.8015C777.312 67.8015 779.372 68.3548 780.875 69.4613C782.386 70.5679 783.268 72.0747 783.52 73.9819ZM804.858 73.9819L799.595 74.3058C799.505 73.856 799.311 73.4512 799.015 73.0913C798.718 72.7225 798.326 72.4301 797.841 72.2142C797.364 71.9893 796.793 71.8768 796.127 71.8768C795.236 71.8768 794.485 72.0658 793.873 72.4436C793.262 72.8124 792.956 73.3072 792.956 73.928C792.956 74.4228 793.154 74.8411 793.549 75.1829C793.945 75.5248 794.624 75.7992 795.587 76.0061L799.338 76.7618C801.354 77.1756 802.856 77.8413 803.846 78.7589C804.835 79.6765 805.33 80.882 805.33 82.3754C805.33 83.7338 804.93 84.9258 804.129 85.9514C803.337 86.977 802.249 87.7776 800.863 88.3534C799.487 88.9202 797.899 89.2035 796.1 89.2035C793.356 89.2035 791.17 88.6323 789.542 87.4898C787.922 86.3382 786.973 84.7729 786.694 82.7937L792.348 82.4969C792.519 83.3335 792.933 83.9722 793.59 84.4131C794.247 84.8449 795.088 85.0608 796.113 85.0608C797.121 85.0608 797.931 84.8674 798.542 84.4805C799.163 84.0847 799.478 83.5764 799.487 82.9557C799.478 82.4339 799.258 82.0066 798.826 81.6737C798.394 81.3318 797.728 81.071 796.829 80.891L793.239 80.1758C791.215 79.771 789.708 79.0693 788.718 78.0707C787.738 77.0721 787.248 75.7992 787.248 74.2518C787.248 72.9204 787.607 71.7734 788.327 70.8108C789.056 69.8482 790.077 69.106 791.39 68.5842C792.713 68.0624 794.26 67.8015 796.032 67.8015C798.65 67.8015 800.71 68.3548 802.213 69.4613C803.724 70.5679 804.606 72.0747 804.858 73.9819ZM814.86 89.19C813.538 89.19 812.359 88.9606 811.325 88.5018C810.29 88.034 809.472 87.3458 808.869 86.4372C808.275 85.5196 807.978 84.3771 807.978 83.0096C807.978 81.8581 808.19 80.891 808.612 80.1084C809.035 79.3257 809.611 78.696 810.34 78.2192C811.068 77.7424 811.896 77.3825 812.823 77.1396C813.758 76.8967 814.739 76.7258 815.764 76.6268C816.97 76.5009 817.942 76.3839 818.679 76.276C819.417 76.159 819.952 75.9881 820.285 75.7632C820.618 75.5383 820.784 75.2054 820.784 74.7646V74.6836C820.784 73.829 820.514 73.1678 819.975 72.7C819.444 72.2322 818.688 71.9983 817.708 71.9983C816.673 71.9983 815.85 72.2277 815.238 72.6865C814.626 73.1363 814.222 73.7031 814.024 74.3868L808.707 73.955C808.977 72.6955 809.508 71.6069 810.299 70.6893C811.091 69.7627 812.112 69.052 813.362 68.5572C814.622 68.0534 816.079 67.8015 817.735 67.8015C818.886 67.8015 819.988 67.9365 821.041 68.2064C822.102 68.4763 823.042 68.8946 823.861 69.4613C824.689 70.0281 825.341 70.7568 825.818 71.6474C826.294 72.5291 826.533 73.5861 826.533 74.8186V88.7987H821.081V85.9244H820.919C820.586 86.5721 820.141 87.1434 819.583 87.6382C819.026 88.124 818.355 88.5063 817.573 88.7852C816.79 89.0551 815.886 89.19 814.86 89.19ZM816.507 85.2227C817.352 85.2227 818.099 85.0563 818.747 84.7234C819.394 84.3816 819.903 83.9228 820.272 83.347C820.64 82.7712 820.825 82.119 820.825 81.3903V79.1908C820.645 79.3077 820.397 79.4157 820.083 79.5146C819.777 79.6046 819.43 79.69 819.044 79.771C818.657 79.843 818.27 79.9104 817.883 79.9734C817.496 80.0274 817.145 80.0769 816.83 80.1219C816.156 80.2208 815.567 80.3783 815.063 80.5942C814.559 80.8101 814.168 81.1024 813.889 81.4713C813.61 81.8311 813.47 82.281 813.47 82.8207C813.47 83.6034 813.754 84.2016 814.321 84.6155C814.896 85.0203 815.625 85.2227 816.507 85.2227ZM840.358 89.2035C838.262 89.2035 836.449 88.7582 834.92 87.8676C833.399 86.968 832.225 85.7175 831.398 84.1162C830.57 82.5059 830.156 80.6391 830.156 78.516C830.156 76.3749 830.57 74.5037 831.398 72.9024C832.225 71.2921 833.399 70.0416 834.92 69.151C836.449 68.2514 838.262 67.8015 840.358 67.8015C842.454 67.8015 844.262 68.2514 845.783 69.151C847.312 70.0416 848.49 71.2921 849.318 72.9024C850.146 74.5037 850.56 76.3749 850.56 78.516C850.56 80.6391 850.146 82.5059 849.318 84.1162C848.49 85.7175 847.312 86.968 845.783 87.8676C844.262 88.7582 842.454 89.2035 840.358 89.2035ZM840.385 84.7504C841.338 84.7504 842.135 84.4805 842.773 83.9408C843.412 83.392 843.893 82.6453 844.217 81.7007C844.55 80.7561 844.716 79.681 844.716 78.4756C844.716 77.2701 844.55 76.195 844.217 75.2504C843.893 74.3058 843.412 73.5591 842.773 73.0104C842.135 72.4616 841.338 72.1872 840.385 72.1872C839.422 72.1872 838.613 72.4616 837.956 73.0104C837.308 73.5591 836.818 74.3058 836.485 75.2504C836.161 76.195 835.999 77.2701 835.999 78.4756C835.999 79.681 836.161 80.7561 836.485 81.7007C836.818 82.6453 837.308 83.392 837.956 83.9408C838.613 84.4805 839.422 84.7504 840.385 84.7504ZM860.046 61.1623V88.7987H854.297V61.1623H860.046ZM874.097 89.2035C871.965 89.2035 870.13 88.7717 868.591 87.9081C867.062 87.0354 865.883 85.803 865.056 84.2106C864.228 82.6093 863.814 80.7156 863.814 78.5295C863.814 76.3974 864.228 74.5262 865.056 72.9159C865.883 71.3056 867.048 70.0506 868.551 69.151C870.062 68.2514 871.834 67.8015 873.868 67.8015C875.235 67.8015 876.508 68.022 877.686 68.4628C878.874 68.8946 879.909 69.5468 880.79 70.4194C881.681 71.2921 882.374 72.3896 882.868 73.7121C883.363 75.0255 883.61 76.5639 883.61 78.3271V79.906H866.108V76.3434H878.199C878.199 75.5158 878.019 74.7826 877.659 74.1439C877.3 73.5051 876.8 73.0059 876.162 72.646C875.532 72.2772 874.799 72.0927 873.962 72.0927C873.089 72.0927 872.316 72.2952 871.641 72.7C870.975 73.0958 870.454 73.6311 870.076 74.3058C869.698 74.9715 869.504 75.7137 869.495 76.5324V79.9194C869.495 80.945 869.684 81.8311 870.062 82.5778C870.449 83.3245 870.993 83.9003 871.695 84.3051C872.397 84.7099 873.229 84.9123 874.191 84.9123C874.83 84.9123 875.415 84.8224 875.946 84.6425C876.476 84.4625 876.931 84.1926 877.309 83.8328C877.686 83.4729 877.974 83.0321 878.172 82.5104L883.489 82.8612C883.219 84.1387 882.666 85.2542 881.829 86.2078C881.002 87.1524 879.931 87.8901 878.618 88.4209C877.313 88.9426 875.806 89.2035 874.097 89.2035ZM906.129 68.0714L898.883 88.7987H892.405L885.159 68.0714H891.231L895.536 82.9017H895.752L900.043 68.0714H906.129ZM909.071 88.7987V68.0714H914.819V88.7987H909.071ZM911.959 65.3996C911.104 65.3996 910.371 65.1162 909.759 64.5494C909.156 63.9737 908.855 63.2854 908.855 62.4848C908.855 61.6931 909.156 61.0139 909.759 60.4471C910.371 59.8714 911.104 59.5835 911.959 59.5835C912.813 59.5835 913.542 59.8714 914.145 60.4471C914.756 61.0139 915.062 61.6931 915.062 62.4848C915.062 63.2854 914.756 63.9737 914.145 64.5494C913.542 65.1162 912.813 65.3996 911.959 65.3996ZM928.87 89.2035C926.738 89.2035 924.903 88.7717 923.365 87.9081C921.835 87.0354 920.657 85.803 919.829 84.2106C919.002 82.6093 918.588 80.7156 918.588 78.5295C918.588 76.3974 919.002 74.5262 919.829 72.9159C920.657 71.3056 921.822 70.0506 923.324 69.151C924.836 68.2514 926.608 67.8015 928.641 67.8015C930.008 67.8015 931.281 68.022 932.46 68.4628C933.647 68.8946 934.682 69.5468 935.564 70.4194C936.454 71.2921 937.147 72.3896 937.642 73.7121C938.137 75.0255 938.384 76.5639 938.384 78.3271V79.906H920.882V76.3434H932.973C932.973 75.5158 932.793 74.7826 932.433 74.1439C932.073 73.5051 931.574 73.0059 930.935 72.646C930.305 72.2772 929.572 72.0927 928.735 72.0927C927.863 72.0927 927.089 72.2952 926.414 72.7C925.749 73.0958 925.227 73.6311 924.849 74.3058C924.471 74.9715 924.278 75.7137 924.269 76.5324V79.9194C924.269 80.945 924.458 81.8311 924.836 82.5778C925.222 83.3245 925.767 83.9003 926.468 84.3051C927.17 84.7099 928.002 84.9123 928.965 84.9123C929.604 84.9123 930.188 84.8224 930.719 84.6425C931.25 84.4625 931.704 84.1926 932.082 83.8328C932.46 83.4729 932.748 83.0321 932.946 82.5104L938.262 82.8612C937.993 84.1387 937.439 85.2542 936.603 86.2078C935.775 87.1524 934.704 87.8901 933.391 88.4209C932.087 88.9426 930.58 89.2035 928.87 89.2035ZM947.884 76.8158V88.7987H942.135V68.0714H947.614V71.7284H947.857C948.316 70.5229 949.085 69.5693 950.164 68.8676C951.244 68.1569 952.553 67.8015 954.091 67.8015C955.531 67.8015 956.786 68.1164 957.856 68.7461C958.927 69.3759 959.759 70.2755 960.353 71.445C960.946 72.6055 961.243 73.9909 961.243 75.6013V88.7987H955.495V76.6268C955.504 75.3584 955.18 74.3688 954.523 73.6581C953.866 72.9384 952.962 72.5785 951.811 72.5785C951.037 72.5785 950.353 72.745 949.76 73.0778C949.175 73.4107 948.716 73.8965 948.383 74.5352C948.059 75.1649 947.893 75.9251 947.884 76.8158ZM991.815 73.9819L986.552 74.3058C986.462 73.856 986.269 73.4512 985.972 73.0913C985.675 72.7225 985.283 72.4301 984.798 72.2142C984.321 71.9893 983.75 71.8768 983.084 71.8768C982.193 71.8768 981.442 72.0658 980.83 72.4436C980.219 72.8124 979.913 73.3072 979.913 73.928C979.913 74.4228 980.111 74.8411 980.506 75.1829C980.902 75.5248 981.581 75.7992 982.544 76.0061L986.295 76.7618C988.311 77.1756 989.813 77.8413 990.803 78.7589C991.792 79.6765 992.287 80.882 992.287 82.3754C992.287 83.7338 991.887 84.9258 991.086 85.9514C990.294 86.977 989.206 87.7776 987.82 88.3534C986.444 88.9202 984.856 89.2035 983.057 89.2035C980.313 89.2035 978.127 88.6323 976.499 87.4898C974.879 86.3382 973.93 84.7729 973.651 82.7937L979.305 82.4969C979.476 83.3335 979.89 83.9722 980.547 84.4131C981.204 84.8449 982.045 85.0608 983.07 85.0608C984.078 85.0608 984.888 84.8674 985.499 84.4805C986.12 84.0847 986.435 83.5764 986.444 82.9557C986.435 82.4339 986.215 82.0066 985.783 81.6737C985.351 81.3318 984.685 81.071 983.786 80.891L980.196 80.1758C978.172 79.771 976.665 79.0693 975.675 78.0707C974.695 77.0721 974.205 75.7992 974.205 74.2518C974.205 72.9204 974.564 71.7734 975.284 70.8108C976.013 69.8482 977.034 69.106 978.347 68.5842C979.67 68.0624 981.217 67.8015 982.989 67.8015C985.607 67.8015 987.667 68.3548 989.17 69.4613C990.681 70.5679 991.563 72.0747 991.815 73.9819ZM995.907 88.7987V68.0714H1001.66V88.7987H995.907ZM998.795 65.3996C997.94 65.3996 997.207 65.1162 996.595 64.5494C995.992 63.9737 995.691 63.2854 995.691 62.4848C995.691 61.6931 995.992 61.0139 996.595 60.4471C997.207 59.8714 997.94 59.5835 998.795 59.5835C999.649 59.5835 1000.38 59.8714 1000.98 60.4471C1001.59 61.0139 1001.9 61.6931 1001.9 62.4848C1001.9 63.2854 1001.59 63.9737 1000.98 64.5494C1000.38 65.1162 999.649 65.3996 998.795 65.3996ZM1023.51 73.9819L1018.24 74.3058C1018.15 73.856 1017.96 73.4512 1017.66 73.0913C1017.37 72.7225 1016.97 72.4301 1016.49 72.2142C1016.01 71.9893 1015.44 71.8768 1014.78 71.8768C1013.88 71.8768 1013.13 72.0658 1012.52 72.4436C1011.91 72.8124 1011.6 73.3072 1011.6 73.928C1011.6 74.4228 1011.8 74.8411 1012.2 75.1829C1012.59 75.5248 1013.27 75.7992 1014.24 76.0061L1017.99 76.7618C1020 77.1756 1021.5 77.8413 1022.49 78.7589C1023.48 79.6765 1023.98 80.882 1023.98 82.3754C1023.98 83.7338 1023.58 84.9258 1022.78 85.9514C1021.99 86.977 1020.9 87.7776 1019.51 88.3534C1018.14 88.9202 1016.55 89.2035 1014.75 89.2035C1012 89.2035 1009.82 88.6323 1008.19 87.4898C1006.57 86.3382 1005.62 84.7729 1005.34 82.7937L1011 82.4969C1011.17 83.3335 1011.58 83.9722 1012.24 84.4131C1012.9 84.8449 1013.74 85.0608 1014.76 85.0608C1015.77 85.0608 1016.58 84.8674 1017.19 84.4805C1017.81 84.0847 1018.13 83.5764 1018.14 82.9557C1018.13 82.4339 1017.91 82.0066 1017.47 81.6737C1017.04 81.3318 1016.38 81.071 1015.48 80.891L1011.89 80.1758C1009.86 79.771 1008.36 79.0693 1007.37 78.0707C1006.39 77.0721 1005.9 75.7992 1005.9 74.2518C1005.9 72.9204 1006.26 71.7734 1006.98 70.8108C1007.7 69.8482 1008.73 69.106 1010.04 68.5842C1011.36 68.0624 1012.91 67.8015 1014.68 67.8015C1017.3 67.8015 1019.36 68.3548 1020.86 69.4613C1022.37 70.5679 1023.25 72.0747 1023.51 73.9819ZM1033.51 89.19C1032.19 89.19 1031.01 88.9606 1029.97 88.5018C1028.94 88.034 1028.12 87.3458 1027.52 86.4372C1026.92 85.5196 1026.63 84.3771 1026.63 83.0096C1026.63 81.8581 1026.84 80.891 1027.26 80.1084C1027.68 79.3257 1028.26 78.696 1028.99 78.2192C1029.72 77.7424 1030.54 77.3825 1031.47 77.1396C1032.41 76.8967 1033.39 76.7258 1034.41 76.6268C1035.62 76.5009 1036.59 76.3839 1037.33 76.276C1038.07 76.159 1038.6 75.9881 1038.93 75.7632C1039.27 75.5383 1039.43 75.2054 1039.43 74.7646V74.6836C1039.43 73.829 1039.16 73.1678 1038.62 72.7C1038.09 72.2322 1037.34 71.9983 1036.36 71.9983C1035.32 71.9983 1034.5 72.2277 1033.89 72.6865C1033.27 73.1363 1032.87 73.7031 1032.67 74.3868L1027.36 73.955C1027.63 72.6955 1028.16 71.6069 1028.95 70.6893C1029.74 69.7627 1030.76 69.052 1032.01 68.5572C1033.27 68.0534 1034.73 67.8015 1036.38 67.8015C1037.53 67.8015 1038.64 67.9365 1039.69 68.2064C1040.75 68.4763 1041.69 68.8946 1042.51 69.4613C1043.34 70.0281 1043.99 70.7568 1044.47 71.6474C1044.94 72.5291 1045.18 73.5861 1045.18 74.8186V88.7987H1039.73V85.9244H1039.57C1039.23 86.5721 1038.79 87.1434 1038.23 87.6382C1037.67 88.124 1037 88.5063 1036.22 88.7852C1035.44 89.0551 1034.53 89.19 1033.51 89.19ZM1035.16 85.2227C1036 85.2227 1036.75 85.0563 1037.4 84.7234C1038.04 84.3816 1038.55 83.9228 1038.92 83.347C1039.29 82.7712 1039.47 82.119 1039.47 81.3903V79.1908C1039.29 79.3077 1039.05 79.4157 1038.73 79.5146C1038.43 79.6046 1038.08 79.69 1037.69 79.771C1037.31 79.843 1036.92 79.9104 1036.53 79.9734C1036.14 80.0274 1035.79 80.0769 1035.48 80.1219C1034.8 80.2208 1034.21 80.3783 1033.71 80.5942C1033.21 80.8101 1032.82 81.1024 1032.54 81.4713C1032.26 81.8311 1032.12 82.281 1032.12 82.8207C1032.12 83.6034 1032.4 84.2016 1032.97 84.6155C1033.54 85.0203 1034.27 85.2227 1035.16 85.2227ZM1032.48 65.2376C1031.71 65.2376 1031.04 64.9677 1030.49 64.428C1029.93 63.8792 1029.65 63.2315 1029.65 62.4848C1029.65 61.7201 1029.93 61.0724 1030.49 60.5416C1031.04 60.0108 1031.71 59.7454 1032.48 59.7454C1033.27 59.7454 1033.93 60.0108 1034.47 60.5416C1035.02 61.0724 1035.29 61.7201 1035.29 62.4848C1035.29 63.2315 1035.02 63.8792 1034.47 64.428C1033.93 64.9677 1033.27 65.2376 1032.48 65.2376ZM1040.74 65.2376C1039.97 65.2376 1039.3 64.9677 1038.74 64.428C1038.19 63.8792 1037.91 63.2315 1037.91 62.4848C1037.91 61.7201 1038.19 61.0724 1038.74 60.5416C1039.3 60.0108 1039.97 59.7454 1040.74 59.7454C1041.52 59.7454 1042.19 60.0108 1042.73 60.5416C1043.27 61.0724 1043.55 61.7201 1043.55 62.4848C1043.55 63.2315 1043.27 63.8792 1042.73 64.428C1042.19 64.9677 1041.52 65.2376 1040.74 65.2376ZM1055.39 61.1623V88.7987H1049.64V61.1623H1055.39ZM1071.02 68.0714V72.3896H1058.54V68.0714H1071.02ZM1061.37 63.1055H1067.12V82.4294C1067.12 82.9602 1067.2 83.374 1067.36 83.6709C1067.52 83.9587 1067.75 84.1612 1068.04 84.2781C1068.33 84.3951 1068.68 84.4535 1069.06 84.4535C1069.33 84.4535 1069.6 84.431 1069.87 84.3861C1070.14 84.3321 1070.35 84.2916 1070.49 84.2646L1071.4 88.5423C1071.11 88.6323 1070.7 88.7357 1070.18 88.8527C1069.66 88.9786 1069.03 89.0551 1068.28 89.0821C1066.89 89.1361 1065.68 88.9516 1064.64 88.5288C1063.6 88.106 1062.8 87.4493 1062.22 86.5586C1061.65 85.668 1061.36 84.5435 1061.37 83.1851V63.1055ZM1083.91 89.2035C1081.81 89.2035 1080 88.7582 1078.47 87.8676C1076.95 86.968 1075.77 85.7175 1074.95 84.1162C1074.12 82.5059 1073.7 80.6391 1073.7 78.516C1073.7 76.3749 1074.12 74.5037 1074.95 72.9024C1075.77 71.2921 1076.95 70.0416 1078.47 69.151C1080 68.2514 1081.81 67.8015 1083.91 67.8015C1086 67.8015 1087.81 68.2514 1089.33 69.151C1090.86 70.0416 1092.04 71.2921 1092.87 72.9024C1093.69 74.5037 1094.11 76.3749 1094.11 78.516C1094.11 80.6391 1093.69 82.5059 1092.87 84.1162C1092.04 85.7175 1090.86 86.968 1089.33 87.8676C1087.81 88.7582 1086 89.2035 1083.91 89.2035ZM1083.93 84.7504C1084.89 84.7504 1085.68 84.4805 1086.32 83.9408C1086.96 83.392 1087.44 82.6453 1087.77 81.7007C1088.1 80.7561 1088.27 79.681 1088.27 78.4756C1088.27 77.2701 1088.1 76.195 1087.77 75.2504C1087.44 74.3058 1086.96 73.5591 1086.32 73.0104C1085.68 72.4616 1084.89 72.1872 1083.93 72.1872C1082.97 72.1872 1082.16 72.4616 1081.5 73.0104C1080.86 73.5591 1080.37 74.3058 1080.03 75.2504C1079.71 76.195 1079.55 77.2701 1079.55 78.4756C1079.55 79.681 1079.71 80.7561 1080.03 81.7007C1080.37 82.6453 1080.86 83.392 1081.5 83.9408C1082.16 84.4805 1082.97 84.7504 1083.93 84.7504ZM1079.79 65.2376C1079.02 65.2376 1078.35 64.9677 1077.79 64.428C1077.24 63.8792 1076.96 63.2315 1076.96 62.4848C1076.96 61.7201 1077.24 61.0724 1077.79 60.5416C1078.35 60.0108 1079.02 59.7454 1079.79 59.7454C1080.57 59.7454 1081.23 60.0108 1081.77 60.5416C1082.32 61.0724 1082.6 61.7201 1082.6 62.4848C1082.6 63.2315 1082.32 63.8792 1081.77 64.428C1081.23 64.9677 1080.57 65.2376 1079.79 65.2376ZM1088.05 65.2376C1087.28 65.2376 1086.61 64.9677 1086.05 64.428C1085.49 63.8792 1085.22 63.2315 1085.22 62.4848C1085.22 61.7201 1085.49 61.0724 1086.05 60.5416C1086.61 60.0108 1087.28 59.7454 1088.05 59.7454C1088.83 59.7454 1089.49 60.0108 1090.03 60.5416C1090.58 61.0724 1090.86 61.7201 1090.86 62.4848C1090.86 63.2315 1090.58 63.8792 1090.03 64.428C1089.49 64.9677 1088.83 65.2376 1088.05 65.2376ZM1097.85 68.0714H1103.59V89.8243C1103.59 91.4256 1103.28 92.7211 1102.65 93.7106C1102.02 94.7002 1101.12 95.4244 1099.94 95.8832C1098.77 96.342 1097.37 96.5714 1095.74 96.5714C1095.54 96.5714 1095.35 96.5669 1095.17 96.5579C1094.99 96.5579 1094.79 96.5534 1094.58 96.5444V92.0508C1094.73 92.0598 1094.87 92.0643 1094.99 92.0643C1095.09 92.0733 1095.21 92.0778 1095.34 92.0778C1096.26 92.0778 1096.91 91.8799 1097.28 91.4841C1097.66 91.0972 1097.85 90.5125 1097.85 89.7298V68.0714ZM1100.71 65.3996C1099.86 65.3996 1099.13 65.1162 1098.52 64.5494C1097.91 63.9737 1097.6 63.2854 1097.6 62.4848C1097.6 61.6931 1097.91 61.0139 1098.52 60.4471C1099.13 59.8714 1099.86 59.5835 1100.71 59.5835C1101.57 59.5835 1102.3 59.8714 1102.91 60.4471C1103.52 61.0139 1103.82 61.6931 1103.82 62.4848C1103.82 63.2854 1103.52 63.9737 1102.91 64.5494C1102.3 65.1162 1101.57 65.3996 1100.71 65.3996ZM1117.65 89.2035C1115.51 89.2035 1113.68 88.7717 1112.14 87.9081C1110.61 87.0354 1109.43 85.803 1108.6 84.2106C1107.78 82.6093 1107.36 80.7156 1107.36 78.5295C1107.36 76.3974 1107.78 74.5262 1108.6 72.9159C1109.43 71.3056 1110.6 70.0506 1112.1 69.151C1113.61 68.2514 1115.38 67.8015 1117.42 67.8015C1118.78 67.8015 1120.06 68.022 1121.24 68.4628C1122.42 68.8946 1123.46 69.5468 1124.34 70.4194C1125.23 71.2921 1125.92 72.3896 1126.42 73.7121C1126.91 75.0255 1127.16 76.5639 1127.16 78.3271V79.906H1109.66V76.3434H1121.75C1121.75 75.5158 1121.57 74.7826 1121.21 74.1439C1120.85 73.5051 1120.35 73.0059 1119.71 72.646C1119.08 72.2772 1118.35 72.0927 1117.51 72.0927C1116.64 72.0927 1115.86 72.2952 1115.19 72.7C1114.52 73.0958 1114 73.6311 1113.62 74.3058C1113.25 74.9715 1113.05 75.7137 1113.04 76.5324V79.9194C1113.04 80.945 1113.23 81.8311 1113.61 82.5778C1114 83.3245 1114.54 83.9003 1115.24 84.3051C1115.95 84.7099 1116.78 84.9123 1117.74 84.9123C1118.38 84.9123 1118.96 84.8224 1119.49 84.6425C1120.03 84.4625 1120.48 84.1926 1120.86 83.8328C1121.24 83.4729 1121.52 83.0321 1121.72 82.5104L1127.04 82.8612C1126.77 84.1387 1126.21 85.2542 1125.38 86.2078C1124.55 87.1524 1123.48 87.8901 1122.17 88.4209C1120.86 88.9426 1119.36 89.2035 1117.65 89.2035ZM1136.66 76.8158V88.7987H1130.91V68.0714H1136.39V71.7284H1136.63C1137.09 70.5229 1137.86 69.5693 1138.94 68.8676C1140.02 68.1569 1141.33 67.8015 1142.87 67.8015C1144.31 67.8015 1145.56 68.1164 1146.63 68.7461C1147.7 69.3759 1148.53 70.2755 1149.13 71.445C1149.72 72.6055 1150.02 73.9909 1150.02 75.6013V88.7987H1144.27V76.6268C1144.28 75.3584 1143.96 74.3688 1143.3 73.6581C1142.64 72.9384 1141.74 72.5785 1140.59 72.5785C1139.81 72.5785 1139.13 72.745 1138.54 73.0778C1137.95 73.4107 1137.49 73.8965 1137.16 74.5352C1136.83 75.1649 1136.67 75.9251 1136.66 76.8158ZM287.433 134.799V114.071H292.912V117.728H293.155C293.587 116.514 294.306 115.556 295.314 114.854C296.321 114.152 297.527 113.802 298.93 113.802C300.352 113.802 301.562 114.157 302.56 114.868C303.559 115.569 304.225 116.523 304.557 117.728H304.773C305.196 116.541 305.961 115.592 307.067 114.881C308.183 114.161 309.501 113.802 311.021 113.802C312.955 113.802 314.525 114.418 315.731 115.65C316.945 116.874 317.553 118.61 317.553 120.859V134.799H311.817V121.993C311.817 120.841 311.512 119.977 310.9 119.402C310.288 118.826 309.523 118.538 308.606 118.538C307.562 118.538 306.748 118.871 306.163 119.537C305.579 120.193 305.286 121.061 305.286 122.141V134.799H299.713V121.871C299.713 120.855 299.421 120.045 298.836 119.442C298.26 118.839 297.5 118.538 296.555 118.538C295.917 118.538 295.341 118.7 294.828 119.024C294.324 119.339 293.924 119.784 293.627 120.36C293.33 120.927 293.182 121.592 293.182 122.357V134.799H287.433ZM335.385 125.973V114.071H341.134V134.799H335.615V131.034H335.399C334.931 132.248 334.153 133.224 333.064 133.962C331.985 134.7 330.667 135.069 329.11 135.069C327.725 135.069 326.506 134.754 325.453 134.124C324.401 133.494 323.578 132.599 322.984 131.439C322.399 130.278 322.102 128.888 322.093 127.269V114.071H327.842V126.243C327.851 127.467 328.179 128.434 328.827 129.145C329.475 129.855 330.343 130.211 331.431 130.211C332.124 130.211 332.772 130.053 333.375 129.738C333.977 129.414 334.463 128.938 334.832 128.308C335.21 127.678 335.394 126.9 335.385 125.973ZM355.097 135.204C353.001 135.204 351.188 134.758 349.659 133.868C348.139 132.968 346.965 131.718 346.137 130.116C345.309 128.506 344.895 126.639 344.895 124.516C344.895 122.375 345.309 120.504 346.137 118.902C346.965 117.292 348.139 116.042 349.659 115.151C351.188 114.251 353.001 113.802 355.097 113.802C357.193 113.802 359.001 114.251 360.522 115.151C362.051 116.042 363.23 117.292 364.057 118.902C364.885 120.504 365.299 122.375 365.299 124.516C365.299 126.639 364.885 128.506 364.057 130.116C363.23 131.718 362.051 132.968 360.522 133.868C359.001 134.758 357.193 135.204 355.097 135.204ZM355.124 130.75C356.078 130.75 356.874 130.481 357.513 129.941C358.151 129.392 358.633 128.645 358.956 127.701C359.289 126.756 359.456 125.681 359.456 124.476C359.456 123.27 359.289 122.195 358.956 121.25C358.633 120.306 358.151 119.559 357.513 119.01C356.874 118.462 356.078 118.187 355.124 118.187C354.161 118.187 353.352 118.462 352.695 119.01C352.047 119.559 351.557 120.306 351.224 121.25C350.9 122.195 350.738 123.27 350.738 124.476C350.738 125.681 350.9 126.756 351.224 127.701C351.557 128.645 352.047 129.392 352.695 129.941C353.352 130.481 354.161 130.75 355.124 130.75ZM374.246 128.834L374.259 121.939H375.096L381.735 114.071H388.334L379.414 124.489H378.051L374.246 128.834ZM369.037 134.799V107.162H374.785V134.799H369.037ZM381.991 134.799L375.892 125.771L379.724 121.709L388.725 134.799H381.991ZM396.363 128.834L396.376 121.939H397.213L403.852 114.071H410.451L401.531 124.489H400.168L396.363 128.834ZM391.154 134.799V107.162H396.902V134.799H391.154ZM404.108 134.799L398.009 125.771L401.841 121.709L410.842 134.799H404.108ZM419.182 135.19C417.859 135.19 416.681 134.961 415.646 134.502C414.612 134.034 413.793 133.346 413.19 132.437C412.596 131.52 412.299 130.377 412.299 129.01C412.299 127.858 412.511 126.891 412.934 126.108C413.357 125.326 413.932 124.696 414.661 124.219C415.39 123.742 416.217 123.383 417.144 123.14C418.08 122.897 419.06 122.726 420.086 122.627C421.291 122.501 422.263 122.384 423 122.276C423.738 122.159 424.273 121.988 424.606 121.763C424.939 121.538 425.106 121.205 425.106 120.765V120.684C425.106 119.829 424.836 119.168 424.296 118.7C423.765 118.232 423.009 117.998 422.029 117.998C420.994 117.998 420.171 118.228 419.559 118.686C418.948 119.136 418.543 119.703 418.345 120.387L413.028 119.955C413.298 118.695 413.829 117.607 414.621 116.689C415.412 115.763 416.433 115.052 417.684 114.557C418.943 114.053 420.401 113.802 422.056 113.802C423.207 113.802 424.309 113.936 425.362 114.206C426.424 114.476 427.364 114.895 428.182 115.461C429.01 116.028 429.662 116.757 430.139 117.647C430.616 118.529 430.854 119.586 430.854 120.819V134.799H425.402V131.924H425.241C424.908 132.572 424.462 133.143 423.905 133.638C423.347 134.124 422.677 134.506 421.894 134.785C421.111 135.055 420.207 135.19 419.182 135.19ZM420.828 131.223C421.674 131.223 422.42 131.056 423.068 130.723C423.716 130.382 424.224 129.923 424.593 129.347C424.962 128.771 425.146 128.119 425.146 127.39V125.191C424.966 125.308 424.719 125.416 424.404 125.515C424.098 125.605 423.752 125.69 423.365 125.771C422.978 125.843 422.591 125.91 422.204 125.973C421.817 126.027 421.467 126.077 421.152 126.122C420.477 126.221 419.888 126.378 419.384 126.594C418.88 126.81 418.489 127.102 418.21 127.471C417.931 127.831 417.792 128.281 417.792 128.821C417.792 129.603 418.075 130.202 418.642 130.615C419.218 131.02 419.946 131.223 420.828 131.223ZM441.225 135.19C439.902 135.19 438.724 134.961 437.689 134.502C436.654 134.034 435.836 133.346 435.233 132.437C434.639 131.52 434.342 130.377 434.342 129.01C434.342 127.858 434.554 126.891 434.977 126.108C435.4 125.326 435.975 124.696 436.704 124.219C437.433 123.742 438.26 123.383 439.187 123.14C440.123 122.897 441.103 122.726 442.129 122.627C443.334 122.501 444.306 122.384 445.043 122.276C445.781 122.159 446.316 121.988 446.649 121.763C446.982 121.538 447.149 121.205 447.149 120.765V120.684C447.149 119.829 446.879 119.168 446.339 118.7C445.808 118.232 445.052 117.998 444.072 117.998C443.037 117.998 442.214 118.228 441.602 118.686C440.991 119.136 440.586 119.703 440.388 120.387L435.071 119.955C435.341 118.695 435.872 117.607 436.663 116.689C437.455 115.763 438.476 115.052 439.727 114.557C440.986 114.053 442.444 113.802 444.099 113.802C445.25 113.802 446.352 113.936 447.405 114.206C448.467 114.476 449.407 114.895 450.225 115.461C451.053 116.028 451.705 116.757 452.182 117.647C452.659 118.529 452.897 119.586 452.897 120.819V134.799H447.445V131.924H447.284C446.951 132.572 446.505 133.143 445.948 133.638C445.39 134.124 444.72 134.506 443.937 134.785C443.154 135.055 442.25 135.19 441.225 135.19ZM442.871 131.223C443.717 131.223 444.463 131.056 445.111 130.723C445.759 130.382 446.267 129.923 446.636 129.347C447.005 128.771 447.189 128.119 447.189 127.39V125.191C447.009 125.308 446.762 125.416 446.447 125.515C446.141 125.605 445.795 125.69 445.408 125.771C445.021 125.843 444.634 125.91 444.247 125.973C443.86 126.027 443.51 126.077 443.195 126.122C442.52 126.221 441.931 126.378 441.427 126.594C440.923 126.81 440.532 127.102 440.253 127.471C439.974 127.831 439.835 128.281 439.835 128.821C439.835 129.603 440.118 130.202 440.685 130.615C441.261 131.02 441.989 131.223 442.871 131.223ZM457.357 134.799V114.071H462.836V117.728H463.079C463.51 116.514 464.23 115.556 465.238 114.854C466.245 114.152 467.451 113.802 468.854 113.802C470.276 113.802 471.486 114.157 472.484 114.868C473.483 115.569 474.148 116.523 474.481 117.728H474.697C475.12 116.541 475.885 115.592 476.991 114.881C478.107 114.161 479.425 113.802 480.945 113.802C482.879 113.802 484.449 114.418 485.655 115.65C486.869 116.874 487.476 118.61 487.476 120.859V134.799H481.741V121.993C481.741 120.841 481.435 119.977 480.824 119.402C480.212 118.826 479.447 118.538 478.53 118.538C477.486 118.538 476.672 118.871 476.087 119.537C475.502 120.193 475.21 121.061 475.21 122.141V134.799H469.637V121.871C469.637 120.855 469.344 120.045 468.76 119.442C468.184 118.839 467.424 118.538 466.479 118.538C465.84 118.538 465.265 118.7 464.752 119.024C464.248 119.339 463.848 119.784 463.551 120.36C463.254 120.927 463.106 121.592 463.106 122.357V134.799H457.357ZM492.017 134.799V114.071H497.766V134.799H492.017ZM494.905 111.4C494.05 111.4 493.317 111.116 492.705 110.549C492.103 109.974 491.801 109.285 491.801 108.485C491.801 107.693 492.103 107.014 492.705 106.447C493.317 105.871 494.05 105.584 494.905 105.584C495.76 105.584 496.488 105.871 497.091 106.447C497.703 107.014 498.009 107.693 498.009 108.485C498.009 109.285 497.703 109.974 497.091 110.549C496.488 111.116 495.76 111.4 494.905 111.4ZM508.119 122.816V134.799H502.371V114.071H507.849V117.728H508.092C508.551 116.523 509.32 115.569 510.4 114.868C511.479 114.157 512.788 113.802 514.327 113.802C515.766 113.802 517.021 114.116 518.092 114.746C519.162 115.376 519.994 116.276 520.588 117.445C521.182 118.606 521.479 119.991 521.479 121.601V134.799H515.73V122.627C515.739 121.358 515.415 120.369 514.758 119.658C514.102 118.938 513.198 118.579 512.046 118.579C511.272 118.579 510.589 118.745 509.995 119.078C509.41 119.411 508.951 119.896 508.619 120.535C508.295 121.165 508.128 121.925 508.119 122.816ZM535.455 135.204C533.323 135.204 531.488 134.772 529.95 133.908C528.42 133.035 527.242 131.803 526.414 130.211C525.587 128.609 525.173 126.716 525.173 124.53C525.173 122.397 525.587 120.526 526.414 118.916C527.242 117.306 528.407 116.051 529.909 115.151C531.421 114.251 533.193 113.802 535.226 113.802C536.593 113.802 537.866 114.022 539.045 114.463C540.232 114.895 541.267 115.547 542.149 116.419C543.039 117.292 543.732 118.39 544.227 119.712C544.721 121.026 544.969 122.564 544.969 124.327V125.906H527.467V122.343H539.558C539.558 121.516 539.378 120.783 539.018 120.144C538.658 119.505 538.159 119.006 537.52 118.646C536.89 118.277 536.157 118.093 535.32 118.093C534.448 118.093 533.674 118.295 532.999 118.7C532.334 119.096 531.812 119.631 531.434 120.306C531.056 120.972 530.863 121.714 530.854 122.532V125.919C530.854 126.945 531.043 127.831 531.421 128.578C531.807 129.325 532.352 129.9 533.053 130.305C533.755 130.71 534.587 130.912 535.55 130.912C536.189 130.912 536.773 130.822 537.304 130.642C537.835 130.463 538.289 130.193 538.667 129.833C539.045 129.473 539.333 129.032 539.531 128.51L544.847 128.861C544.578 130.139 544.024 131.254 543.188 132.208C542.36 133.152 541.289 133.89 539.976 134.421C538.672 134.943 537.165 135.204 535.455 135.204ZM554.469 122.816V134.799H548.72V114.071H554.199V117.728H554.442C554.901 116.523 555.67 115.569 556.749 114.868C557.829 114.157 559.138 113.802 560.676 113.802C562.116 113.802 563.371 114.116 564.441 114.746C565.512 115.376 566.344 116.276 566.938 117.445C567.531 118.606 567.828 119.991 567.828 121.601V134.799H562.08V122.627C562.089 121.358 561.765 120.369 561.108 119.658C560.451 118.938 559.547 118.579 558.396 118.579C557.622 118.579 556.938 118.745 556.345 119.078C555.76 119.411 555.301 119.896 554.968 120.535C554.644 121.165 554.478 121.925 554.469 122.816ZM598.4 119.982L593.137 120.306C593.047 119.856 592.853 119.451 592.557 119.091C592.26 118.722 591.868 118.43 591.383 118.214C590.906 117.989 590.335 117.877 589.669 117.877C588.778 117.877 588.027 118.066 587.415 118.444C586.804 118.812 586.498 119.307 586.498 119.928C586.498 120.423 586.696 120.841 587.091 121.183C587.487 121.525 588.166 121.799 589.129 122.006L592.88 122.762C594.896 123.176 596.398 123.841 597.388 124.759C598.377 125.677 598.872 126.882 598.872 128.375C598.872 129.734 598.472 130.926 597.671 131.951C596.879 132.977 595.791 133.778 594.405 134.353C593.029 134.92 591.441 135.204 589.642 135.204C586.898 135.204 584.712 134.632 583.084 133.49C581.464 132.338 580.515 130.773 580.236 128.794L585.89 128.497C586.061 129.334 586.475 129.972 587.132 130.413C587.789 130.845 588.63 131.061 589.655 131.061C590.663 131.061 591.473 130.867 592.084 130.481C592.705 130.085 593.02 129.576 593.029 128.956C593.02 128.434 592.799 128.007 592.368 127.674C591.936 127.332 591.27 127.071 590.371 126.891L586.781 126.176C584.757 125.771 583.25 125.069 582.26 124.071C581.28 123.072 580.79 121.799 580.79 120.252C580.79 118.92 581.149 117.773 581.869 116.811C582.598 115.848 583.619 115.106 584.932 114.584C586.255 114.062 587.802 113.802 589.574 113.802C592.192 113.802 594.252 114.355 595.755 115.461C597.266 116.568 598.148 118.075 598.4 119.982ZM611.938 135.204C609.806 135.204 607.97 134.772 606.432 133.908C604.903 133.035 603.724 131.803 602.897 130.211C602.069 128.609 601.655 126.716 601.655 124.53C601.655 122.397 602.069 120.526 602.897 118.916C603.724 117.306 604.889 116.051 606.392 115.151C607.903 114.251 609.675 113.802 611.708 113.802C613.076 113.802 614.349 114.022 615.527 114.463C616.715 114.895 617.749 115.547 618.631 116.419C619.522 117.292 620.214 118.39 620.709 119.712C621.204 121.026 621.451 122.564 621.451 124.327V125.906H603.949V122.343H616.04C616.04 121.516 615.86 120.783 615.5 120.144C615.14 119.505 614.641 119.006 614.002 118.646C613.373 118.277 612.64 118.093 611.803 118.093C610.93 118.093 610.157 118.295 609.482 118.7C608.816 119.096 608.294 119.631 607.917 120.306C607.539 120.972 607.345 121.714 607.336 122.532V125.919C607.336 126.945 607.525 127.831 607.903 128.578C608.29 129.325 608.834 129.9 609.536 130.305C610.238 130.71 611.07 130.912 612.032 130.912C612.671 130.912 613.256 130.822 613.787 130.642C614.317 130.463 614.772 130.193 615.149 129.833C615.527 129.473 615.815 129.032 616.013 128.51L621.33 128.861C621.06 130.139 620.507 131.254 619.67 132.208C618.842 133.152 617.772 133.89 616.458 134.421C615.154 134.943 613.647 135.204 611.938 135.204ZM630.412 128.834L630.425 121.939H631.262L637.901 114.071H644.5L635.58 124.489H634.217L630.412 128.834ZM625.203 134.799V107.162H630.951V134.799H625.203ZM638.157 134.799L632.058 125.771L635.89 121.709L644.891 134.799H638.157ZM653.23 135.19C651.908 135.19 650.729 134.961 649.695 134.502C648.66 134.034 647.842 133.346 647.239 132.437C646.645 131.52 646.348 130.377 646.348 129.01C646.348 127.858 646.56 126.891 646.983 126.108C647.405 125.326 647.981 124.696 648.71 124.219C649.439 123.742 650.266 123.383 651.193 123.14C652.128 122.897 653.109 122.726 654.135 122.627C655.34 122.501 656.312 122.384 657.049 122.276C657.787 122.159 658.322 121.988 658.655 121.763C658.988 121.538 659.154 121.205 659.154 120.765V120.684C659.154 119.829 658.885 119.168 658.345 118.7C657.814 118.232 657.058 117.998 656.078 117.998C655.043 117.998 654.22 118.228 653.608 118.686C652.997 119.136 652.592 119.703 652.394 120.387L647.077 119.955C647.347 118.695 647.878 117.607 648.669 116.689C649.461 115.763 650.482 115.052 651.733 114.557C652.992 114.053 654.449 113.802 656.105 113.802C657.256 113.802 658.358 113.936 659.411 114.206C660.472 114.476 661.412 114.895 662.231 115.461C663.059 116.028 663.711 116.757 664.188 117.647C664.665 118.529 664.903 119.586 664.903 120.819V134.799H659.451V131.924H659.289C658.957 132.572 658.511 133.143 657.953 133.638C657.396 134.124 656.725 134.506 655.943 134.785C655.16 135.055 654.256 135.19 653.23 135.19ZM654.877 131.223C655.722 131.223 656.469 131.056 657.117 130.723C657.765 130.382 658.273 129.923 658.642 129.347C659.01 128.771 659.195 128.119 659.195 127.39V125.191C659.015 125.308 658.768 125.416 658.453 125.515C658.147 125.605 657.801 125.69 657.414 125.771C657.027 125.843 656.64 125.91 656.253 125.973C655.866 126.027 655.515 126.077 655.201 126.122C654.526 126.221 653.937 126.378 653.433 126.594C652.929 126.81 652.538 127.102 652.259 127.471C651.98 127.831 651.841 128.281 651.841 128.821C651.841 129.603 652.124 130.202 652.691 130.615C653.266 131.02 653.995 131.223 654.877 131.223ZM652.205 111.238C651.431 111.238 650.765 110.968 650.208 110.428C649.65 109.879 649.371 109.231 649.371 108.485C649.371 107.72 649.65 107.072 650.208 106.542C650.765 106.011 651.431 105.745 652.205 105.745C652.988 105.745 653.649 106.011 654.189 106.542C654.737 107.072 655.012 107.72 655.012 108.485C655.012 109.231 654.737 109.879 654.189 110.428C653.649 110.968 652.988 111.238 652.205 111.238ZM660.463 111.238C659.69 111.238 659.024 110.968 658.466 110.428C657.908 109.879 657.63 109.231 657.63 108.485C657.63 107.72 657.908 107.072 658.466 106.542C659.024 106.011 659.69 105.745 660.463 105.745C661.246 105.745 661.907 106.011 662.447 106.542C662.996 107.072 663.27 107.72 663.27 108.485C663.27 109.231 662.996 109.879 662.447 110.428C661.907 110.968 661.246 111.238 660.463 111.238ZM687.523 135.204C685.427 135.204 683.614 134.758 682.085 133.868C680.564 132.968 679.39 131.718 678.563 130.116C677.735 128.506 677.321 126.639 677.321 124.516C677.321 122.375 677.735 120.504 678.563 118.902C679.39 117.292 680.564 116.042 682.085 115.151C683.614 114.251 685.427 113.802 687.523 113.802C689.619 113.802 691.427 114.251 692.948 115.151C694.477 116.042 695.655 117.292 696.483 118.902C697.311 120.504 697.725 122.375 697.725 124.516C697.725 126.639 697.311 128.506 696.483 130.116C695.655 131.718 694.477 132.968 692.948 133.868C691.427 134.758 689.619 135.204 687.523 135.204ZM687.55 130.75C688.503 130.75 689.3 130.481 689.938 129.941C690.577 129.392 691.058 128.645 691.382 127.701C691.715 126.756 691.882 125.681 691.882 124.476C691.882 123.27 691.715 122.195 691.382 121.25C691.058 120.306 690.577 119.559 689.938 119.01C689.3 118.462 688.503 118.187 687.55 118.187C686.587 118.187 685.778 118.462 685.121 119.01C684.473 119.559 683.983 120.306 683.65 121.25C683.326 122.195 683.164 123.27 683.164 124.476C683.164 125.681 683.326 126.756 683.65 127.701C683.983 128.645 684.473 129.392 685.121 129.941C685.778 130.481 686.587 130.75 687.55 130.75ZM701.462 134.799V114.071H707.211V134.799H701.462ZM704.35 111.4C703.496 111.4 702.762 111.116 702.151 110.549C701.548 109.974 701.247 109.285 701.247 108.485C701.247 107.693 701.548 107.014 702.151 106.447C702.762 105.871 703.496 105.584 704.35 105.584C705.205 105.584 705.934 105.871 706.536 106.447C707.148 107.014 707.454 107.693 707.454 108.485C707.454 109.285 707.148 109.974 706.536 110.549C705.934 111.116 705.205 111.4 704.35 111.4ZM717.025 128.834L717.038 121.939H717.875L724.514 114.071H731.113L722.193 124.489H720.83L717.025 128.834ZM711.816 134.799V107.162H717.565V134.799H711.816ZM724.771 134.799L718.671 125.771L722.504 121.709L731.504 134.799H724.771ZM742.445 135.204C740.349 135.204 738.536 134.758 737.007 133.868C735.486 132.968 734.312 131.718 733.485 130.116C732.657 128.506 732.243 126.639 732.243 124.516C732.243 122.375 732.657 120.504 733.485 118.902C734.312 117.292 735.486 116.042 737.007 115.151C738.536 114.251 740.349 113.802 742.445 113.802C744.541 113.802 746.349 114.251 747.869 115.151C749.399 116.042 750.577 117.292 751.405 118.902C752.233 120.504 752.646 122.375 752.646 124.516C752.646 126.639 752.233 128.506 751.405 130.116C750.577 131.718 749.399 132.968 747.869 133.868C746.349 134.758 744.541 135.204 742.445 135.204ZM742.472 130.75C743.425 130.75 744.221 130.481 744.86 129.941C745.499 129.392 745.98 128.645 746.304 127.701C746.637 126.756 746.803 125.681 746.803 124.476C746.803 123.27 746.637 122.195 746.304 121.25C745.98 120.306 745.499 119.559 744.86 119.01C744.221 118.462 743.425 118.187 742.472 118.187C741.509 118.187 740.699 118.462 740.043 119.01C739.395 119.559 738.905 120.306 738.572 121.25C738.248 122.195 738.086 123.27 738.086 124.476C738.086 125.681 738.248 126.756 738.572 127.701C738.905 128.645 739.395 129.392 740.043 129.941C740.699 130.481 741.509 130.75 742.472 130.75ZM762.133 107.162V134.799H756.384V107.162H762.133ZM780.03 125.973V114.071H785.778V134.799H780.259V131.034H780.043C779.575 132.248 778.797 133.224 777.709 133.962C776.629 134.7 775.311 135.069 773.755 135.069C772.37 135.069 771.151 134.754 770.098 134.124C769.045 133.494 768.222 132.599 767.629 131.439C767.044 130.278 766.747 128.888 766.738 127.269V114.071H772.486V126.243C772.495 127.467 772.824 128.434 773.472 129.145C774.119 129.855 774.987 130.211 776.076 130.211C776.769 130.211 777.416 130.053 778.019 129.738C778.622 129.414 779.108 128.938 779.477 128.308C779.854 127.678 780.039 126.9 780.03 125.973ZM795.585 128.834L795.599 121.939H796.436L803.075 114.071H809.673L800.754 124.489H799.391L795.585 128.834ZM790.377 134.799V107.162H796.125V134.799H790.377ZM803.331 134.799L797.232 125.771L801.064 121.709L810.065 134.799H803.331ZM821.086 135.204C818.954 135.204 817.119 134.772 815.581 133.908C814.051 133.035 812.873 131.803 812.045 130.211C811.217 128.609 810.804 126.716 810.804 124.53C810.804 122.397 811.217 120.526 812.045 118.916C812.873 117.306 814.038 116.051 815.54 115.151C817.051 114.251 818.824 113.802 820.857 113.802C822.224 113.802 823.497 114.022 824.676 114.463C825.863 114.895 826.898 115.547 827.779 116.419C828.67 117.292 829.363 118.39 829.858 119.712C830.352 121.026 830.6 122.564 830.6 124.327V125.906H813.098V122.343H825.189C825.189 121.516 825.009 120.783 824.649 120.144C824.289 119.505 823.79 119.006 823.151 118.646C822.521 118.277 821.788 118.093 820.951 118.093C820.079 118.093 819.305 118.295 818.63 118.7C817.965 119.096 817.443 119.631 817.065 120.306C816.687 120.972 816.494 121.714 816.485 122.532V125.919C816.485 126.945 816.674 127.831 817.051 128.578C817.438 129.325 817.983 129.9 818.684 130.305C819.386 130.71 820.218 130.912 821.181 130.912C821.819 130.912 822.404 130.822 822.935 130.642C823.466 130.463 823.92 130.193 824.298 129.833C824.676 129.473 824.964 129.032 825.162 128.51L830.478 128.861C830.208 130.139 829.655 131.254 828.818 132.208C827.991 133.152 826.92 133.89 825.607 134.421C824.302 134.943 822.796 135.204 821.086 135.204ZM834.351 134.799V114.071H839.83V117.728H840.073C840.505 116.514 841.224 115.556 842.232 114.854C843.239 114.152 844.445 113.802 845.848 113.802C847.27 113.802 848.48 114.157 849.478 114.868C850.477 115.569 851.143 116.523 851.475 117.728H851.691C852.114 116.541 852.879 115.592 853.985 114.881C855.101 114.161 856.419 113.802 857.939 113.802C859.873 113.802 861.443 114.418 862.649 115.65C863.863 116.874 864.47 118.61 864.47 120.859V134.799H858.735V121.993C858.735 120.841 858.43 119.977 857.818 119.402C857.206 118.826 856.441 118.538 855.524 118.538C854.48 118.538 853.666 118.871 853.081 119.537C852.497 120.193 852.204 121.061 852.204 122.141V134.799H846.631V121.871C846.631 120.855 846.339 120.045 845.754 119.442C845.178 118.839 844.418 118.538 843.473 118.538C842.835 118.538 842.259 118.7 841.746 119.024C841.242 119.339 840.842 119.784 840.545 120.36C840.248 120.927 840.1 121.592 840.1 122.357V134.799H834.351ZM869.011 134.799V114.071H874.76V134.799H869.011ZM871.899 111.4C871.044 111.4 870.311 111.116 869.7 110.549C869.097 109.974 868.795 109.285 868.795 108.485C868.795 107.693 869.097 107.014 869.7 106.447C870.311 105.871 871.044 105.584 871.899 105.584C872.754 105.584 873.482 105.871 874.085 106.447C874.697 107.014 875.003 107.693 875.003 108.485C875.003 109.285 874.697 109.974 874.085 110.549C873.482 111.116 872.754 111.4 871.899 111.4ZM885.113 122.816V134.799H879.365V114.071H884.844V117.728H885.086C885.545 116.523 886.314 115.569 887.394 114.868C888.473 114.157 889.782 113.802 891.321 113.802C892.76 113.802 894.015 114.116 895.086 114.746C896.156 115.376 896.988 116.276 897.582 117.445C898.176 118.606 898.473 119.991 898.473 121.601V134.799H892.724V122.627C892.733 121.358 892.409 120.369 891.753 119.658C891.096 118.938 890.192 118.579 889.04 118.579C888.267 118.579 887.583 118.745 886.989 119.078C886.404 119.411 885.946 119.896 885.613 120.535C885.289 121.165 885.122 121.925 885.113 122.816ZM912.45 135.204C910.317 135.204 908.482 134.772 906.944 133.908C905.414 133.035 904.236 131.803 903.408 130.211C902.581 128.609 902.167 126.716 902.167 124.53C902.167 122.397 902.581 120.526 903.408 118.916C904.236 117.306 905.401 116.051 906.903 115.151C908.415 114.251 910.187 113.802 912.22 113.802C913.588 113.802 914.861 114.022 916.039 114.463C917.227 114.895 918.261 115.547 919.143 116.419C920.033 117.292 920.726 118.39 921.221 119.712C921.716 121.026 921.963 122.564 921.963 124.327V125.906H904.461V122.343H916.552C916.552 121.516 916.372 120.783 916.012 120.144C915.652 119.505 915.153 119.006 914.514 118.646C913.884 118.277 913.151 118.093 912.315 118.093C911.442 118.093 910.668 118.295 909.994 118.7C909.328 119.096 908.806 119.631 908.428 120.306C908.05 120.972 907.857 121.714 907.848 122.532V125.919C907.848 126.945 908.037 127.831 908.415 128.578C908.802 129.325 909.346 129.9 910.048 130.305C910.749 130.71 911.581 130.912 912.544 130.912C913.183 130.912 913.767 130.822 914.298 130.642C914.829 130.463 915.283 130.193 915.661 129.833C916.039 129.473 916.327 129.032 916.525 128.51L921.842 128.861C921.572 130.139 921.018 131.254 920.182 132.208C919.354 133.152 918.284 133.89 916.97 134.421C915.666 134.943 914.159 135.204 912.45 135.204ZM931.463 122.816V134.799H925.714V114.071H931.193V117.728H931.436C931.895 116.523 932.664 115.569 933.744 114.868C934.823 114.157 936.132 113.802 937.67 113.802C939.11 113.802 940.365 114.116 941.435 114.746C942.506 115.376 943.338 116.276 943.932 117.445C944.526 118.606 944.822 119.991 944.822 121.601V134.799H939.074V122.627C939.083 121.358 938.759 120.369 938.102 119.658C937.446 118.938 936.541 118.579 935.39 118.579C934.616 118.579 933.932 118.745 933.339 119.078C932.754 119.411 932.295 119.896 931.962 120.535C931.638 121.165 931.472 121.925 931.463 122.816ZM952.713 135.15C951.823 135.15 951.058 134.835 950.419 134.205C949.789 133.566 949.475 132.802 949.475 131.911C949.475 131.029 949.789 130.274 950.419 129.644C951.058 129.014 951.823 128.699 952.713 128.699C953.577 128.699 954.333 129.014 954.98 129.644C955.628 130.274 955.952 131.029 955.952 131.911C955.952 132.505 955.799 133.049 955.493 133.544C955.196 134.03 954.805 134.421 954.319 134.718C953.833 135.006 953.298 135.15 952.713 135.15Z" fill="white"/>
<defs>
<linearGradient id="paint0_linear_137_69" x1="728.196" y1="83.5949" x2="-123.542" y2="142.595" gradientUnits="userSpaceOnUse">
<stop stop-color="#9372CB"/>
<stop offset="1" stop-color="#FC89AC"/>
</linearGradient>
</defs>
</svg>
