<svg width="202" height="202" viewBox="0 0 202 202" fill="none" xmlns="http://www.w3.org/2000/svg">
<circle cx="101" cy="101" r="96" stroke="#9372CB" stroke-width="10"/>
<path d="M112.167 52.1666H71.4999C68.8036 52.1666 66.2176 53.2378 64.311 55.1444C62.4044 57.051 61.3333 59.6369 61.3333 62.3333V143.667C61.3333 146.363 62.4044 148.949 64.311 150.856C66.2176 152.762 68.8036 153.833 71.4999 153.833H132.5C135.196 153.833 137.782 152.762 139.689 150.856C141.595 148.949 142.667 146.363 142.667 143.667V82.6666L112.167 52.1666Z" stroke="#9372CB" stroke-width="10" stroke-linecap="round" stroke-linejoin="round"/>
<path d="M112.167 52.1666V82.6666H142.667" stroke="#9372CB" stroke-width="10" stroke-linecap="round" stroke-linejoin="round"/>
<path d="M122.333 108.083H81.6667" stroke="#9372CB" stroke-width="7" stroke-linecap="round" stroke-linejoin="round"/>
<path d="M122.333 128.417H81.6667" stroke="#9372CB" stroke-width="7" stroke-linecap="round" stroke-linejoin="round"/>
<path d="M91.8334 87.75H86.7501H81.6667" stroke="#9372CB" stroke-width="7" stroke-linecap="round" stroke-linejoin="round"/>
</svg>
