<svg width="841" height="951" viewBox="0 0 841 951" fill="none" xmlns="http://www.w3.org/2000/svg">
<path opacity="0.52" d="M112.628 529.133C115.039 513.463 118.956 497.794 124.681 482.727C168.074 367.918 297.648 337.181 400.103 295.898C521.541 247.082 624.598 161.804 751.461 124.739C868.982 90.3868 1017.84 74.7173 1112.16 169.638C1182.37 240.151 1163.39 341.701 1081.12 391.422C1034.11 419.748 946.124 436.02 944.919 505.026C944.316 542.09 954.562 580.36 960.588 616.52C972.642 690.347 985.599 785.268 918.401 837.701C849.998 891.339 760.501 912.131 674.62 905.502C601.094 899.776 536.608 861.808 472.122 829.264C440.18 813.293 407.335 797.925 372.681 788.583C334.713 778.338 295.539 779.844 257.571 769.599C154.514 741.876 97.561 631.587 112.628 529.133Z" fill="#F9DABE"/>
<path d="M155.417 132.875C172.292 98.5229 204.234 72.0053 243.408 68.6906C271.432 66.2799 299.155 75.9227 324.166 88.8801C375.393 115.096 423.004 153.065 480.861 163.009C510.693 168.132 530.28 153.667 539.019 126.547C547.456 100.331 557.701 70.8 575.781 49.7064C635.145 -19.6009 775.568 30.1196 816.851 97.0163C869.283 181.692 724.943 296.802 822.275 360.686C883.446 400.763 981.079 393.23 1017.84 466.455C1054.61 539.378 999.46 614.712 934.372 647.256C816.248 706.017 674.319 667.145 580 581.866C508.885 517.682 450.426 442.046 364.545 395.942C279.869 350.44 160.841 327.237 143.364 214.839C138.542 185.609 143.665 156.982 155.417 132.875Z" fill="url(#paint0_linear_10_85)"/>
<path d="M46.6346 438.43C59.2908 415.529 76.467 394.435 97.5605 376.355C165.663 318.499 256.063 295.597 341.643 278.722C372.379 272.695 402.513 250.698 389.555 216.044C379.913 191.033 366.955 169.94 374.489 141.614C402.513 37.6529 553.784 68.3892 616.16 112.686C644.486 132.875 669.196 160.598 702.644 172.35C746.338 187.718 797.264 177.473 842.765 183.801C891.582 190.732 936.481 215.14 965.711 254.916C998.858 300.418 992.228 363.699 961.492 408.297C912.374 479.111 835.232 536.666 769.239 590.906C690.59 655.694 603.504 729.22 508.583 767.49C417.278 804.253 307.893 813.594 215.383 775.927C131.913 741.876 61.7015 676.486 33.0745 589.4C15.2957 537.269 21.925 483.932 46.6346 438.43Z" fill="url(#paint1_linear_10_85)"/>
<path d="M80.0832 139.806C83.6992 131.067 90.9314 124.739 100.875 126.246C109.313 127.451 118.353 135.587 117.449 144.929C114.436 170.241 108.71 193.745 111.724 219.66C114.436 244.973 122.873 269.381 135.228 291.378C144.871 308.253 120.161 322.416 109.313 306.445C93.0407 282.338 81.5899 255.218 76.7686 226.591C72.2485 199.772 69.8378 166.022 80.0832 139.806Z" fill="url(#paint2_linear_10_85)"/>
<path d="M42.1149 324.224C61.0991 317.594 90.6301 313.074 108.108 324.827C116.244 330.251 112.326 340.797 103.588 342.003C94.8489 343.208 86.4113 341.099 77.6726 342.003C68.3311 342.907 58.9897 345.619 50.5523 349.536C37.5948 355.864 24.6373 374.246 9.26918 373.04C5.35181 372.739 1.73581 370.63 0.831802 366.411C-5.49626 344.413 25.8428 330.251 42.1149 324.224Z" fill="url(#paint3_linear_10_85)"/>
<path d="M236.477 829.264C239.189 818.717 248.229 812.088 259.077 812.088C272.035 812.088 281.075 823.538 289.814 831.373C306.086 845.837 325.974 856.083 347.068 861.808C370.873 868.437 395.884 867.835 420.292 869.944C476.04 874.766 530.581 894.654 567.043 938.348C571.262 943.47 567.345 951.908 560.112 950.1C513.405 937.443 469.41 915.747 419.991 914.843C369.668 913.939 322.659 912.131 278.965 883.806C262.693 872.957 230.45 852.768 236.477 829.264Z" fill="url(#paint4_linear_10_85)"/>
<path d="M842.766 67.7866C853.915 54.8291 870.489 47.8984 887.062 43.981C900.02 40.9677 922.017 36.4476 933.167 44.885C937.084 47.8984 938.892 52.4184 936.481 56.9385C929.852 68.6906 911.772 73.2106 899.417 78.032C884.35 84.0587 868.078 89.1815 851.504 87.9762C840.656 87.3735 835.835 75.6213 842.766 67.7866Z" fill="url(#paint5_linear_10_85)"/>
<path d="M799.675 0.287294C811.125 -2.42473 820.768 14.7514 824.384 22.8875C830.411 35.845 832.219 47.5971 828 61.4585C826.493 66.5813 818.96 66.5813 817.453 61.4585C813.536 48.1997 808.715 34.6397 800.579 23.1889C796.36 17.4635 786.717 3.30066 799.675 0.287294Z" fill="url(#paint6_linear_10_85)"/>
<defs>
<linearGradient id="paint0_linear_10_85" x1="40.015" y1="69.3756" x2="1129.44" y2="510.224" gradientUnits="userSpaceOnUse">
<stop stop-color="#F9DABE"/>
<stop offset="1" stop-color="#FC89AC"/>
</linearGradient>
<linearGradient id="paint1_linear_10_85" x1="987.482" y1="436.194" x2="22.9274" y2="436.194" gradientUnits="userSpaceOnUse">
<stop stop-color="#FFB55C"/>
<stop offset="0.3018" stop-color="#F8B680"/>
<stop offset="1" stop-color="#FC89AC"/>
</linearGradient>
<linearGradient id="paint2_linear_10_85" x1="56.5763" y1="197.981" x2="161.999" y2="240.642" gradientUnits="userSpaceOnUse">
<stop stop-color="#F9DABE"/>
<stop offset="1" stop-color="#FC89AC"/>
</linearGradient>
<linearGradient id="paint3_linear_10_85" x1="10.8892" y1="329.574" x2="99.9044" y2="365.594" gradientUnits="userSpaceOnUse">
<stop stop-color="#F9DABE"/>
<stop offset="1" stop-color="#FC89AC"/>
</linearGradient>
<linearGradient id="paint4_linear_10_85" x1="237.403" y1="826.491" x2="563.464" y2="958.435" gradientUnits="userSpaceOnUse">
<stop stop-color="#F9DABE"/>
<stop offset="1" stop-color="#FC89AC"/>
</linearGradient>
<linearGradient id="paint5_linear_10_85" x1="849.359" y1="49.1755" x2="926.64" y2="80.4481" gradientUnits="userSpaceOnUse">
<stop stop-color="#F9DABE"/>
<stop offset="1" stop-color="#FC89AC"/>
</linearGradient>
<linearGradient id="paint6_linear_10_85" x1="786.612" y1="22.0326" x2="836.243" y2="42.1163" gradientUnits="userSpaceOnUse">
<stop stop-color="#F9DABE"/>
<stop offset="1" stop-color="#FC89AC"/>
</linearGradient>
</defs>
</svg>
