<svg width="975" height="270" viewBox="0 0 975 270" fill="none" xmlns="http://www.w3.org/2000/svg">
<path fill-rule="evenodd" clip-rule="evenodd" d="M673.247 21.2265C639.258 21.099 610.694 19.8582 595.918 19.228C566.729 17.983 499.311 11.9487 444.071 16.8016C401.605 20.5232 343.98 11.2187 276.087 28.94C252.62 32.0791 228.902 34.8986 211.217 34.7545C53.236 33.4682 34.9701 50.7321 27.3708 64.1307C19.4988 78.0185 19.5015 79.1805 27.4093 79.3673C29.5788 79.4183 31.8251 80.179 33.7625 81.3866C30.2937 83.3688 28.32 85.6728 26.8544 88.4239C26.5278 89.0376 26.2152 89.6271 25.9166 90.1934C13.6427 86.8332 11.9489 88.9804 14.3521 103.911C14.8905 107.255 14.9662 111.123 14.6504 115.093C13.5064 116.471 13.2444 118.869 13.6095 122.592C12.5784 127.794 10.9406 132.714 8.86061 136.381C1.10352 150.059 1.36389 151.199 12.531 152.458L13.0588 152.516C12.1616 155.943 11 159.108 9.62104 161.697C2.11207 175.793 2.39173 176.92 13.564 177.588C20.1776 177.983 27.2319 177.827 29.2401 177.242C30.9055 176.756 36.8181 183.186 43.3463 192.33C38.5835 193.66 40.2584 195.455 47.2172 199.723C47.969 200.184 48.707 200.678 49.4286 201.201C52.8882 206.009 56.5174 209.91 60.3146 212.902C64.3504 219.395 65.2154 225.381 60.3706 225.822C46.2191 227.109 64.2085 243.08 97.6998 258.964C134.14 276.246 132.704 258.515 307.231 236.525C344.413 231.84 385.205 234.083 419.891 228.916C439.482 229.694 464.239 230.632 488.451 230.688C506.866 231.689 527.7 231.689 545.053 232.15C647.38 234.891 900.374 240.547 866.215 236.524C837.153 233.101 851.954 223.788 897.551 216.808C921.057 213.209 941.048 206.032 941.976 200.859C942.903 195.686 949.952 191.603 957.639 191.784C968.044 192.03 971.562 187.609 971.403 174.484C971.343 169.478 970.627 165.535 968.972 162.311C970.872 159.468 971.559 155.143 971.375 148.876C971.027 137.015 967.108 131.315 955.76 127.422C960.67 127.03 961.747 126.08 959.531 123.77C961.025 121.586 960.686 117.345 959.251 110.069C958.762 107.593 958.518 104.792 958.494 101.847C960.209 101.178 960.17 100.211 958.551 98.6705C958.884 90.9288 960.612 82.6737 963.356 76.9808C970.365 62.4342 970.069 61.323 959.191 61.3137C953.23 61.3093 946.912 61.7995 944.466 62.431C942.694 59.2223 937.988 54.7851 930.947 49.6802C929.28 47.494 927.556 45.1153 925.839 42.6128C916.118 28.4473 907.07 30.0115 894.994 30.7946C892.296 30.9697 865.213 28.7405 861.028 28.9002C837.51 28.2924 827.729 17.9039 684.009 21.5046C680.268 21.7416 678.006 17.5123 673.247 21.2265ZM84.5349 100.314C83.943 100.524 83.3567 100.735 82.7766 100.947C81.3186 100.456 79.8685 99.9397 78.4321 99.4002C80.4772 99.6765 82.5152 99.9822 84.5349 100.314ZM45.878 77.0863C49.0824 76.3386 52.8319 75.6431 57.2399 74.985C49.0671 74.4045 45.5741 74.8806 45.878 77.0863Z" fill="url(#paint0_linear_148_2)"/>
<path d="M183.22 92.4536V61.9082H195.271C197.588 61.9082 199.561 62.3506 201.192 63.2356C202.823 64.1106 204.066 65.3286 204.921 66.8897C205.786 68.4408 206.218 70.2306 206.218 72.259C206.218 74.2874 205.781 76.0772 204.906 77.6283C204.031 79.1795 202.763 80.3876 201.103 81.2526C199.452 82.1177 197.453 82.5502 195.107 82.5502H187.426V77.3748H194.063C195.306 77.3748 196.33 77.161 197.135 76.7334C197.951 76.2959 198.557 75.6944 198.955 74.9288C199.363 74.1532 199.566 73.2633 199.566 72.259C199.566 71.2448 199.363 70.3599 198.955 69.6042C198.557 68.8386 197.951 68.2469 197.135 67.8293C196.32 67.4018 195.286 67.188 194.033 67.188H189.678V92.4536H183.22ZM216.211 92.8861C214.75 92.8861 213.447 92.6326 212.304 92.1255C211.16 91.6084 210.255 90.8478 209.589 89.8435C208.933 88.8293 208.605 87.5665 208.605 86.0552C208.605 84.7824 208.838 83.7136 209.306 82.8485C209.773 81.9834 210.409 81.2874 211.215 80.7604C212.02 80.2334 212.935 79.8357 213.959 79.5672C214.993 79.2988 216.077 79.1099 217.211 79.0005C218.543 78.8613 219.617 78.732 220.432 78.6127C221.247 78.4834 221.839 78.2945 222.207 78.0459C222.575 77.7974 222.759 77.4295 222.759 76.9422V76.8528C222.759 75.9082 222.461 75.1773 221.864 74.6603C221.277 74.1432 220.442 73.8847 219.358 73.8847C218.215 73.8847 217.305 74.1383 216.629 74.6454C215.953 75.1425 215.505 75.769 215.287 76.5246L209.41 76.0474C209.708 74.6553 210.295 73.4522 211.17 72.438C212.045 71.4138 213.174 70.6283 214.556 70.0815C215.948 69.5246 217.559 69.2462 219.388 69.2462C220.661 69.2462 221.879 69.3954 223.042 69.6937C224.216 69.992 225.255 70.4543 226.159 71.0807C227.074 71.7072 227.795 72.5126 228.322 73.4969C228.849 74.4714 229.113 75.6397 229.113 77.0019V92.4536H223.087V89.2768H222.908C222.54 89.9927 222.048 90.6241 221.431 91.1709C220.815 91.7079 220.074 92.1305 219.209 92.4387C218.344 92.737 217.345 92.8861 216.211 92.8861ZM218.031 88.5012C218.966 88.5012 219.791 88.3172 220.507 87.9494C221.223 87.5715 221.784 87.0644 222.192 86.428C222.6 85.7917 222.804 85.0708 222.804 84.2654V81.8343C222.605 81.9636 222.331 82.0829 221.983 82.1922C221.645 82.2917 221.262 82.3861 220.835 82.4756C220.407 82.5552 219.98 82.6297 219.552 82.6994C219.125 82.759 218.737 82.8137 218.389 82.8634C217.643 82.9728 216.992 83.1468 216.435 83.3854C215.878 83.6241 215.446 83.9472 215.137 84.3549C214.829 84.7526 214.675 85.2498 214.675 85.8464C214.675 86.7114 214.988 87.3726 215.615 87.83C216.251 88.2775 217.056 88.5012 218.031 88.5012ZM240.396 61.9082V92.4536H234.042V61.9082H240.396ZM266.843 69.5445L258.834 92.4536H251.675L243.666 69.5445H250.377L255.135 85.9359H255.374L260.117 69.5445H266.843ZM279.797 92.9011C277.44 92.9011 275.412 92.4238 273.711 91.4692C272.021 90.5047 270.719 89.1425 269.804 87.3826C268.889 85.6127 268.432 83.5197 268.432 81.1035C268.432 78.7469 268.889 76.6788 269.804 74.8989C270.719 73.1191 272.006 71.732 273.667 70.7377C275.337 69.7434 277.296 69.2462 279.543 69.2462C281.054 69.2462 282.461 69.4898 283.764 69.9771C285.076 70.4543 286.22 71.1752 287.194 72.1397C288.179 73.1042 288.944 74.3172 289.491 75.7789C290.038 77.2306 290.312 78.9309 290.312 80.8797V82.6248H270.967V78.6873H284.331C284.331 77.7725 284.132 76.9621 283.734 76.2562C283.336 75.5502 282.785 74.9984 282.079 74.6006C281.383 74.193 280.572 73.9891 279.648 73.9891C278.683 73.9891 277.828 74.2128 277.082 74.6603C276.346 75.0978 275.77 75.6894 275.352 76.4351C274.934 77.1709 274.721 77.9913 274.711 78.8961V82.6397C274.711 83.7732 274.92 84.7526 275.337 85.5779C275.765 86.4032 276.366 87.0396 277.142 87.487C277.917 87.9344 278.837 88.1582 279.901 88.1582C280.607 88.1582 281.253 88.0587 281.84 87.8599C282.427 87.661 282.929 87.3627 283.346 86.965C283.764 86.5672 284.082 86.08 284.301 85.5033L290.177 85.8911C289.879 87.303 289.268 88.536 288.343 89.59C287.428 90.634 286.245 91.4494 284.793 92.036C283.351 92.6127 281.686 92.9011 279.797 92.9011ZM300.812 61.9082V92.4536H294.458V61.9082H300.812ZM320.592 82.6994V69.5445H326.946V92.4536H320.846V88.2924H320.607C320.09 89.6347 319.23 90.7136 318.027 91.5289C316.834 92.3442 315.377 92.7519 313.657 92.7519C312.126 92.7519 310.778 92.4039 309.615 91.7079C308.452 91.0119 307.542 90.0225 306.886 88.7398C306.239 87.4572 305.911 85.9209 305.901 84.1312V69.5445H312.255V82.9976C312.265 84.3499 312.628 85.4188 313.344 86.2043C314.06 86.9898 315.019 87.3826 316.222 87.3826C316.988 87.3826 317.704 87.2086 318.37 86.8606C319.036 86.5026 319.573 85.9756 319.981 85.2796C320.398 84.5836 320.602 83.7235 320.592 82.6994ZM332.028 92.4536V69.5445H338.382V92.4536H332.028ZM335.22 66.5914C334.275 66.5914 333.465 66.2782 332.789 65.6518C332.123 65.0154 331.79 64.2547 331.79 63.3698C331.79 62.4948 332.123 61.7441 332.789 61.1177C333.465 60.4813 334.275 60.1631 335.22 60.1631C336.165 60.1631 336.97 60.4813 337.636 61.1177C338.312 61.7441 338.65 62.4948 338.65 63.3698C338.65 64.2547 338.312 65.0154 337.636 65.6518C336.97 66.2782 336.165 66.5914 335.22 66.5914ZM349.825 79.2093V92.4536H343.472V61.9082H349.646V73.5864H349.915C350.432 72.2342 351.267 71.1752 352.42 70.4096C353.574 69.634 355.021 69.2462 356.761 69.2462C358.352 69.2462 359.739 69.5942 360.922 70.2903C362.115 70.9763 363.04 71.9657 363.696 73.2583C364.362 74.541 364.69 76.0772 364.68 77.867V92.4536H358.327V79.0005C358.337 77.5886 357.979 76.4898 357.253 75.7043C356.537 74.9188 355.533 74.5261 354.24 74.5261C353.375 74.5261 352.609 74.71 351.943 75.0779C351.287 75.4458 350.77 75.9827 350.392 76.6887C350.024 77.3847 349.835 78.2249 349.825 79.2093ZM369.681 92.4536V69.5445H376.034V92.4536H369.681ZM372.872 66.5914C371.928 66.5914 371.117 66.2782 370.441 65.6518C369.775 65.0154 369.442 64.2547 369.442 63.3698C369.442 62.4948 369.775 61.7441 370.441 61.1177C371.117 60.4813 371.928 60.1631 372.872 60.1631C373.817 60.1631 374.622 60.4813 375.288 61.1177C375.965 61.7441 376.303 62.4948 376.303 63.3698C376.303 64.2547 375.965 65.0154 375.288 65.6518C374.622 66.2782 373.817 66.5914 372.872 66.5914ZM381.124 92.4536V69.5445H387.179V73.5864H387.448C387.925 72.2441 388.72 71.1851 389.834 70.4096C390.948 69.634 392.28 69.2462 393.831 69.2462C395.402 69.2462 396.74 69.639 397.843 70.4245C398.947 71.2001 399.683 72.254 400.051 73.5864H400.289C400.757 72.2739 401.602 71.2249 402.825 70.4394C404.058 69.644 405.515 69.2462 407.195 69.2462C409.333 69.2462 411.068 69.9273 412.4 71.2896C413.742 72.6418 414.414 74.5609 414.414 77.0467V92.4536H408.075V78.2995C408.075 77.0268 407.737 76.0722 407.061 75.4359C406.385 74.7995 405.539 74.4813 404.525 74.4813C403.372 74.4813 402.472 74.8492 401.826 75.585C401.179 76.3109 400.856 77.2704 400.856 78.4636V92.4536H394.696V78.1653C394.696 77.0417 394.373 76.1468 393.727 75.4806C393.091 74.8144 392.25 74.4813 391.206 74.4813C390.5 74.4813 389.864 74.6603 389.297 75.0182C388.74 75.3663 388.298 75.8584 387.97 76.4948C387.642 77.1212 387.478 77.857 387.478 78.7022V92.4536H381.124ZM419.432 92.4536V69.5445H425.488V73.5864H425.756C426.234 72.2441 427.029 71.1851 428.143 70.4096C429.256 69.634 430.589 69.2462 432.14 69.2462C433.711 69.2462 435.048 69.639 436.152 70.4245C437.256 71.2001 437.991 72.254 438.359 73.5864H438.598C439.065 72.2739 439.91 71.2249 441.133 70.4394C442.366 69.644 443.823 69.2462 445.504 69.2462C447.641 69.2462 449.376 69.9273 450.709 71.2896C452.051 72.6418 452.722 74.5609 452.722 77.0467V92.4536H446.383V78.2995C446.383 77.0268 446.045 76.0722 445.369 75.4359C444.693 74.7995 443.848 74.4813 442.834 74.4813C441.68 74.4813 440.78 74.8492 440.134 75.585C439.488 76.3109 439.165 77.2704 439.165 78.4636V92.4536H433.005V78.1653C433.005 77.0417 432.682 76.1468 432.035 75.4806C431.399 74.8144 430.559 74.4813 429.515 74.4813C428.809 74.4813 428.173 74.6603 427.606 75.0182C427.049 75.3663 426.606 75.8584 426.278 76.4948C425.95 77.1212 425.786 77.857 425.786 78.7022V92.4536H419.432ZM468.181 92.9011C465.825 92.9011 463.796 92.4238 462.096 91.4692C460.406 90.5047 459.103 89.1425 458.189 87.3826C457.274 85.6127 456.816 83.5197 456.816 81.1035C456.816 78.7469 457.274 76.6788 458.189 74.8989C459.103 73.1191 460.391 71.732 462.051 70.7377C463.722 69.7434 465.681 69.2462 467.928 69.2462C469.439 69.2462 470.846 69.4898 472.149 69.9771C473.461 70.4543 474.605 71.1752 475.579 72.1397C476.564 73.1042 477.329 74.3172 477.876 75.7789C478.423 77.2306 478.696 78.9309 478.696 80.8797V82.6248H459.352V78.6873H472.716C472.716 77.7725 472.517 76.9621 472.119 76.2562C471.721 75.5502 471.169 74.9984 470.463 74.6006C469.767 74.193 468.957 73.9891 468.032 73.9891C467.068 73.9891 466.213 74.2128 465.467 74.6603C464.731 75.0978 464.154 75.6894 463.737 76.4351C463.319 77.1709 463.105 77.9913 463.095 78.8961V82.6397C463.095 83.7732 463.304 84.7526 463.722 85.5779C464.149 86.4032 464.751 87.0396 465.527 87.487C466.302 87.9344 467.222 88.1582 468.286 88.1582C468.992 88.1582 469.638 88.0587 470.225 87.8599C470.811 87.661 471.314 87.3627 471.731 86.965C472.149 86.5672 472.467 86.08 472.686 85.5033L478.562 85.8911C478.264 87.303 477.652 88.536 476.728 89.59C475.813 90.634 474.63 91.4494 473.178 92.036C471.736 92.6127 470.071 92.9011 468.181 92.9011ZM498.32 85.8613L498.335 78.2398H499.26L506.598 69.5445H513.891L504.033 81.0587H502.526L498.32 85.8613ZM492.563 92.4536V61.9082H498.917V92.4536H492.563ZM506.882 92.4536L500.14 82.4756L504.376 77.9863L514.324 92.4536H506.882ZM531.7 82.6994V69.5445H538.053V92.4536H531.953V88.2924H531.715C531.198 89.6347 530.337 90.7136 529.134 91.5289C527.941 92.3442 526.485 92.7519 524.764 92.7519C523.233 92.7519 521.886 92.4039 520.722 91.7079C519.559 91.0119 518.649 90.0225 517.993 88.7398C517.347 87.4572 517.019 85.9209 517.009 84.1312V69.5445H523.362V82.9976C523.372 84.3499 523.735 85.4188 524.451 86.2043C525.167 86.9898 526.127 87.3826 527.33 87.3826C528.095 87.3826 528.811 87.2086 529.477 86.8606C530.144 86.5026 530.681 85.9756 531.088 85.2796C531.506 84.5836 531.71 83.7235 531.7 82.6994ZM557.827 82.6994V69.5445H564.18V92.4536H558.08V88.2924H557.842C557.325 89.6347 556.464 90.7136 555.261 91.5289C554.068 92.3442 552.611 92.7519 550.891 92.7519C549.36 92.7519 548.013 92.4039 546.849 91.7079C545.686 91.0119 544.776 90.0225 544.12 88.7398C543.474 87.4572 543.146 85.9209 543.136 84.1312V69.5445H549.489V82.9976C549.499 84.3499 549.862 85.4188 550.578 86.2043C551.294 86.9898 552.254 87.3826 553.457 87.3826C554.222 87.3826 554.938 87.2086 555.604 86.8606C556.271 86.5026 556.807 85.9756 557.215 85.2796C557.633 84.5836 557.837 83.7235 557.827 82.6994ZM575.616 61.9082V92.4536H569.263V61.9082H575.616ZM595.397 82.6994V69.5445H601.751V92.4536H595.651V88.2924H595.412C594.895 89.6347 594.035 90.7136 592.832 91.5289C591.638 92.3442 590.182 92.7519 588.462 92.7519C586.93 92.7519 585.583 92.4039 584.42 91.7079C583.256 91.0119 582.347 90.0225 581.69 88.7398C581.044 87.4572 580.716 85.9209 580.706 84.1312V69.5445H587.06V82.9976C587.07 84.3499 587.432 85.4188 588.148 86.2043C588.864 86.9898 589.824 87.3826 591.027 87.3826C591.793 87.3826 592.508 87.2086 593.175 86.8606C593.841 86.5026 594.378 85.9756 594.785 85.2796C595.203 84.5836 595.407 83.7235 595.397 82.6994ZM628.191 69.5445L620.182 92.4536H613.023L605.013 69.5445H611.725L616.483 85.9359H616.721L621.464 69.5445H628.191ZM637.36 92.8861C635.898 92.8861 634.595 92.6326 633.452 92.1255C632.309 91.6084 631.404 90.8478 630.738 89.8435C630.081 88.8293 629.753 87.5665 629.753 86.0552C629.753 84.7824 629.987 83.7136 630.454 82.8485C630.921 81.9834 631.558 81.2874 632.363 80.7604C633.169 80.2334 634.083 79.8357 635.108 79.5672C636.142 79.2988 637.225 79.1099 638.359 79.0005C639.691 78.8613 640.765 78.732 641.581 78.6127C642.396 78.4834 642.988 78.2945 643.355 78.0459C643.723 77.7974 643.907 77.4295 643.907 76.9422V76.8528C643.907 75.9082 643.609 75.1773 643.012 74.6603C642.426 74.1432 641.591 73.8847 640.507 73.8847C639.363 73.8847 638.453 74.1383 637.777 74.6454C637.101 75.1425 636.654 75.769 636.435 76.5246L630.559 76.0474C630.857 74.6553 631.443 73.4522 632.318 72.438C633.193 71.4138 634.322 70.6283 635.704 70.0815C637.096 69.5246 638.707 69.2462 640.537 69.2462C641.809 69.2462 643.027 69.3954 644.191 69.6937C645.364 69.992 646.403 70.4543 647.308 71.0807C648.223 71.7072 648.943 72.5126 649.47 73.4969C649.997 74.4714 650.261 75.6397 650.261 77.0019V92.4536H644.235V89.2768H644.056C643.689 89.9927 643.196 90.6241 642.58 91.1709C641.963 91.7079 641.223 92.1305 640.358 92.4387C639.492 92.737 638.493 92.8861 637.36 92.8861ZM639.179 88.5012C640.114 88.5012 640.939 88.3172 641.655 87.9494C642.371 87.5715 642.933 87.0644 643.341 86.428C643.748 85.7917 643.952 85.0708 643.952 84.2654V81.8343C643.753 81.9636 643.48 82.0829 643.132 82.1922C642.794 82.2917 642.411 82.3861 641.983 82.4756C641.556 82.5552 641.128 82.6297 640.701 82.6994C640.273 82.759 639.885 82.8137 639.537 82.8634C638.792 82.9728 638.14 83.1468 637.583 83.3854C637.027 83.6241 636.594 83.9472 636.286 84.3549C635.978 84.7526 635.823 85.2498 635.823 85.8464C635.823 86.7114 636.137 87.3726 636.763 87.83C637.399 88.2775 638.205 88.5012 639.179 88.5012ZM667.376 69.5445V74.3172H653.58V69.5445H667.376ZM656.712 64.0559H663.065V85.4138C663.065 86.0005 663.155 86.4579 663.334 86.786C663.513 87.1042 663.761 87.3279 664.08 87.4572C664.408 87.5864 664.785 87.6511 665.213 87.6511C665.511 87.6511 665.81 87.6262 666.108 87.5765C666.406 87.5168 666.635 87.4721 666.794 87.4422L667.793 92.1702C667.475 92.2697 667.028 92.384 666.451 92.5133C665.874 92.6525 665.173 92.737 664.348 92.7668C662.817 92.8265 661.474 92.6226 660.321 92.1553C659.178 91.688 658.288 90.9621 657.651 89.9778C657.015 88.9934 656.702 87.7505 656.712 86.2491V64.0559ZM681.235 92.4536V69.5445H687.291V73.5864H687.559C688.036 72.2441 688.832 71.1851 689.945 70.4096C691.059 69.634 692.391 69.2462 693.943 69.2462C695.514 69.2462 696.851 69.639 697.955 70.4245C699.058 71.2001 699.794 72.254 700.162 73.5864H700.401C700.868 72.2739 701.713 71.2249 702.936 70.4394C704.169 69.644 705.626 69.2462 707.306 69.2462C709.444 69.2462 711.179 69.9273 712.511 71.2896C713.854 72.6418 714.525 74.5609 714.525 77.0467V92.4536H708.186V78.2995C708.186 77.0268 707.848 76.0722 707.172 75.4359C706.496 74.7995 705.651 74.4813 704.636 74.4813C703.483 74.4813 702.583 74.8492 701.937 75.585C701.291 76.3109 700.967 77.2704 700.967 78.4636V92.4536H694.808V78.1653C694.808 77.0417 694.485 76.1468 693.838 75.4806C693.202 74.8144 692.362 74.4813 691.318 74.4813C690.612 74.4813 689.975 74.6603 689.409 75.0182C688.852 75.3663 688.409 75.8584 688.081 76.4948C687.753 77.1212 687.589 77.857 687.589 78.7022V92.4536H681.235ZM722.646 101.045C721.841 101.045 721.085 100.98 720.379 100.851C719.683 100.731 719.106 100.577 718.649 100.388L720.081 95.6454C720.826 95.8741 721.498 95.9984 722.094 96.0182C722.701 96.0381 723.223 95.8989 723.66 95.6006C724.108 95.3023 724.471 94.7952 724.749 94.0793L725.122 93.1099L716.904 69.5445H723.586L728.329 86.3684H728.567L733.355 69.5445H740.081L731.177 94.9295C730.75 96.1624 730.168 97.2363 729.432 98.1511C728.706 99.0758 727.787 99.7867 726.673 100.284C725.559 100.791 724.217 101.045 722.646 101.045ZM752.945 92.9011C750.629 92.9011 748.625 92.4089 746.935 91.4245C745.254 90.4302 743.957 89.0481 743.042 87.2782C742.127 85.4984 741.67 83.4351 741.67 81.0886C741.67 78.7221 742.127 76.6539 743.042 74.884C743.957 73.1042 745.254 71.7221 746.935 70.7377C748.625 69.7434 750.629 69.2462 752.945 69.2462C755.262 69.2462 757.261 69.7434 758.941 70.7377C760.632 71.7221 761.934 73.1042 762.849 74.884C763.764 76.6539 764.221 78.7221 764.221 81.0886C764.221 83.4351 763.764 85.4984 762.849 87.2782C761.934 89.0481 760.632 90.4302 758.941 91.4245C757.261 92.4089 755.262 92.9011 752.945 92.9011ZM752.975 87.9792C754.029 87.9792 754.909 87.6809 755.615 87.0843C756.321 86.4778 756.853 85.6525 757.211 84.6084C757.579 83.5644 757.763 82.3762 757.763 81.0438C757.763 79.7114 757.579 78.5232 757.211 77.4792C756.853 76.4351 756.321 75.6099 755.615 75.0033C754.909 74.3968 754.029 74.0935 752.975 74.0935C751.911 74.0935 751.016 74.3968 750.291 75.0033C749.575 75.6099 749.033 76.4351 748.665 77.4792C748.307 78.5232 748.128 79.7114 748.128 81.0438C748.128 82.3762 748.307 83.5644 748.665 84.6084C749.033 85.6525 749.575 86.4778 750.291 87.0843C751.016 87.6809 751.911 87.9792 752.975 87.9792ZM748.396 66.4124C747.541 66.4124 746.806 66.1141 746.189 65.5175C745.573 64.911 745.264 64.1951 745.264 63.3698C745.264 62.5246 745.573 61.8087 746.189 61.2221C746.806 60.6354 747.541 60.3421 748.396 60.3421C749.261 60.3421 749.992 60.6354 750.589 61.2221C751.195 61.8087 751.499 62.5246 751.499 63.3698C751.499 64.1951 751.195 64.911 750.589 65.5175C749.992 66.1141 749.261 66.4124 748.396 66.4124ZM757.524 66.4124C756.669 66.4124 755.933 66.1141 755.317 65.5175C754.7 64.911 754.392 64.1951 754.392 63.3698C754.392 62.5246 754.7 61.8087 755.317 61.2221C755.933 60.6354 756.669 60.3421 757.524 60.3421C758.389 60.3421 759.12 60.6354 759.717 61.2221C760.323 61.8087 760.627 62.5246 760.627 63.3698C760.627 64.1951 760.323 64.911 759.717 65.5175C759.12 66.1141 758.389 66.4124 757.524 66.4124ZM787.413 76.0772L781.597 76.4351C781.497 75.938 781.284 75.4905 780.955 75.0928C780.627 74.6851 780.195 74.362 779.658 74.1234C779.131 73.8748 778.499 73.7505 777.764 73.7505C776.779 73.7505 775.949 73.9593 775.273 74.3769C774.597 74.7846 774.259 75.3315 774.259 76.0175C774.259 76.5644 774.477 77.0268 774.915 77.4046C775.352 77.7824 776.103 78.0857 777.167 78.3144L781.313 79.1496C783.541 79.607 785.201 80.3428 786.295 81.357C787.389 82.3712 787.936 83.7036 787.936 85.3542C787.936 86.8556 787.493 88.1731 786.608 89.3066C785.733 90.4401 784.53 91.3251 782.999 91.9614C781.477 92.5878 779.722 92.9011 777.734 92.9011C774.701 92.9011 772.285 92.2697 770.485 91.0069C768.695 89.7342 767.646 88.004 767.338 85.8165L773.587 85.4884C773.776 86.4131 774.234 87.1191 774.96 87.6063C775.686 88.0836 776.615 88.3222 777.749 88.3222C778.862 88.3222 779.757 88.1084 780.433 87.6809C781.119 87.2434 781.467 86.6816 781.477 85.9955C781.467 85.4188 781.224 84.9465 780.747 84.5786C780.269 84.2008 779.534 83.9124 778.539 83.7136L774.572 82.9231C772.335 82.4756 770.669 81.7001 769.575 80.5964C768.492 79.4927 767.95 78.0857 767.95 76.3755C767.95 74.9039 768.347 73.6361 769.143 72.5722C769.948 71.5083 771.077 70.688 772.529 70.1113C773.99 69.5346 775.7 69.2462 777.659 69.2462C780.553 69.2462 782.83 69.8577 784.49 71.0807C786.161 72.3038 787.135 73.9692 787.413 76.0772ZM220.809 143.901C218.492 143.901 216.488 143.409 214.798 142.424C213.118 141.43 211.82 140.048 210.905 138.278C209.991 136.498 209.533 134.435 209.533 132.089C209.533 129.722 209.991 127.654 210.905 125.884C211.82 124.104 213.118 122.722 214.798 121.738C216.488 120.743 218.492 120.246 220.809 120.246C223.125 120.246 225.124 120.743 226.804 121.738C228.495 122.722 229.797 124.104 230.712 125.884C231.627 127.654 232.084 129.722 232.084 132.089C232.084 134.435 231.627 136.498 230.712 138.278C229.797 140.048 228.495 141.43 226.804 142.424C225.124 143.409 223.125 143.901 220.809 143.901ZM220.839 138.979C221.893 138.979 222.773 138.681 223.478 138.084C224.184 137.478 224.716 136.652 225.074 135.608C225.442 134.564 225.626 133.376 225.626 132.044C225.626 130.711 225.442 129.523 225.074 128.479C224.716 127.435 224.184 126.61 223.478 126.003C222.773 125.397 221.893 125.094 220.839 125.094C219.775 125.094 218.88 125.397 218.154 126.003C217.438 126.61 216.896 127.435 216.528 128.479C216.17 129.523 215.991 130.711 215.991 132.044C215.991 133.376 216.17 134.564 216.528 135.608C216.896 136.652 217.438 137.478 218.154 138.084C218.88 138.681 219.775 138.979 220.839 138.979ZM242.569 112.908V143.454H236.216V112.908H242.569ZM258.099 143.901C255.743 143.901 253.714 143.424 252.014 142.469C250.324 141.505 249.021 140.143 248.106 138.383C247.192 136.613 246.734 134.52 246.734 132.103C246.734 129.747 247.192 127.679 248.106 125.899C249.021 124.119 250.309 122.732 251.969 121.738C253.64 120.743 255.599 120.246 257.846 120.246C259.357 120.246 260.764 120.49 262.067 120.977C263.379 121.454 264.523 122.175 265.497 123.14C266.481 124.104 267.247 125.317 267.794 126.779C268.341 128.231 268.614 129.931 268.614 131.88V133.625H249.27V129.687H262.633C262.633 128.773 262.435 127.962 262.037 127.256C261.639 126.55 261.087 125.998 260.381 125.601C259.685 125.193 258.875 124.989 257.95 124.989C256.986 124.989 256.131 125.213 255.385 125.66C254.649 126.098 254.072 126.689 253.655 127.435C253.237 128.171 253.023 128.991 253.013 129.896V133.64C253.013 134.773 253.222 135.753 253.64 136.578C254.067 137.403 254.669 138.04 255.445 138.487C256.22 138.934 257.14 139.158 258.204 139.158C258.91 139.158 259.556 139.059 260.143 138.86C260.729 138.661 261.231 138.363 261.649 137.965C262.067 137.567 262.385 137.08 262.604 136.503L268.48 136.891C268.182 138.303 267.57 139.536 266.646 140.59C265.731 141.634 264.548 142.449 263.096 143.036C261.654 143.613 259.989 143.901 258.099 143.901ZM272.761 143.454V120.545H278.816V124.586H279.084C279.562 123.244 280.357 122.185 281.471 121.41C282.584 120.634 283.917 120.246 285.468 120.246C287.039 120.246 288.376 120.639 289.48 121.424C290.584 122.2 291.32 123.254 291.687 124.586H291.926C292.393 123.274 293.239 122.225 294.462 121.439C295.695 120.644 297.151 120.246 298.832 120.246C300.969 120.246 302.705 120.927 304.037 122.29C305.379 123.642 306.05 125.561 306.05 128.047V143.454H299.712V129.299C299.712 128.027 299.374 127.072 298.697 126.436C298.021 125.799 297.176 125.481 296.162 125.481C295.008 125.481 294.109 125.849 293.462 126.585C292.816 127.311 292.493 128.27 292.493 129.464V143.454H286.333V129.165C286.333 128.042 286.01 127.147 285.364 126.481C284.727 125.814 283.887 125.481 282.843 125.481C282.137 125.481 281.501 125.66 280.934 126.018C280.377 126.366 279.935 126.858 279.606 127.495C279.278 128.121 279.114 128.857 279.114 129.702V143.454H272.761ZM317.602 143.886C316.14 143.886 314.838 143.633 313.694 143.125C312.551 142.608 311.646 141.848 310.98 140.844C310.323 139.829 309.995 138.567 309.995 137.055C309.995 135.782 310.229 134.714 310.696 133.848C311.164 132.983 311.8 132.287 312.605 131.76C313.411 131.233 314.326 130.836 315.35 130.567C316.384 130.299 317.468 130.11 318.601 130C319.934 129.861 321.007 129.732 321.823 129.613C322.638 129.483 323.23 129.295 323.598 129.046C323.966 128.797 324.149 128.429 324.149 127.942V127.853C324.149 126.908 323.851 126.177 323.255 125.66C322.668 125.143 321.833 124.885 320.749 124.885C319.605 124.885 318.696 125.138 318.019 125.645C317.343 126.143 316.896 126.769 316.677 127.525L310.801 127.047C311.099 125.655 311.686 124.452 312.561 123.438C313.436 122.414 314.564 121.628 315.946 121.081C317.338 120.525 318.949 120.246 320.779 120.246C322.051 120.246 323.269 120.395 324.433 120.694C325.606 120.992 326.645 121.454 327.55 122.081C328.465 122.707 329.186 123.513 329.713 124.497C330.24 125.471 330.503 126.64 330.503 128.002V143.454H324.478V140.277H324.299C323.931 140.993 323.439 141.624 322.822 142.171C322.206 142.708 321.465 143.13 320.6 143.439C319.735 143.737 318.735 143.886 317.602 143.886ZM319.421 139.501C320.356 139.501 321.181 139.317 321.897 138.949C322.613 138.572 323.175 138.064 323.583 137.428C323.99 136.792 324.194 136.071 324.194 135.265V132.834C323.995 132.964 323.722 133.083 323.374 133.192C323.036 133.292 322.653 133.386 322.225 133.476C321.798 133.555 321.37 133.63 320.943 133.699C320.515 133.759 320.127 133.814 319.779 133.863C319.034 133.973 318.382 134.147 317.826 134.385C317.269 134.624 316.836 134.947 316.528 135.355C316.22 135.753 316.066 136.25 316.066 136.846C316.066 137.711 316.379 138.373 317.005 138.83C317.642 139.277 318.447 139.501 319.421 139.501ZM354.494 127.077L348.677 127.435C348.577 126.938 348.364 126.491 348.035 126.093C347.707 125.685 347.275 125.362 346.738 125.123C346.211 124.875 345.58 124.75 344.844 124.75C343.859 124.75 343.029 124.959 342.353 125.377C341.677 125.785 341.339 126.331 341.339 127.018C341.339 127.564 341.557 128.027 341.995 128.405C342.432 128.782 343.183 129.086 344.247 129.314L348.393 130.15C350.621 130.607 352.281 131.343 353.375 132.357C354.469 133.371 355.016 134.704 355.016 136.354C355.016 137.856 354.573 139.173 353.688 140.307C352.813 141.44 351.61 142.325 350.079 142.961C348.557 143.588 346.803 143.901 344.814 143.901C341.781 143.901 339.365 143.27 337.565 142.007C335.776 140.734 334.727 139.004 334.418 136.817L340.668 136.488C340.856 137.413 341.314 138.119 342.04 138.606C342.766 139.084 343.695 139.322 344.829 139.322C345.942 139.322 346.837 139.108 347.513 138.681C348.2 138.243 348.548 137.682 348.557 136.996C348.548 136.419 348.304 135.947 347.827 135.579C347.349 135.201 346.614 134.912 345.619 134.714L341.652 133.923C339.415 133.476 337.749 132.7 336.655 131.596C335.572 130.493 335.03 129.086 335.03 127.375C335.03 125.904 335.428 124.636 336.223 123.572C337.028 122.508 338.157 121.688 339.609 121.111C341.07 120.535 342.78 120.246 344.739 120.246C347.633 120.246 349.91 120.858 351.57 122.081C353.241 123.304 354.215 124.969 354.494 127.077ZM378.078 127.077L372.261 127.435C372.161 126.938 371.948 126.491 371.619 126.093C371.291 125.685 370.859 125.362 370.322 125.123C369.795 124.875 369.163 124.75 368.428 124.75C367.443 124.75 366.613 124.959 365.937 125.377C365.261 125.785 364.923 126.331 364.923 127.018C364.923 127.564 365.141 128.027 365.579 128.405C366.016 128.782 366.767 129.086 367.831 129.314L371.977 130.15C374.205 130.607 375.865 131.343 376.959 132.357C378.053 133.371 378.6 134.704 378.6 136.354C378.6 137.856 378.157 139.173 377.272 140.307C376.397 141.44 375.194 142.325 373.663 142.961C372.141 143.588 370.386 143.901 368.398 143.901C365.365 143.901 362.949 143.27 361.149 142.007C359.36 140.734 358.311 139.004 358.002 136.817L364.252 136.488C364.44 137.413 364.898 138.119 365.624 138.606C366.35 139.084 367.279 139.322 368.413 139.322C369.526 139.322 370.421 139.108 371.097 138.681C371.784 138.243 372.132 137.682 372.141 136.996C372.132 136.419 371.888 135.947 371.411 135.579C370.933 135.201 370.198 134.912 369.203 134.714L365.236 133.923C362.999 133.476 361.333 132.7 360.239 131.596C359.156 130.493 358.614 129.086 358.614 127.375C358.614 125.904 359.011 124.636 359.807 123.572C360.612 122.508 361.741 121.688 363.193 121.111C364.654 120.535 366.364 120.246 368.323 120.246C371.217 120.246 373.494 120.858 375.154 122.081C376.825 123.304 377.799 124.969 378.078 127.077ZM389.133 143.886C387.671 143.886 386.369 143.633 385.225 143.125C384.082 142.608 383.177 141.848 382.511 140.844C381.855 139.829 381.527 138.567 381.527 137.055C381.527 135.782 381.76 134.714 382.228 133.848C382.695 132.983 383.331 132.287 384.137 131.76C384.942 131.233 385.857 130.836 386.881 130.567C387.915 130.299 388.999 130.11 390.132 130C391.465 129.861 392.539 129.732 393.354 129.613C394.169 129.483 394.761 129.295 395.129 129.046C395.497 128.797 395.681 128.429 395.681 127.942V127.853C395.681 126.908 395.382 126.177 394.786 125.66C394.199 125.143 393.364 124.885 392.28 124.885C391.137 124.885 390.227 125.138 389.551 125.645C388.875 126.143 388.427 126.769 388.208 127.525L382.332 127.047C382.63 125.655 383.217 124.452 384.092 123.438C384.967 122.414 386.095 121.628 387.478 121.081C388.87 120.525 390.48 120.246 392.31 120.246C393.583 120.246 394.801 120.395 395.964 120.694C397.137 120.992 398.176 121.454 399.081 122.081C399.996 122.707 400.717 123.513 401.244 124.497C401.771 125.471 402.034 126.64 402.034 128.002V143.454H396.009V140.277H395.83C395.462 140.993 394.97 141.624 394.353 142.171C393.737 142.708 392.996 143.13 392.131 143.439C391.266 143.737 390.267 143.886 389.133 143.886ZM390.953 139.501C391.887 139.501 392.713 139.317 393.429 138.949C394.144 138.572 394.706 138.064 395.114 137.428C395.522 136.792 395.725 136.071 395.725 135.265V132.834C395.527 132.964 395.253 133.083 394.905 133.192C394.567 133.292 394.184 133.386 393.757 133.476C393.329 133.555 392.902 133.63 392.474 133.699C392.046 133.759 391.659 133.814 391.311 133.863C390.565 133.973 389.914 134.147 389.357 134.385C388.8 134.624 388.367 134.947 388.059 135.355C387.751 135.753 387.597 136.25 387.597 136.846C387.597 137.711 387.91 138.373 388.537 138.83C389.173 139.277 389.978 139.501 390.953 139.501ZM417.315 143.901C414.998 143.901 412.994 143.409 411.304 142.424C409.624 141.43 408.326 140.048 407.411 138.278C406.496 136.498 406.039 134.435 406.039 132.089C406.039 129.722 406.496 127.654 407.411 125.884C408.326 124.104 409.624 122.722 411.304 121.738C412.994 120.743 414.998 120.246 417.315 120.246C419.631 120.246 421.63 120.743 423.31 121.738C425.001 122.722 426.303 124.104 427.218 125.884C428.133 127.654 428.59 129.722 428.59 132.089C428.59 134.435 428.133 136.498 427.218 138.278C426.303 140.048 425.001 141.43 423.31 142.424C421.63 143.409 419.631 143.901 417.315 143.901ZM417.344 138.979C418.398 138.979 419.278 138.681 419.984 138.084C420.69 137.478 421.222 136.652 421.58 135.608C421.948 134.564 422.132 133.376 422.132 132.044C422.132 130.711 421.948 129.523 421.58 128.479C421.222 127.435 420.69 126.61 419.984 126.003C419.278 125.397 418.398 125.094 417.344 125.094C416.28 125.094 415.386 125.397 414.66 126.003C413.944 126.61 413.402 127.435 413.034 128.479C412.676 129.523 412.497 130.711 412.497 132.044C412.497 133.376 412.676 134.564 413.034 135.608C413.402 136.652 413.944 137.478 414.66 138.084C415.386 138.681 416.28 138.979 417.344 138.979ZM439.075 112.908V143.454H432.722V112.908H439.075ZM454.605 143.901C452.249 143.901 450.22 143.424 448.52 142.469C446.83 141.505 445.527 140.143 444.612 138.383C443.698 136.613 443.24 134.52 443.24 132.103C443.24 129.747 443.698 127.679 444.612 125.899C445.527 124.119 446.815 122.732 448.475 121.738C450.146 120.743 452.105 120.246 454.352 120.246C455.863 120.246 457.27 120.49 458.573 120.977C459.885 121.454 461.029 122.175 462.003 123.14C462.987 124.104 463.753 125.317 464.3 126.779C464.847 128.231 465.12 129.931 465.12 131.88V133.625H445.776V129.687H459.139C459.139 128.773 458.94 127.962 458.543 127.256C458.145 126.55 457.593 125.998 456.887 125.601C456.191 125.193 455.381 124.989 454.456 124.989C453.492 124.989 452.636 125.213 451.891 125.66C451.155 126.098 450.578 126.689 450.161 127.435C449.743 128.171 449.529 128.991 449.519 129.896V133.64C449.519 134.773 449.728 135.753 450.146 136.578C450.573 137.403 451.175 138.04 451.95 138.487C452.726 138.934 453.646 139.158 454.71 139.158C455.416 139.158 456.062 139.059 456.649 138.86C457.235 138.661 457.737 138.363 458.155 137.965C458.573 137.567 458.891 137.08 459.11 136.503L464.986 136.891C464.688 138.303 464.076 139.536 463.151 140.59C462.237 141.634 461.053 142.449 459.602 143.036C458.16 143.613 456.494 143.901 454.605 143.901ZM490.009 120.545L482 143.454H474.841L466.832 120.545H473.543L478.301 136.936H478.54L483.283 120.545H490.009ZM493.261 143.454V120.545H499.614V143.454H493.261ZM496.452 117.591C495.508 117.591 494.697 117.278 494.021 116.652C493.355 116.015 493.022 115.255 493.022 114.37C493.022 113.495 493.355 112.744 494.021 112.118C494.697 111.481 495.508 111.163 496.452 111.163C497.397 111.163 498.202 111.481 498.869 112.118C499.545 112.744 499.883 113.495 499.883 114.37C499.883 115.255 499.545 116.015 498.869 116.652C498.202 117.278 497.397 117.591 496.452 117.591ZM515.144 143.901C512.788 143.901 510.759 143.424 509.059 142.469C507.369 141.505 506.066 140.143 505.151 138.383C504.237 136.613 503.779 134.52 503.779 132.103C503.779 129.747 504.237 127.679 505.151 125.899C506.066 124.119 507.354 122.732 509.014 121.738C510.685 120.743 512.644 120.246 514.891 120.246C516.402 120.246 517.809 120.49 519.112 120.977C520.424 121.454 521.568 122.175 522.542 123.14C523.526 124.104 524.292 125.317 524.839 126.779C525.386 128.231 525.659 129.931 525.659 131.88V133.625H506.315V129.687H519.678C519.678 128.773 519.48 127.962 519.082 127.256C518.684 126.55 518.132 125.998 517.426 125.601C516.73 125.193 515.92 124.989 514.995 124.989C514.031 124.989 513.176 125.213 512.43 125.66C511.694 126.098 511.117 126.689 510.7 127.435C510.282 128.171 510.068 128.991 510.058 129.896V133.64C510.058 134.773 510.267 135.753 510.685 136.578C511.112 137.403 511.714 138.04 512.489 138.487C513.265 138.934 514.185 139.158 515.249 139.158C515.955 139.158 516.601 139.059 517.188 138.86C517.774 138.661 518.276 138.363 518.694 137.965C519.112 137.567 519.43 137.08 519.649 136.503L525.525 136.891C525.227 138.303 524.615 139.536 523.69 140.59C522.776 141.634 521.592 142.449 520.141 143.036C518.699 143.613 517.034 143.901 515.144 143.901ZM536.159 130.209V143.454H529.806V120.545H535.861V124.586H536.129C536.636 123.254 537.487 122.2 538.68 121.424C539.873 120.639 541.32 120.246 543.02 120.246C544.611 120.246 545.998 120.594 547.181 121.29C548.364 121.986 549.284 122.981 549.94 124.273C550.597 125.556 550.925 127.087 550.925 128.867V143.454H544.571V130C544.581 128.598 544.223 127.505 543.497 126.719C542.771 125.924 541.772 125.526 540.499 125.526C539.644 125.526 538.889 125.71 538.232 126.078C537.586 126.446 537.079 126.983 536.711 127.689C536.353 128.385 536.169 129.225 536.159 130.209ZM584.714 127.077L578.898 127.435C578.798 126.938 578.584 126.491 578.256 126.093C577.928 125.685 577.496 125.362 576.959 125.123C576.432 124.875 575.8 124.75 575.064 124.75C574.08 124.75 573.25 124.959 572.574 125.377C571.898 125.785 571.559 126.331 571.559 127.018C571.559 127.564 571.778 128.027 572.216 128.405C572.653 128.782 573.404 129.086 574.468 129.314L578.614 130.15C580.841 130.607 582.502 131.343 583.596 132.357C584.689 133.371 585.236 134.704 585.236 136.354C585.236 137.856 584.794 139.173 583.909 140.307C583.034 141.44 581.831 142.325 580.299 142.961C578.778 143.588 577.023 143.901 575.035 143.901C572.002 143.901 569.586 143.27 567.786 142.007C565.996 140.734 564.947 139.004 564.639 136.817L570.888 136.488C571.077 137.413 571.535 138.119 572.26 138.606C572.986 139.084 573.916 139.322 575.049 139.322C576.163 139.322 577.058 139.108 577.734 138.681C578.42 138.243 578.768 137.682 578.778 136.996C578.768 136.419 578.525 135.947 578.047 135.579C577.57 135.201 576.834 134.912 575.84 134.714L571.873 133.923C569.635 133.476 567.97 132.7 566.876 131.596C565.792 130.493 565.25 129.086 565.25 127.375C565.25 125.904 565.648 124.636 566.444 123.572C567.249 122.508 568.378 121.688 569.829 121.111C571.291 120.535 573.001 120.246 574.96 120.246C577.853 120.246 580.13 120.858 581.791 122.081C583.461 123.304 584.436 124.969 584.714 127.077ZM589.237 143.454V120.545H595.591V143.454H589.237ZM592.429 117.591C591.484 117.591 590.674 117.278 589.998 116.652C589.332 116.015 588.999 115.255 588.999 114.37C588.999 113.495 589.332 112.744 589.998 112.118C590.674 111.481 591.484 111.163 592.429 111.163C593.374 111.163 594.179 111.481 594.845 112.118C595.521 112.744 595.859 113.495 595.859 114.37C595.859 115.255 595.521 116.015 594.845 116.652C594.179 117.278 593.374 117.591 592.429 117.591ZM619.742 127.077L613.925 127.435C613.825 126.938 613.612 126.491 613.284 126.093C612.955 125.685 612.523 125.362 611.986 125.123C611.459 124.875 610.828 124.75 610.092 124.75C609.107 124.75 608.277 124.959 607.601 125.377C606.925 125.785 606.587 126.331 606.587 127.018C606.587 127.564 606.806 128.027 607.243 128.405C607.681 128.782 608.431 129.086 609.495 129.314L613.641 130.15C615.869 130.607 617.529 131.343 618.623 132.357C619.717 133.371 620.264 134.704 620.264 136.354C620.264 137.856 619.821 139.173 618.936 140.307C618.061 141.44 616.858 142.325 615.327 142.961C613.806 143.588 612.051 143.901 610.062 143.901C607.029 143.901 604.613 143.27 602.813 142.007C601.024 140.734 599.975 139.004 599.666 136.817L605.916 136.488C606.105 137.413 606.562 138.119 607.288 138.606C608.014 139.084 608.943 139.322 610.077 139.322C611.19 139.322 612.085 139.108 612.761 138.681C613.448 138.243 613.796 137.682 613.806 136.996C613.796 136.419 613.552 135.947 613.075 135.579C612.597 135.201 611.862 134.912 610.867 134.714L606.9 133.923C604.663 133.476 602.997 132.7 601.904 131.596C600.82 130.493 600.278 129.086 600.278 127.375C600.278 125.904 600.676 124.636 601.471 123.572C602.276 122.508 603.405 121.688 604.857 121.111C606.318 120.535 608.029 120.246 609.987 120.246C612.881 120.246 615.158 120.858 616.818 122.081C618.489 123.304 619.463 124.969 619.742 127.077ZM630.797 143.886C629.336 143.886 628.033 143.633 626.89 143.125C625.746 142.608 624.841 141.848 624.175 140.844C623.519 139.829 623.191 138.567 623.191 137.055C623.191 135.782 623.424 134.714 623.892 133.848C624.359 132.983 624.995 132.287 625.801 131.76C626.606 131.233 627.521 130.836 628.545 130.567C629.579 130.299 630.663 130.11 631.796 130C633.129 129.861 634.203 129.732 635.018 129.613C635.833 129.483 636.425 129.295 636.793 129.046C637.161 128.797 637.345 128.429 637.345 127.942V127.853C637.345 126.908 637.046 126.177 636.45 125.66C635.863 125.143 635.028 124.885 633.944 124.885C632.801 124.885 631.891 125.138 631.215 125.645C630.539 126.143 630.091 126.769 629.872 127.525L623.996 127.047C624.294 125.655 624.881 124.452 625.756 123.438C626.631 122.414 627.76 121.628 629.142 121.081C630.534 120.525 632.144 120.246 633.974 120.246C635.247 120.246 636.465 120.395 637.628 120.694C638.801 120.992 639.841 121.454 640.745 122.081C641.66 122.707 642.381 123.513 642.908 124.497C643.435 125.471 643.698 126.64 643.698 128.002V143.454H637.673V140.277H637.494C637.126 140.993 636.634 141.624 636.017 142.171C635.401 142.708 634.66 143.13 633.795 143.439C632.93 143.737 631.931 143.886 630.797 143.886ZM632.617 139.501C633.551 139.501 634.377 139.317 635.093 138.949C635.809 138.572 636.37 138.064 636.778 137.428C637.186 136.792 637.39 136.071 637.39 135.265V132.834C637.191 132.964 636.917 133.083 636.569 133.192C636.231 133.292 635.848 133.386 635.421 133.476C634.993 133.555 634.566 133.63 634.138 133.699C633.711 133.759 633.323 133.814 632.975 133.863C632.229 133.973 631.578 134.147 631.021 134.385C630.464 134.624 630.032 134.947 629.723 135.355C629.415 135.753 629.261 136.25 629.261 136.846C629.261 137.711 629.574 138.373 630.201 138.83C630.837 139.277 631.642 139.501 632.617 139.501ZM629.664 117.412C628.809 117.412 628.073 117.114 627.456 116.518C626.84 115.911 626.532 115.195 626.532 114.37C626.532 113.525 626.84 112.809 627.456 112.222C628.073 111.635 628.809 111.342 629.664 111.342C630.529 111.342 631.26 111.635 631.856 112.222C632.463 112.809 632.766 113.525 632.766 114.37C632.766 115.195 632.463 115.911 631.856 116.518C631.26 117.114 630.529 117.412 629.664 117.412ZM638.792 117.412C637.936 117.412 637.201 117.114 636.584 116.518C635.968 115.911 635.659 115.195 635.659 114.37C635.659 113.525 635.968 112.809 636.584 112.222C637.201 111.635 637.936 111.342 638.792 111.342C639.657 111.342 640.387 111.635 640.984 112.222C641.591 112.809 641.894 113.525 641.894 114.37C641.894 115.195 641.591 115.911 640.984 116.518C640.387 117.114 639.657 117.412 638.792 117.412ZM654.981 112.908V143.454H648.628V112.908H654.981ZM672.257 120.545V125.317H658.46V120.545H672.257ZM661.592 115.056H667.946V136.414C667.946 137 668.036 137.458 668.215 137.786C668.394 138.104 668.642 138.328 668.96 138.457C669.288 138.586 669.666 138.651 670.094 138.651C670.392 138.651 670.69 138.626 670.989 138.576C671.287 138.517 671.516 138.472 671.675 138.442L672.674 143.17C672.356 143.27 671.909 143.384 671.332 143.513C670.755 143.652 670.054 143.737 669.229 143.767C667.698 143.826 666.355 143.623 665.202 143.155C664.058 142.688 663.168 141.962 662.532 140.978C661.896 139.993 661.583 138.75 661.592 137.249V115.056ZM686.5 143.901C684.183 143.901 682.18 143.409 680.489 142.424C678.809 141.43 677.511 140.048 676.597 138.278C675.682 136.498 675.225 134.435 675.225 132.089C675.225 129.722 675.682 127.654 676.597 125.884C677.511 124.104 678.809 122.722 680.489 121.738C682.18 120.743 684.183 120.246 686.5 120.246C688.817 120.246 690.815 120.743 692.496 121.738C694.186 122.722 695.489 124.104 696.404 125.884C697.318 127.654 697.776 129.722 697.776 132.089C697.776 134.435 697.318 136.498 696.404 138.278C695.489 140.048 694.186 141.43 692.496 142.424C690.815 143.409 688.817 143.901 686.5 143.901ZM686.53 138.979C687.584 138.979 688.464 138.681 689.17 138.084C689.876 137.478 690.408 136.652 690.766 135.608C691.134 134.564 691.318 133.376 691.318 132.044C691.318 130.711 691.134 129.523 690.766 128.479C690.408 127.435 689.876 126.61 689.17 126.003C688.464 125.397 687.584 125.094 686.53 125.094C685.466 125.094 684.571 125.397 683.845 126.003C683.129 126.61 682.587 127.435 682.22 128.479C681.862 129.523 681.683 130.711 681.683 132.044C681.683 133.376 681.862 134.564 682.22 135.608C682.587 136.652 683.129 137.478 683.845 138.084C684.571 138.681 685.466 138.979 686.53 138.979ZM681.951 117.412C681.096 117.412 680.36 117.114 679.744 116.518C679.127 115.911 678.819 115.195 678.819 114.37C678.819 113.525 679.127 112.809 679.744 112.222C680.36 111.635 681.096 111.342 681.951 111.342C682.816 111.342 683.547 111.635 684.144 112.222C684.75 112.809 685.053 113.525 685.053 114.37C685.053 115.195 684.75 115.911 684.144 116.518C683.547 117.114 682.816 117.412 681.951 117.412ZM691.079 117.412C690.224 117.412 689.488 117.114 688.872 116.518C688.255 115.911 687.947 115.195 687.947 114.37C687.947 113.525 688.255 112.809 688.872 112.222C689.488 111.635 690.224 111.342 691.079 111.342C691.944 111.342 692.675 111.635 693.271 112.222C693.878 112.809 694.181 113.525 694.181 114.37C694.181 115.195 693.878 115.911 693.271 116.518C692.675 117.114 691.944 117.412 691.079 117.412ZM701.907 120.545H708.261V144.587C708.261 146.357 707.913 147.789 707.217 148.883C706.521 149.976 705.521 150.777 704.219 151.284C702.926 151.791 701.38 152.045 699.58 152.045C699.362 152.045 699.153 152.04 698.954 152.03C698.745 152.03 698.526 152.025 698.298 152.015V147.048C698.467 147.058 698.616 147.063 698.745 147.063C698.864 147.073 698.994 147.078 699.133 147.078C700.157 147.078 700.873 146.859 701.281 146.422C701.698 145.994 701.907 145.348 701.907 144.483V120.545ZM705.069 117.591C704.134 117.591 703.329 117.278 702.653 116.652C701.977 116.015 701.639 115.255 701.639 114.37C701.639 113.495 701.977 112.744 702.653 112.118C703.329 111.481 704.134 111.163 705.069 111.163C706.024 111.163 706.834 111.481 707.5 112.118C708.176 112.744 708.514 113.495 708.514 114.37C708.514 115.255 708.176 116.015 707.5 116.652C706.834 117.278 706.024 117.591 705.069 117.591ZM723.791 143.901C721.434 143.901 719.406 143.424 717.706 142.469C716.015 141.505 714.713 140.143 713.798 138.383C712.883 136.613 712.426 134.52 712.426 132.103C712.426 129.747 712.883 127.679 713.798 125.899C714.713 124.119 716 122.732 717.661 121.738C719.331 120.743 721.29 120.246 723.537 120.246C725.049 120.246 726.456 120.49 727.758 120.977C729.071 121.454 730.214 122.175 731.189 123.14C732.173 124.104 732.939 125.317 733.485 126.779C734.032 128.231 734.306 129.931 734.306 131.88V133.625H714.961V129.687H728.325C728.325 128.773 728.126 127.962 727.728 127.256C727.331 126.55 726.779 125.998 726.073 125.601C725.377 125.193 724.566 124.989 723.642 124.989C722.677 124.989 721.822 125.213 721.076 125.66C720.341 126.098 719.764 126.689 719.346 127.435C718.929 128.171 718.715 128.991 718.705 129.896V133.64C718.705 134.773 718.914 135.753 719.331 136.578C719.759 137.403 720.36 138.04 721.136 138.487C721.912 138.934 722.831 139.158 723.895 139.158C724.601 139.158 725.247 139.059 725.834 138.86C726.421 138.661 726.923 138.363 727.341 137.965C727.758 137.567 728.076 137.08 728.295 136.503L734.171 136.891C733.873 138.303 733.262 139.536 732.337 140.59C731.422 141.634 730.239 142.449 728.787 143.036C727.345 143.613 725.68 143.901 723.791 143.901ZM744.806 130.209V143.454H738.452V120.545H744.507V124.586H744.776C745.283 123.254 746.133 122.2 747.326 121.424C748.519 120.639 749.966 120.246 751.667 120.246C753.257 120.246 754.644 120.594 755.828 121.29C757.011 121.986 757.931 122.981 758.587 124.273C759.243 125.556 759.571 127.087 759.571 128.867V143.454H753.218V130C753.228 128.598 752.87 127.505 752.144 126.719C751.418 125.924 750.419 125.526 749.146 125.526C748.291 125.526 747.535 125.71 746.879 126.078C746.233 126.446 745.725 126.983 745.358 127.689C745 128.385 744.816 129.225 744.806 130.209ZM115.466 194.454V171.545H121.521V175.586H121.79C122.267 174.244 123.062 173.185 124.176 172.41C125.29 171.634 126.622 171.246 128.173 171.246C129.744 171.246 131.081 171.639 132.185 172.424C133.289 173.2 134.025 174.254 134.393 175.586H134.631C135.099 174.274 135.944 173.225 137.167 172.439C138.4 171.644 139.856 171.246 141.537 171.246C143.674 171.246 145.41 171.927 146.742 173.29C148.084 174.642 148.755 176.561 148.755 179.047V194.454H142.417V180.299C142.417 179.027 142.079 178.072 141.402 177.436C140.726 176.799 139.881 176.481 138.867 176.481C137.714 176.481 136.814 176.849 136.167 177.585C135.521 178.311 135.198 179.27 135.198 180.464V194.454H129.038V180.165C129.038 179.042 128.715 178.147 128.069 177.481C127.432 176.814 126.592 176.481 125.548 176.481C124.842 176.481 124.206 176.66 123.639 177.018C123.082 177.366 122.64 177.858 122.312 178.495C121.983 179.121 121.819 179.857 121.819 180.702V194.454H115.466ZM168.465 184.699V171.545H174.819V194.454H168.719V190.292H168.48C167.963 191.635 167.103 192.714 165.9 193.529C164.707 194.344 163.25 194.752 161.53 194.752C159.999 194.752 158.651 194.404 157.488 193.708C156.325 193.012 155.415 192.023 154.759 190.74C154.112 189.457 153.784 187.921 153.774 186.131V171.545H160.128V184.998C160.138 186.35 160.501 187.419 161.217 188.204C161.933 188.99 162.892 189.383 164.095 189.383C164.861 189.383 165.577 189.209 166.243 188.861C166.909 188.503 167.446 187.976 167.854 187.28C168.271 186.584 168.475 185.723 168.465 184.699ZM190.252 194.901C187.935 194.901 185.932 194.409 184.241 193.424C182.561 192.43 181.263 191.048 180.349 189.278C179.434 187.498 178.977 185.435 178.977 183.089C178.977 180.722 179.434 178.654 180.349 176.884C181.263 175.104 182.561 173.722 184.241 172.738C185.932 171.743 187.935 171.246 190.252 171.246C192.569 171.246 194.567 171.743 196.248 172.738C197.938 173.722 199.241 175.104 200.155 176.884C201.07 178.654 201.528 180.722 201.528 183.089C201.528 185.435 201.07 187.498 200.155 189.278C199.241 191.048 197.938 192.43 196.248 193.424C194.567 194.409 192.569 194.901 190.252 194.901ZM190.282 189.979C191.336 189.979 192.216 189.681 192.922 189.084C193.628 188.478 194.16 187.652 194.518 186.608C194.886 185.564 195.07 184.376 195.07 183.044C195.07 181.711 194.886 180.523 194.518 179.479C194.16 178.435 193.628 177.61 192.922 177.003C192.216 176.397 191.336 176.094 190.282 176.094C189.218 176.094 188.323 176.397 187.597 177.003C186.881 177.61 186.339 178.435 185.972 179.479C185.614 180.523 185.435 181.711 185.435 183.044C185.435 184.376 185.614 185.564 185.972 186.608C186.339 187.652 186.881 188.478 187.597 189.084C188.323 189.681 189.218 189.979 190.282 189.979ZM211.416 187.861L211.431 180.24H212.356L219.694 171.545H226.987L217.129 183.059H215.622L211.416 187.861ZM205.659 194.454V163.908H212.013V194.454H205.659ZM219.977 194.454L213.236 184.476L217.472 179.986L227.42 194.454H219.977ZM235.861 187.861L235.876 180.24H236.801L244.139 171.545H251.432L241.574 183.059H240.067L235.861 187.861ZM230.104 194.454V163.908H236.458V194.454H230.104ZM244.423 194.454L237.681 184.476L241.917 179.986L251.865 194.454H244.423ZM261.082 194.886C259.621 194.886 258.318 194.633 257.175 194.125C256.031 193.608 255.126 192.848 254.46 191.844C253.804 190.829 253.476 189.567 253.476 188.055C253.476 186.782 253.709 185.714 254.177 184.848C254.644 183.983 255.28 183.287 256.086 182.76C256.891 182.233 257.806 181.836 258.83 181.567C259.864 181.299 260.948 181.11 262.082 181C263.414 180.861 264.488 180.732 265.303 180.613C266.119 180.483 266.71 180.295 267.078 180.046C267.446 179.797 267.63 179.429 267.63 178.942V178.853C267.63 177.908 267.332 177.177 266.735 176.66C266.148 176.143 265.313 175.885 264.229 175.885C263.086 175.885 262.176 176.138 261.5 176.645C260.824 177.143 260.376 177.769 260.158 178.525L254.281 178.047C254.58 176.655 255.166 175.452 256.041 174.438C256.916 173.414 258.045 172.628 259.427 172.081C260.819 171.525 262.43 171.246 264.259 171.246C265.532 171.246 266.75 171.395 267.913 171.694C269.087 171.992 270.126 172.454 271.03 173.081C271.945 173.707 272.666 174.513 273.193 175.497C273.72 176.471 273.984 177.64 273.984 179.002V194.454H267.958V191.277H267.779C267.411 191.993 266.919 192.624 266.303 193.171C265.686 193.708 264.945 194.13 264.08 194.439C263.215 194.737 262.216 194.886 261.082 194.886ZM262.902 190.501C263.837 190.501 264.662 190.317 265.378 189.949C266.094 189.572 266.655 189.064 267.063 188.428C267.471 187.792 267.675 187.071 267.675 186.265V183.834C267.476 183.964 267.202 184.083 266.854 184.192C266.516 184.292 266.133 184.386 265.706 184.476C265.278 184.555 264.851 184.63 264.423 184.699C263.996 184.759 263.608 184.814 263.26 184.863C262.514 184.973 261.863 185.147 261.306 185.385C260.749 185.624 260.317 185.947 260.008 186.355C259.7 186.753 259.546 187.25 259.546 187.846C259.546 188.711 259.859 189.373 260.486 189.83C261.122 190.277 261.928 190.501 262.902 190.501ZM285.446 194.886C283.984 194.886 282.681 194.633 281.538 194.125C280.394 193.608 279.49 192.848 278.823 191.844C278.167 190.829 277.839 189.567 277.839 188.055C277.839 186.782 278.073 185.714 278.54 184.848C279.007 183.983 279.644 183.287 280.449 182.76C281.255 182.233 282.169 181.836 283.193 181.567C284.228 181.299 285.311 181.11 286.445 181C287.777 180.861 288.851 180.732 289.667 180.613C290.482 180.483 291.073 180.295 291.441 180.046C291.809 179.797 291.993 179.429 291.993 178.942V178.853C291.993 177.908 291.695 177.177 291.098 176.66C290.512 176.143 289.676 175.885 288.593 175.885C287.449 175.885 286.539 176.138 285.863 176.645C285.187 177.143 284.74 177.769 284.521 178.525L278.644 178.047C278.943 176.655 279.529 175.452 280.404 174.438C281.279 173.414 282.408 172.628 283.79 172.081C285.182 171.525 286.793 171.246 288.622 171.246C289.895 171.246 291.113 171.395 292.277 171.694C293.45 171.992 294.489 172.454 295.394 173.081C296.309 173.707 297.029 174.513 297.556 175.497C298.083 176.471 298.347 177.64 298.347 179.002V194.454H292.321V191.277H292.142C291.774 191.993 291.282 192.624 290.666 193.171C290.049 193.708 289.309 194.13 288.443 194.439C287.578 194.737 286.579 194.886 285.446 194.886ZM287.265 190.501C288.2 190.501 289.025 190.317 289.741 189.949C290.457 189.572 291.019 189.064 291.426 188.428C291.834 187.792 292.038 187.071 292.038 186.265V183.834C291.839 183.964 291.566 184.083 291.218 184.192C290.88 184.292 290.497 184.386 290.069 184.476C289.642 184.555 289.214 184.63 288.787 184.699C288.359 184.759 287.971 184.814 287.623 184.863C286.877 184.973 286.226 185.147 285.669 185.385C285.113 185.624 284.68 185.947 284.372 186.355C284.064 186.753 283.909 187.25 283.909 187.846C283.909 188.711 284.223 189.373 284.849 189.83C285.485 190.277 286.291 190.501 287.265 190.501ZM303.276 194.454V171.545H309.332V175.586H309.6C310.077 174.244 310.873 173.185 311.986 172.41C313.1 171.634 314.432 171.246 315.984 171.246C317.555 171.246 318.892 171.639 319.996 172.424C321.099 173.2 321.835 174.254 322.203 175.586H322.442C322.909 174.274 323.754 173.225 324.977 172.439C326.21 171.644 327.667 171.246 329.347 171.246C331.485 171.246 333.22 171.927 334.553 173.29C335.895 174.642 336.566 176.561 336.566 179.047V194.454H330.227V180.299C330.227 179.027 329.889 178.072 329.213 177.436C328.537 176.799 327.692 176.481 326.678 176.481C325.524 176.481 324.624 176.849 323.978 177.585C323.332 178.311 323.008 179.27 323.008 180.464V194.454H316.849V180.165C316.849 179.042 316.526 178.147 315.879 177.481C315.243 176.814 314.403 176.481 313.359 176.481C312.653 176.481 312.016 176.66 311.45 177.018C310.893 177.366 310.45 177.858 310.122 178.495C309.794 179.121 309.63 179.857 309.63 180.702V194.454H303.276ZM341.585 194.454V171.545H347.939V194.454H341.585ZM344.777 168.591C343.832 168.591 343.022 168.278 342.345 167.652C341.679 167.015 341.346 166.255 341.346 165.37C341.346 164.495 341.679 163.744 342.345 163.118C343.022 162.481 343.832 162.163 344.777 162.163C345.721 162.163 346.527 162.481 347.193 163.118C347.869 163.744 348.207 164.495 348.207 165.37C348.207 166.255 347.869 167.015 347.193 167.652C346.527 168.278 345.721 168.591 344.777 168.591ZM359.382 181.209V194.454H353.028V171.545H359.084V175.586H359.352C359.859 174.254 360.709 173.2 361.902 172.424C363.096 171.639 364.542 171.246 366.243 171.246C367.834 171.246 369.221 171.594 370.404 172.29C371.587 172.986 372.507 173.981 373.163 175.273C373.819 176.556 374.148 178.087 374.148 179.867V194.454H367.794V181C367.804 179.598 367.446 178.505 366.72 177.719C365.994 176.924 364.995 176.526 363.722 176.526C362.867 176.526 362.111 176.71 361.455 177.078C360.809 177.446 360.302 177.983 359.934 178.689C359.576 179.385 359.392 180.225 359.382 181.209ZM389.595 194.901C387.239 194.901 385.211 194.424 383.51 193.469C381.82 192.505 380.517 191.143 379.603 189.383C378.688 187.613 378.23 185.52 378.23 183.103C378.23 180.747 378.688 178.679 379.603 176.899C380.517 175.119 381.805 173.732 383.466 172.738C385.136 171.743 387.095 171.246 389.342 171.246C390.853 171.246 392.26 171.49 393.563 171.977C394.875 172.454 396.019 173.175 396.993 174.14C397.978 175.104 398.743 176.317 399.29 177.779C399.837 179.231 400.11 180.931 400.11 182.88V184.625H380.766V180.687H394.13C394.13 179.773 393.931 178.962 393.533 178.256C393.135 177.55 392.583 176.998 391.877 176.601C391.181 176.193 390.371 175.989 389.446 175.989C388.482 175.989 387.627 176.213 386.881 176.66C386.145 177.098 385.568 177.689 385.151 178.435C384.733 179.171 384.519 179.991 384.51 180.896V184.64C384.51 185.773 384.718 186.753 385.136 187.578C385.564 188.403 386.165 189.04 386.941 189.487C387.716 189.934 388.636 190.158 389.7 190.158C390.406 190.158 391.052 190.059 391.639 189.86C392.225 189.661 392.728 189.363 393.145 188.965C393.563 188.567 393.881 188.08 394.1 187.503L399.976 187.891C399.678 189.303 399.066 190.536 398.142 191.59C397.227 192.634 396.044 193.449 394.592 194.036C393.15 194.613 391.485 194.901 389.595 194.901ZM410.61 181.209V194.454H404.257V171.545H410.312V175.586H410.581C411.088 174.254 411.938 173.2 413.131 172.424C414.324 171.639 415.771 171.246 417.471 171.246C419.062 171.246 420.449 171.594 421.632 172.29C422.816 172.986 423.735 173.981 424.392 175.273C425.048 176.556 425.376 178.087 425.376 179.867V194.454H419.022V181C419.032 179.598 418.674 178.505 417.948 177.719C417.223 176.924 416.223 176.526 414.951 176.526C414.095 176.526 413.34 176.71 412.684 177.078C412.037 177.446 411.53 177.983 411.162 178.689C410.804 179.385 410.62 180.225 410.61 181.209ZM459.165 178.077L453.349 178.435C453.249 177.938 453.035 177.491 452.707 177.093C452.379 176.685 451.947 176.362 451.41 176.123C450.883 175.875 450.251 175.75 449.516 175.75C448.531 175.75 447.701 175.959 447.025 176.377C446.349 176.785 446.011 177.331 446.011 178.018C446.011 178.564 446.229 179.027 446.667 179.405C447.104 179.782 447.855 180.086 448.919 180.314L453.065 181.15C455.293 181.607 456.953 182.343 458.047 183.357C459.141 184.371 459.687 185.704 459.687 187.354C459.687 188.856 459.245 190.173 458.36 191.307C457.485 192.44 456.282 193.325 454.751 193.961C453.229 194.588 451.474 194.901 449.486 194.901C446.453 194.901 444.037 194.27 442.237 193.007C440.447 191.734 439.398 190.004 439.09 187.817L445.339 187.488C445.528 188.413 445.986 189.119 446.712 189.606C447.437 190.084 448.367 190.322 449.501 190.322C450.614 190.322 451.509 190.108 452.185 189.681C452.871 189.243 453.219 188.682 453.229 187.996C453.219 187.419 452.976 186.947 452.499 186.579C452.021 186.201 451.285 185.912 450.291 185.714L446.324 184.923C444.087 184.476 442.421 183.7 441.327 182.596C440.244 181.493 439.702 180.086 439.702 178.375C439.702 176.904 440.099 175.636 440.895 174.572C441.7 173.508 442.829 172.688 444.28 172.111C445.742 171.535 447.452 171.246 449.411 171.246C452.305 171.246 454.582 171.858 456.242 173.081C457.913 174.304 458.887 175.969 459.165 178.077ZM474.129 194.901C471.772 194.901 469.744 194.424 468.043 193.469C466.353 192.505 465.051 191.143 464.136 189.383C463.221 187.613 462.764 185.52 462.764 183.103C462.764 180.747 463.221 178.679 464.136 176.899C465.051 175.119 466.338 173.732 467.999 172.738C469.669 171.743 471.628 171.246 473.875 171.246C475.386 171.246 476.793 171.49 478.096 171.977C479.409 172.454 480.552 173.175 481.526 174.14C482.511 175.104 483.276 176.317 483.823 177.779C484.37 179.231 484.644 180.931 484.644 182.88V184.625H465.299V180.687H478.663C478.663 179.773 478.464 178.962 478.066 178.256C477.668 177.55 477.117 176.998 476.411 176.601C475.715 176.193 474.904 175.989 473.98 175.989C473.015 175.989 472.16 176.213 471.414 176.66C470.678 177.098 470.102 177.689 469.684 178.435C469.266 179.171 469.053 179.991 469.043 180.896V184.64C469.043 185.773 469.252 186.753 469.669 187.578C470.097 188.403 470.698 189.04 471.474 189.487C472.249 189.934 473.169 190.158 474.233 190.158C474.939 190.158 475.585 190.059 476.172 189.86C476.759 189.661 477.261 189.363 477.678 188.965C478.096 188.567 478.414 188.08 478.633 187.503L484.509 187.891C484.211 189.303 483.6 190.536 482.675 191.59C481.76 192.634 480.577 193.449 479.125 194.036C477.683 194.613 476.018 194.901 474.129 194.901ZM494.547 187.861L494.562 180.24H495.487L502.825 171.545H510.118L500.259 183.059H498.753L494.547 187.861ZM488.79 194.454V163.908H495.144V194.454H488.79ZM503.108 194.454L496.367 184.476L500.602 179.986L510.551 194.454H503.108ZM519.768 194.886C518.306 194.886 517.004 194.633 515.86 194.125C514.717 193.608 513.812 192.848 513.146 191.844C512.489 190.829 512.161 189.567 512.161 188.055C512.161 186.782 512.395 185.714 512.862 184.848C513.33 183.983 513.966 183.287 514.771 182.76C515.577 182.233 516.492 181.836 517.516 181.567C518.55 181.299 519.634 181.11 520.767 181C522.1 180.861 523.173 180.732 523.989 180.613C524.804 180.483 525.396 180.295 525.764 180.046C526.132 179.797 526.315 179.429 526.315 178.942V178.853C526.315 177.908 526.017 177.177 525.421 176.66C524.834 176.143 523.999 175.885 522.915 175.885C521.771 175.885 520.862 176.138 520.186 176.645C519.509 177.143 519.062 177.769 518.843 178.525L512.967 178.047C513.265 176.655 513.852 175.452 514.727 174.438C515.602 173.414 516.73 172.628 518.112 172.081C519.504 171.525 521.115 171.246 522.945 171.246C524.217 171.246 525.436 171.395 526.599 171.694C527.772 171.992 528.811 172.454 529.716 173.081C530.631 173.707 531.352 174.513 531.879 175.497C532.406 176.471 532.669 177.64 532.669 179.002V194.454H526.644V191.277H526.465C526.097 191.993 525.605 192.624 524.988 193.171C524.372 193.708 523.631 194.13 522.766 194.439C521.901 194.737 520.901 194.886 519.768 194.886ZM521.587 190.501C522.522 190.501 523.347 190.317 524.063 189.949C524.779 189.572 525.341 189.064 525.749 188.428C526.156 187.792 526.36 187.071 526.36 186.265V183.834C526.161 183.964 525.888 184.083 525.54 184.192C525.202 184.292 524.819 184.386 524.391 184.476C523.964 184.555 523.536 184.63 523.109 184.699C522.681 184.759 522.293 184.814 521.945 184.863C521.2 184.973 520.548 185.147 519.992 185.385C519.435 185.624 519.002 185.947 518.694 186.355C518.386 186.753 518.232 187.25 518.232 187.846C518.232 188.711 518.545 189.373 519.171 189.83C519.808 190.277 520.613 190.501 521.587 190.501ZM518.634 168.412C517.779 168.412 517.043 168.114 516.427 167.518C515.811 166.911 515.502 166.195 515.502 165.37C515.502 164.525 515.811 163.809 516.427 163.222C517.043 162.635 517.779 162.342 518.634 162.342C519.499 162.342 520.23 162.635 520.827 163.222C521.433 163.809 521.737 164.525 521.737 165.37C521.737 166.195 521.433 166.911 520.827 167.518C520.23 168.114 519.499 168.412 518.634 168.412ZM527.762 168.412C526.907 168.412 526.171 168.114 525.555 167.518C524.938 166.911 524.63 166.195 524.63 165.37C524.63 164.525 524.938 163.809 525.555 163.222C526.171 162.635 526.907 162.342 527.762 162.342C528.627 162.342 529.358 162.635 529.955 163.222C530.561 163.809 530.864 164.525 530.864 165.37C530.864 166.195 530.561 166.911 529.955 167.518C529.358 168.114 528.627 168.412 527.762 168.412ZM557.67 194.901C555.353 194.901 553.35 194.409 551.659 193.424C549.979 192.43 548.681 191.048 547.767 189.278C546.852 187.498 546.394 185.435 546.394 183.089C546.394 180.722 546.852 178.654 547.767 176.884C548.681 175.104 549.979 173.722 551.659 172.738C553.35 171.743 555.353 171.246 557.67 171.246C559.987 171.246 561.985 171.743 563.666 172.738C565.356 173.722 566.659 175.104 567.573 176.884C568.488 178.654 568.946 180.722 568.946 183.089C568.946 185.435 568.488 187.498 567.573 189.278C566.659 191.048 565.356 192.43 563.666 193.424C561.985 194.409 559.987 194.901 557.67 194.901ZM557.7 189.979C558.754 189.979 559.634 189.681 560.34 189.084C561.046 188.478 561.578 187.652 561.936 186.608C562.304 185.564 562.488 184.376 562.488 183.044C562.488 181.711 562.304 180.523 561.936 179.479C561.578 178.435 561.046 177.61 560.34 177.003C559.634 176.397 558.754 176.094 557.7 176.094C556.636 176.094 555.741 176.397 555.015 177.003C554.299 177.61 553.757 178.435 553.39 179.479C553.032 180.523 552.853 181.711 552.853 183.044C552.853 184.376 553.032 185.564 553.39 186.608C553.757 187.652 554.299 188.478 555.015 189.084C555.741 189.681 556.636 189.979 557.7 189.979ZM573.077 194.454V171.545H579.431V194.454H573.077ZM576.269 168.591C575.324 168.591 574.514 168.278 573.838 167.652C573.171 167.015 572.838 166.255 572.838 165.37C572.838 164.495 573.171 163.744 573.838 163.118C574.514 162.481 575.324 162.163 576.269 162.163C577.213 162.163 578.019 162.481 578.685 163.118C579.361 163.744 579.699 164.495 579.699 165.37C579.699 166.255 579.361 167.015 578.685 167.652C578.019 168.278 577.213 168.591 576.269 168.591ZM590.277 187.861L590.292 180.24H591.217L598.555 171.545H605.848L595.99 183.059H594.483L590.277 187.861ZM584.52 194.454V163.908H590.874V194.454H584.52ZM598.839 194.454L592.097 184.476L596.333 179.986L606.281 194.454H598.839ZM618.373 194.901C616.056 194.901 614.053 194.409 612.363 193.424C610.682 192.43 609.385 191.048 608.47 189.278C607.555 187.498 607.098 185.435 607.098 183.089C607.098 180.722 607.555 178.654 608.47 176.884C609.385 175.104 610.682 173.722 612.363 172.738C614.053 171.743 616.056 171.246 618.373 171.246C620.69 171.246 622.689 171.743 624.369 172.738C626.059 173.722 627.362 175.104 628.277 176.884C629.191 178.654 629.649 180.722 629.649 183.089C629.649 185.435 629.191 187.498 628.277 189.278C627.362 191.048 626.059 192.43 624.369 193.424C622.689 194.409 620.69 194.901 618.373 194.901ZM618.403 189.979C619.457 189.979 620.337 189.681 621.043 189.084C621.749 188.478 622.281 187.652 622.639 186.608C623.007 185.564 623.191 184.376 623.191 183.044C623.191 181.711 623.007 180.523 622.639 179.479C622.281 178.435 621.749 177.61 621.043 177.003C620.337 176.397 619.457 176.094 618.403 176.094C617.339 176.094 616.444 176.397 615.718 177.003C615.002 177.61 614.461 178.435 614.093 179.479C613.735 180.523 613.556 181.711 613.556 183.044C613.556 184.376 613.735 185.564 614.093 186.608C614.461 187.652 615.002 188.478 615.718 189.084C616.444 189.681 617.339 189.979 618.403 189.979ZM640.134 163.908V194.454H633.78V163.908H640.134ZM659.915 184.699V171.545H666.268V194.454H660.168V190.292H659.929C659.412 191.635 658.552 192.714 657.349 193.529C656.156 194.344 654.699 194.752 652.979 194.752C651.448 194.752 650.101 194.404 648.937 193.708C647.774 193.012 646.864 192.023 646.208 190.74C645.562 189.457 645.233 187.921 645.223 186.131V171.545H651.577V184.998C651.587 186.35 651.95 187.419 652.666 188.204C653.382 188.99 654.341 189.383 655.545 189.383C656.31 189.383 657.026 189.209 657.692 188.861C658.358 188.503 658.895 187.976 659.303 187.28C659.721 186.584 659.924 185.723 659.915 184.699ZM677.108 187.861L677.122 180.24H678.047L685.385 171.545H692.679L682.82 183.059H681.314L677.108 187.861ZM671.35 194.454V163.908H677.704V194.454H671.35ZM685.669 194.454L678.927 184.476L683.163 179.986L693.111 194.454H685.669ZM705.293 194.901C702.936 194.901 700.908 194.424 699.208 193.469C697.517 192.505 696.215 191.143 695.3 189.383C694.385 187.613 693.928 185.52 693.928 183.103C693.928 180.747 694.385 178.679 695.3 176.899C696.215 175.119 697.502 173.732 699.163 172.738C700.833 171.743 702.792 171.246 705.039 171.246C706.551 171.246 707.958 171.49 709.26 171.977C710.573 172.454 711.716 173.175 712.69 174.14C713.675 175.104 714.44 176.317 714.987 177.779C715.534 179.231 715.808 180.931 715.808 182.88V184.625H696.463V180.687H709.827C709.827 179.773 709.628 178.962 709.23 178.256C708.833 177.55 708.281 176.998 707.575 176.601C706.879 176.193 706.068 175.989 705.144 175.989C704.179 175.989 703.324 176.213 702.578 176.66C701.842 177.098 701.266 177.689 700.848 178.435C700.431 179.171 700.217 179.991 700.207 180.896V184.64C700.207 185.773 700.416 186.753 700.833 187.578C701.261 188.403 701.862 189.04 702.638 189.487C703.413 189.934 704.333 190.158 705.397 190.158C706.103 190.158 706.749 190.059 707.336 189.86C707.923 189.661 708.425 189.363 708.842 188.965C709.26 188.567 709.578 188.08 709.797 187.503L715.673 187.891C715.375 189.303 714.764 190.536 713.839 191.59C712.924 192.634 711.741 193.449 710.289 194.036C708.847 194.613 707.182 194.901 705.293 194.901ZM719.954 194.454V171.545H726.009V175.586H726.278C726.755 174.244 727.551 173.185 728.664 172.41C729.778 171.634 731.11 171.246 732.661 171.246C734.232 171.246 735.57 171.639 736.673 172.424C737.777 173.2 738.513 174.254 738.881 175.586H739.119C739.587 174.274 740.432 173.225 741.655 172.439C742.888 171.644 744.345 171.246 746.025 171.246C748.163 171.246 749.898 171.927 751.23 173.29C752.573 174.642 753.244 176.561 753.244 179.047V194.454H746.905V180.299C746.905 179.027 746.567 178.072 745.891 177.436C745.215 176.799 744.369 176.481 743.355 176.481C742.202 176.481 741.302 176.849 740.656 177.585C740.009 178.311 739.686 179.27 739.686 180.464V194.454H733.526V180.165C733.526 179.042 733.203 178.147 732.557 177.481C731.921 176.814 731.08 176.481 730.036 176.481C729.33 176.481 728.694 176.66 728.127 177.018C727.57 177.366 727.128 177.858 726.8 178.495C726.472 179.121 726.308 179.857 726.308 180.702V194.454H719.954ZM758.263 194.454V171.545H764.616V194.454H758.263ZM761.454 168.591C760.51 168.591 759.699 168.278 759.023 167.652C758.357 167.015 758.024 166.255 758.024 165.37C758.024 164.495 758.357 163.744 759.023 163.118C759.699 162.481 760.51 162.163 761.454 162.163C762.399 162.163 763.204 162.481 763.871 163.118C764.547 163.744 764.885 164.495 764.885 165.37C764.885 166.255 764.547 167.015 763.871 167.652C763.204 168.278 762.399 168.591 761.454 168.591ZM776.06 181.209V194.454H769.706V171.545H775.761V175.586H776.03C776.537 174.254 777.387 173.2 778.58 172.424C779.773 171.639 781.22 171.246 782.92 171.246C784.511 171.246 785.898 171.594 787.082 172.29C788.265 172.986 789.185 173.981 789.841 175.273C790.497 176.556 790.825 178.087 790.825 179.867V194.454H784.472V181C784.481 179.598 784.124 178.505 783.398 177.719C782.672 176.924 781.673 176.526 780.4 176.526C779.545 176.526 778.789 176.71 778.133 177.078C777.486 177.446 776.979 177.983 776.611 178.689C776.254 179.385 776.07 180.225 776.06 181.209ZM806.273 194.901C803.917 194.901 801.888 194.424 800.188 193.469C798.498 192.505 797.195 191.143 796.28 189.383C795.366 187.613 794.908 185.52 794.908 183.103C794.908 180.747 795.366 178.679 796.28 176.899C797.195 175.119 798.483 173.732 800.143 172.738C801.814 171.743 803.773 171.246 806.02 171.246C807.531 171.246 808.938 171.49 810.241 171.977C811.553 172.454 812.697 173.175 813.671 174.14C814.655 175.104 815.421 176.317 815.968 177.779C816.515 179.231 816.788 180.931 816.788 182.88V184.625H797.444V180.687H810.807C810.807 179.773 810.608 178.962 810.211 178.256C809.813 177.55 809.261 176.998 808.555 176.601C807.859 176.193 807.049 175.989 806.124 175.989C805.16 175.989 804.304 176.213 803.559 176.66C802.823 177.098 802.246 177.689 801.829 178.435C801.411 179.171 801.197 179.991 801.187 180.896V184.64C801.187 185.773 801.396 186.753 801.814 187.578C802.241 188.403 802.843 189.04 803.618 189.487C804.394 189.934 805.314 190.158 806.378 190.158C807.084 190.158 807.73 190.059 808.317 189.86C808.903 189.661 809.405 189.363 809.823 188.965C810.241 188.567 810.559 188.08 810.777 187.503L816.654 187.891C816.356 189.303 815.744 190.536 814.819 191.59C813.905 192.634 812.721 193.449 811.27 194.036C809.828 194.613 808.162 194.901 806.273 194.901ZM827.288 181.209V194.454H820.934V171.545H826.99V175.586H827.258C827.765 174.254 828.616 173.2 829.809 172.424C831.002 171.639 832.449 171.246 834.149 171.246C835.74 171.246 837.127 171.594 838.31 172.29C839.493 172.986 840.413 173.981 841.069 175.273C841.726 176.556 842.054 178.087 842.054 179.867V194.454H835.7V181C835.71 179.598 835.352 178.505 834.626 177.719C833.9 176.924 832.901 176.526 831.628 176.526C830.773 176.526 830.018 176.71 829.361 177.078C828.715 177.446 828.208 177.983 827.84 178.689C827.482 179.385 827.298 180.225 827.288 181.209ZM850.775 194.841C849.791 194.841 848.946 194.493 848.24 193.797C847.544 193.091 847.196 192.246 847.196 191.262C847.196 190.287 847.544 189.452 848.24 188.756C848.946 188.06 849.791 187.712 850.775 187.712C851.73 187.712 852.565 188.06 853.281 188.756C853.997 189.452 854.355 190.287 854.355 191.262C854.355 191.918 854.186 192.52 853.848 193.067C853.519 193.603 853.087 194.036 852.55 194.364C852.013 194.682 851.421 194.841 850.775 194.841Z" fill="white"/>
<defs>
<linearGradient id="paint0_linear_148_2" x1="581.45" y1="114.878" x2="-98.1907" y2="149.232" gradientUnits="userSpaceOnUse">
<stop stop-color="#9372CB"/>
<stop offset="1" stop-color="#FC89AC"/>
</linearGradient>
</defs>
</svg>
