<svg width="202" height="202" viewBox="0 0 202 202" fill="none" xmlns="http://www.w3.org/2000/svg">
<circle cx="101" cy="101" r="97.5" stroke="#9372CB" stroke-width="7"/>
<path d="M95.375 59.5H59.5C56.7815 59.5 54.1744 60.5799 52.2522 62.5022C50.3299 64.4244 49.25 67.0315 49.25 69.75V141.5C49.25 144.218 50.3299 146.826 52.2522 148.748C54.1744 150.67 56.7815 151.75 59.5 151.75H131.25C133.968 151.75 136.576 150.67 138.498 148.748C140.42 146.826 141.5 144.218 141.5 141.5V105.625" stroke="#9372CB" stroke-width="7" stroke-linecap="round" stroke-linejoin="round"/>
<path d="M133.812 51.8124C135.851 49.7736 138.617 48.6282 141.5 48.6282C144.383 48.6282 147.149 49.7736 149.187 51.8124C151.226 53.8513 152.372 56.6166 152.372 59.4999C152.372 62.3833 151.226 65.1486 149.187 67.1874L100.5 115.875L80 121L85.125 100.5L133.812 51.8124Z" stroke="#9372CB" stroke-width="7" stroke-linecap="round" stroke-linejoin="round"/>
</svg>
