<svg width="202" height="202" viewBox="0 0 202 202" fill="none" xmlns="http://www.w3.org/2000/svg">
<circle cx="101" cy="101" r="97.5" stroke="#9372CB" stroke-width="7"/>
<path d="M157.875 57.375C152.967 60.8368 147.533 63.4846 141.783 65.2163C138.696 61.6673 134.594 59.1518 130.031 58.0101C125.468 56.8685 120.665 57.1556 116.271 58.8328C111.876 60.51 108.103 63.4963 105.462 67.3878C102.82 71.2793 101.437 75.8882 101.5 80.5913V85.7163C92.4935 85.9498 83.569 83.9523 75.5214 79.9017C67.4738 75.8511 60.5529 69.873 55.375 62.5C55.375 62.5 34.875 108.625 81 129.125C70.4452 136.29 57.8717 139.882 45.125 139.375C91.25 165 147.625 139.375 147.625 80.4375C147.62 79.01 147.483 77.5859 147.215 76.1838C152.446 71.0254 156.137 64.5127 157.875 57.375Z" stroke="#9372CB" stroke-width="7" stroke-linecap="round" stroke-linejoin="round"/>
</svg>
